<svg preserveAspectRatio="none" width="100%" height="100%" overflow="visible" style="display: block;" viewBox="0 0 1246.08 1439.5" fill="none" xmlns="http://www.w3.org/2000/svg">
<g id="desktop partner crosspoint">
<path d="M526.577 1439.5L526.077 1354V127.999L526.577 0L526.577 1439.5Z" fill="var(--fill-0, #A4A4A4)"/>
<path d="M99.0765 723.499L0 722.999L1246.08 722.999V723.499L99.0765 723.499Z" fill="var(--fill-0, #A4A4A4)"/>
<path d="M620.339 629.124C619.511 628.308 619.502 626.976 620.318 626.148C621.135 625.321 622.467 625.312 623.295 626.128L623.296 626.13C624.123 626.946 624.132 628.278 623.316 629.106C622.5 629.933 621.167 629.942 620.34 629.126L620.339 629.124ZM630.358 640.168L630.356 640.166C629.625 639.263 629.763 637.938 630.666 637.206C631.568 636.474 632.894 636.613 633.626 637.516L633.627 637.517C634.359 638.42 634.221 639.745 633.318 640.477C632.415 641.209 631.09 641.07 630.358 640.168ZM609.162 619.256C608.25 618.536 608.094 617.213 608.813 616.301C609.532 615.388 610.856 615.232 611.768 615.951L611.77 615.953C612.683 616.673 612.839 617.996 612.12 618.909C611.4 619.821 610.077 619.977 609.164 619.258L609.162 619.256ZM641.983 652.893C641.003 653.518 639.702 653.232 639.076 652.253L639.075 652.251C638.45 651.272 638.736 649.97 639.715 649.344C640.694 648.718 641.995 649.005 642.621 649.985L642.623 649.987C643.248 650.966 642.962 652.267 641.983 652.893ZM596.96 610.702C595.973 610.09 595.669 608.792 596.282 607.805C596.894 606.817 598.191 606.514 599.179 607.126L599.181 607.127C600.168 607.739 600.473 609.036 599.86 610.024C599.248 611.012 597.95 611.315 596.963 610.703L596.96 610.702ZM649.191 666.203C648.148 666.714 646.888 666.282 646.377 665.239L646.374 665.237C645.863 664.193 646.295 662.933 647.339 662.421C648.382 661.91 649.642 662.342 650.154 663.385L650.155 663.388C650.666 664.431 650.235 665.691 649.191 666.203ZM583.878 603.579C582.827 603.081 582.378 601.827 582.875 600.776C583.373 599.726 584.627 599.278 585.677 599.775L585.68 599.776C586.73 600.273 587.178 601.527 586.681 602.578C586.184 603.628 584.93 604.076 583.88 603.579L583.878 603.579ZM654.853 680.24C653.758 680.63 652.555 680.059 652.164 678.965L652.163 678.963C651.773 677.868 652.343 676.664 653.438 676.273C654.532 675.883 655.736 676.454 656.127 677.549L656.127 677.551C656.518 678.645 655.947 679.849 654.853 680.24ZM570.074 597.976C568.975 597.601 568.387 596.405 568.763 595.305C569.139 594.205 570.335 593.619 571.435 593.994L571.437 593.995C572.536 594.37 573.124 595.566 572.748 596.666C572.373 597.766 571.176 598.352 570.076 597.977L570.074 597.976ZM658.903 694.829C657.771 695.094 656.638 694.392 656.373 693.26V693.258C656.108 692.126 656.81 690.994 657.941 690.729C659.073 690.464 660.204 691.166 660.47 692.298L660.47 692.3C660.736 693.431 660.034 694.563 658.903 694.829ZM555.724 593.96C554.589 593.71 553.872 592.588 554.121 591.453C554.371 590.318 555.493 589.601 556.628 589.851L556.63 589.851C557.765 590.101 558.483 591.223 558.233 592.358C557.983 593.493 556.861 594.211 555.726 593.961L555.724 593.96ZM661.294 709.777C660.14 709.915 659.093 709.09 658.956 707.936V707.933C658.819 706.779 659.643 705.733 660.797 705.595C661.951 705.458 662.997 706.283 663.134 707.437L663.135 707.439C663.272 708.593 662.448 709.64 661.294 709.777ZM541.014 591.576C539.859 591.455 539.02 590.419 539.142 589.264C539.263 588.108 540.299 587.269 541.455 587.391L541.457 587.391C542.612 587.513 543.451 588.548 543.329 589.704C543.208 590.859 542.172 591.698 541.017 591.576L541.014 591.576ZM662.005 724.898C660.843 724.906 659.895 723.971 659.887 722.809V722.806C659.879 721.644 660.815 720.696 661.977 720.688C663.139 720.68 664.087 721.615 664.095 722.777V722.78C664.103 723.942 663.167 724.891 662.005 724.898ZM526.13 590.846C524.968 590.854 524.02 589.918 524.012 588.756C524.004 587.594 524.939 586.646 526.101 586.638L526.104 586.638C527.266 586.63 528.215 587.566 528.222 588.728C528.23 589.89 527.295 590.838 526.133 590.846L526.13 590.846ZM661.029 740.005C659.874 739.884 659.035 738.848 659.157 737.693V737.69C659.278 736.535 660.314 735.696 661.469 735.818C662.625 735.939 663.464 736.975 663.342 738.131L663.342 738.133C663.22 739.289 662.185 740.127 661.029 740.005ZM511.257 591.777C510.103 591.914 509.057 591.09 508.919 589.936C508.782 588.782 509.607 587.736 510.76 587.599L510.763 587.598C511.917 587.461 512.964 588.286 513.101 589.44C513.238 590.593 512.413 591.64 511.26 591.777H511.257ZM658.375 754.909C657.24 754.659 656.522 753.537 656.772 752.402L656.773 752.4C657.023 751.265 658.145 750.547 659.28 750.797C660.415 751.047 661.132 752.169 660.882 753.304V753.307C660.632 754.442 659.509 755.159 658.375 754.909ZM496.582 594.36C495.45 594.625 494.318 593.923 494.053 592.792C493.788 591.66 494.49 590.529 495.622 590.263L495.624 590.263C496.755 589.998 497.887 590.699 498.153 591.83C498.418 592.962 497.716 594.095 496.584 594.36L496.582 594.36ZM654.067 769.424C652.967 769.048 652.381 767.852 652.756 766.752L652.757 766.75C653.132 765.651 654.328 765.063 655.428 765.439C656.528 765.814 657.114 767.011 656.739 768.111L656.738 768.113C656.362 769.212 655.167 769.8 654.067 769.424ZM482.287 598.57C481.192 598.96 479.988 598.39 479.597 597.295C479.207 596.201 479.778 594.997 480.872 594.606L480.874 594.606C481.969 594.215 483.173 594.786 483.564 595.88C483.954 596.975 483.383 598.178 482.289 598.569L482.287 598.57ZM648.155 783.357C647.105 782.86 646.657 781.606 647.154 780.556L647.154 780.553C647.652 779.503 648.906 779.054 649.957 779.551C651.007 780.048 651.455 781.303 650.958 782.353L650.957 782.356C650.46 783.406 649.206 783.854 648.155 783.357ZM468.561 604.359C467.517 604.87 466.256 604.438 465.745 603.394C465.234 602.351 465.665 601.091 466.709 600.579L466.712 600.578C467.755 600.067 469.015 600.498 469.527 601.542C470.038 602.585 469.606 603.845 468.563 604.357L468.561 604.359ZM640.709 796.536C639.721 795.924 639.418 794.626 640.03 793.638L640.031 793.636C640.643 792.649 641.941 792.345 642.929 792.957C643.916 793.57 644.219 794.867 643.607 795.854L643.606 795.857C642.994 796.844 641.697 797.149 640.709 796.536ZM455.575 611.658C454.595 612.283 453.294 611.997 452.668 611.018C452.042 610.039 452.329 608.738 453.308 608.112L453.311 608.111C454.29 607.485 455.591 607.771 456.217 608.75C456.842 609.73 456.556 611.031 455.577 611.657L455.575 611.658ZM631.824 808.796C630.912 808.076 630.756 806.753 631.475 805.84L631.477 805.838C632.197 804.926 633.52 804.769 634.432 805.489C635.345 806.208 635.501 807.532 634.782 808.444L634.78 808.446C634.06 809.358 632.737 809.515 631.824 808.796ZM440.53 620.067C439.798 619.165 439.937 617.839 440.84 617.107L440.841 617.106C441.744 616.374 443.069 616.512 443.801 617.415C444.533 618.318 444.394 619.643 443.492 620.375L443.49 620.377C442.587 621.108 441.262 620.97 440.53 620.067ZM624.605 819.97L624.603 819.972C623.787 820.799 622.455 820.808 621.627 819.992C620.8 819.176 620.791 817.843 621.607 817.016L621.609 817.014C622.425 816.187 623.758 816.178 624.585 816.994C625.412 817.81 625.421 819.143 624.605 819.97ZM432.45 630.393L432.448 630.395C431.632 631.222 430.299 631.231 429.472 630.415C428.645 629.598 428.636 628.266 429.452 627.438L429.453 627.437C430.27 626.61 431.602 626.601 432.43 627.417C433.257 628.233 433.266 629.566 432.45 630.393ZM610.256 829.994C609.524 829.091 609.663 827.766 610.565 827.034L610.567 827.032C611.47 826.301 612.795 826.439 613.527 827.342C614.259 828.244 614.12 829.57 613.217 830.302L613.216 830.303C612.313 831.035 610.988 830.896 610.256 829.994ZM419.625 641.92C418.712 641.201 418.556 639.877 419.275 638.965L419.277 638.963C419.997 638.05 421.32 637.894 422.233 638.613C423.145 639.333 423.301 640.656 422.582 641.569L422.58 641.571C421.86 642.483 420.537 642.639 419.625 641.92ZM600.746 839.298C599.767 839.924 598.466 839.637 597.84 838.659C597.215 837.679 597.501 836.378 598.48 835.752L598.482 835.751C599.461 835.125 600.763 835.412 601.389 836.391C602.015 837.37 601.728 838.671 600.748 839.297L600.746 839.298ZM411.128 654.451C410.141 653.839 409.838 652.542 410.45 651.554L410.451 651.552C411.063 650.565 412.36 650.26 413.348 650.873C414.335 651.485 414.639 652.783 414.027 653.77L414.026 653.772C413.414 654.76 412.116 655.064 411.128 654.451ZM587.345 846.831C586.302 847.342 585.042 846.911 584.53 845.867C584.019 844.824 584.451 843.564 585.494 843.052L585.497 843.051C586.54 842.54 587.8 842.971 588.312 844.015C588.823 845.058 588.391 846.318 587.348 846.83L587.345 846.831ZM404.1 667.858C403.05 667.36 402.601 666.106 403.098 665.056L403.1 665.053C403.597 664.003 404.851 663.555 405.901 664.052C406.952 664.549 407.4 665.803 406.903 666.853L406.902 666.856C406.405 667.906 405.15 668.355 404.1 667.858ZM573.182 852.803C572.088 853.194 570.883 852.623 570.493 851.529C570.103 850.434 570.674 849.23 571.768 848.84L571.77 848.839C572.865 848.449 574.069 849.019 574.46 850.114C574.85 851.208 574.279 852.412 573.184 852.802L573.182 852.803ZM398.629 681.97C397.529 681.594 396.942 680.398 397.318 679.298L397.319 679.296C397.694 678.197 398.89 677.609 399.99 677.985C401.09 678.36 401.676 679.557 401.301 680.657L401.3 680.659C400.924 681.758 399.728 682.346 398.629 681.97ZM558.433 857.146C557.302 857.411 556.169 856.71 555.904 855.578C555.639 854.447 556.342 853.315 557.473 853.049L557.475 853.049C558.607 852.784 559.739 853.486 560.004 854.617C560.269 855.748 559.567 856.881 558.436 857.146H558.433ZM394.776 696.612C393.642 696.362 392.925 695.239 393.175 694.105L393.175 694.103C393.425 692.968 394.547 692.25 395.682 692.5C396.817 692.75 397.534 693.872 397.285 695.007L397.284 695.009C397.034 696.144 395.911 696.862 394.776 696.612ZM543.294 859.811C542.14 859.948 541.092 859.124 540.955 857.97C540.818 856.816 541.643 855.769 542.797 855.632H542.8C543.954 855.495 545 856.319 545.137 857.473C545.275 858.627 544.45 859.673 543.296 859.81L543.294 859.811ZM392.588 711.591C391.432 711.47 390.593 710.434 390.714 709.278L390.715 709.276C390.837 708.12 391.872 707.282 393.028 707.404C394.183 707.525 395.021 708.56 394.9 709.716V709.719C394.778 710.874 393.743 711.712 392.588 711.591ZM527.953 860.771C526.79 860.779 525.842 859.843 525.834 858.681C525.827 857.519 526.762 856.571 527.924 856.563H527.927C529.089 856.555 530.037 857.491 530.045 858.653C530.053 859.815 529.117 860.763 527.955 860.771L527.953 860.771ZM392.08 726.721C390.918 726.729 389.97 725.793 389.962 724.631V724.629C389.954 723.467 390.89 722.518 392.052 722.51C393.214 722.503 394.162 723.438 394.17 724.6V724.603C394.178 725.765 393.242 726.713 392.08 726.721ZM512.6 860.018C511.444 859.896 510.606 858.861 510.728 857.705C510.849 856.55 511.884 855.711 513.04 855.833H513.043C514.198 855.954 515.036 856.99 514.915 858.145C514.794 859.301 513.758 860.14 512.602 860.018L512.6 860.018ZM393.26 741.813C392.106 741.951 391.06 741.126 390.922 739.972L390.922 739.97C390.784 738.816 391.609 737.769 392.763 737.632C393.917 737.495 394.964 738.319 395.101 739.473V739.476C395.238 740.63 394.414 741.676 393.26 741.813ZM497.426 857.558C496.291 857.308 495.574 856.185 495.824 855.051C496.074 853.916 497.196 853.198 498.331 853.448L498.333 853.449C499.468 853.699 500.186 854.821 499.936 855.956C499.686 857.091 498.563 857.808 497.429 857.558H497.426ZM396.116 756.68C394.984 756.945 393.852 756.243 393.587 755.112V755.109C393.321 753.978 394.023 752.846 395.154 752.58C396.286 752.315 397.418 753.018 397.683 754.149L397.684 754.151C397.949 755.283 397.247 756.414 396.116 756.68ZM482.62 853.414C481.52 853.038 480.933 851.842 481.309 850.743C481.684 849.643 482.881 849.056 483.98 849.432L483.982 849.433C485.082 849.808 485.67 851.004 485.294 852.104C484.918 853.204 483.722 853.79 482.622 853.415L482.62 853.414ZM400.619 771.136C399.524 771.526 398.321 770.955 397.93 769.86L397.93 769.858C397.539 768.764 398.11 767.559 399.204 767.169C400.299 766.779 401.502 767.35 401.893 768.444L401.893 768.446C402.284 769.541 401.713 770.745 400.619 771.136ZM468.377 847.633C467.327 847.136 466.879 845.881 467.376 844.831C467.873 843.781 469.127 843.333 470.177 843.83L470.18 843.831C471.23 844.328 471.679 845.582 471.182 846.633C470.684 847.683 469.43 848.131 468.38 847.634L468.377 847.633ZM406.718 784.988C405.675 785.499 404.415 785.067 403.903 784.024L403.902 784.021C403.391 782.978 403.822 781.717 404.865 781.206C405.909 780.695 407.169 781.127 407.68 782.17L407.682 782.173C408.193 783.216 407.762 784.476 406.718 784.988ZM454.876 840.282C453.889 839.67 453.584 838.372 454.196 837.385C454.809 836.397 456.107 836.093 457.094 836.706L457.096 836.707C458.084 837.319 458.388 838.617 457.775 839.604C457.163 840.592 455.866 840.895 454.878 840.283L454.876 840.282ZM414.342 798.065C413.362 798.69 412.061 798.403 411.436 797.424L411.435 797.422C410.809 796.443 411.095 795.142 412.074 794.516C413.053 793.89 414.355 794.177 414.981 795.156L414.982 795.158C415.607 796.137 415.321 797.439 414.342 798.065ZM442.287 831.455C441.374 830.736 441.218 829.413 441.937 828.5C442.657 827.588 443.98 827.432 444.892 828.151L444.895 828.153C445.807 828.872 445.963 830.196 445.244 831.108C444.524 832.02 443.201 832.177 442.289 831.458L442.287 831.455ZM420.431 809.893L420.429 809.891C419.698 808.989 419.836 807.664 420.739 806.932C421.641 806.2 422.967 806.339 423.698 807.241L423.701 807.243C424.432 808.146 424.294 809.471 423.391 810.203C422.488 810.935 421.163 810.796 420.431 809.893ZM430.761 821.279C429.934 820.463 429.925 819.13 430.741 818.303C431.557 817.476 432.89 817.467 433.717 818.283L433.718 818.284C434.546 819.101 434.555 820.433 433.738 821.261C432.922 822.088 431.59 822.097 430.762 821.281L430.761 821.279Z" fill="#2E2E2E" fill-opacity="0.4"/>
<path d="M439.618 829.287C438.723 828.546 438.599 827.22 439.34 826.325C440.081 825.43 441.407 825.304 442.302 826.045C456.826 838.069 473.743 846.865 491.928 851.846C510.114 856.828 529.151 857.881 547.775 854.937C548.923 854.755 550.001 855.538 550.183 856.686C550.364 857.834 549.58 858.911 548.433 859.093C529.219 862.13 509.578 861.044 490.816 855.905C472.055 850.766 454.602 841.692 439.618 829.287Z" fill="#89F574"/>
<path d="M707.905 539.928C707.077 539.112 707.069 537.779 707.885 536.952C708.701 536.125 710.033 536.117 710.86 536.933L710.863 536.935C711.69 537.751 711.699 539.083 710.883 539.91C710.067 540.737 708.735 540.747 707.908 539.931L707.905 539.928ZM717.914 550.363L717.912 550.36C717.131 549.5 717.196 548.17 718.056 547.389C718.916 546.608 720.247 546.672 721.028 547.532L721.031 547.535C721.812 548.396 721.747 549.727 720.887 550.508C720.026 551.289 718.695 551.224 717.914 550.363ZM697.338 530.062C696.467 529.293 696.384 527.964 697.153 527.093C697.922 526.222 699.252 526.139 700.123 526.908L700.126 526.911C700.997 527.68 701.08 529.01 700.311 529.881C699.541 530.752 698.211 530.834 697.34 530.065L697.338 530.062ZM727.325 561.333L727.323 561.33C726.591 560.427 726.73 559.102 727.633 558.371C728.535 557.639 729.861 557.777 730.592 558.68L730.594 558.684C731.326 559.586 731.187 560.911 730.284 561.643C729.382 562.374 728.056 562.236 727.325 561.333ZM686.242 520.801C685.329 520.082 685.173 518.758 685.892 517.846C686.612 516.933 687.935 516.777 688.847 517.497L688.851 517.499C689.763 518.218 689.92 519.541 689.2 520.454C688.481 521.366 687.157 521.523 686.245 520.803L686.242 520.801ZM739.043 573.285C738.101 573.965 736.786 573.752 736.106 572.81L736.104 572.807C735.424 571.864 735.637 570.549 736.579 569.869C737.521 569.19 738.837 569.402 739.516 570.345L739.518 570.348C740.198 571.291 739.985 572.606 739.043 573.285ZM674.648 512.176C673.696 511.509 673.466 510.197 674.133 509.246C674.8 508.294 676.112 508.064 677.063 508.731L677.067 508.733C678.018 509.4 678.249 510.712 677.582 511.664C676.915 512.615 675.603 512.845 674.651 512.179L674.648 512.176ZM747.132 585.4C746.153 586.026 744.851 585.74 744.225 584.761L744.223 584.757C743.597 583.778 743.884 582.477 744.864 581.851C745.843 581.225 747.143 581.512 747.769 582.491L747.772 582.495C748.397 583.474 748.111 584.775 747.132 585.4ZM662.588 504.219C661.6 503.606 661.297 502.308 661.909 501.321C662.522 500.333 663.819 500.03 664.806 500.642L664.809 500.644C665.797 501.257 666.102 502.554 665.489 503.542C664.877 504.529 663.579 504.833 662.591 504.221L662.588 504.219ZM754.523 597.952C753.51 598.521 752.227 598.161 751.658 597.149L751.656 597.145C751.086 596.132 751.446 594.85 752.459 594.28C753.472 593.711 754.754 594.07 755.324 595.083L755.326 595.087C755.895 596.1 755.536 597.382 754.523 597.952ZM650.101 496.955C649.081 496.399 648.703 495.121 649.259 494.1C649.815 493.08 651.092 492.703 652.113 493.258L652.117 493.261C653.137 493.817 653.514 495.095 652.959 496.115C652.403 497.135 651.125 497.512 650.105 496.957L650.101 496.955ZM761.192 610.899C760.148 611.411 758.888 610.979 758.377 609.936L758.375 609.932C757.863 608.889 758.295 607.629 759.338 607.117C760.382 606.606 761.643 607.037 762.154 608.08L762.155 608.084C762.667 609.128 762.235 610.388 761.192 610.899ZM637.224 490.408C636.174 489.911 635.725 488.657 636.222 487.607C636.72 486.556 637.974 486.108 639.024 486.605L639.028 486.606C640.079 487.103 640.526 488.358 640.029 489.409C639.532 490.459 638.278 490.907 637.228 490.41L637.224 490.408ZM767.119 624.203C766.048 624.654 764.814 624.152 764.362 623.081L764.361 623.078C763.91 622.007 764.411 620.773 765.482 620.322C766.553 619.87 767.787 620.372 768.238 621.443L768.24 621.446C768.692 622.517 768.189 623.751 767.119 624.203ZM623.999 484.601C622.922 484.164 622.403 482.936 622.84 481.86C623.277 480.783 624.505 480.264 625.581 480.701L625.585 480.703C626.662 481.14 627.181 482.368 626.744 483.444C626.307 484.521 625.08 485.039 624.003 484.602L623.999 484.601ZM772.286 637.819C771.191 638.21 769.987 637.639 769.597 636.544L769.596 636.541C769.206 635.446 769.776 634.243 770.87 633.852C771.965 633.462 773.169 634.032 773.559 635.127L773.561 635.131C773.951 636.225 773.38 637.429 772.286 637.819ZM610.466 479.548C609.367 479.173 608.779 477.977 609.155 476.877C609.531 475.778 610.727 475.191 611.827 475.566L611.83 475.567C612.93 475.943 613.517 477.139 613.141 478.239C612.765 479.338 611.57 479.925 610.471 479.55L610.466 479.548ZM776.679 651.711C775.565 652.039 774.395 651.401 774.066 650.286L774.066 650.283C773.737 649.168 774.375 647.998 775.49 647.67C776.605 647.342 777.774 647.979 778.102 649.093L778.104 649.097C778.432 650.212 777.794 651.382 776.679 651.711ZM596.665 475.265C595.546 474.952 594.893 473.79 595.206 472.671C595.519 471.552 596.68 470.899 597.799 471.212L597.804 471.213C598.923 471.526 599.576 472.688 599.263 473.807C598.95 474.926 597.788 475.579 596.669 475.266L596.665 475.265ZM780.285 665.824C779.154 666.089 778.022 665.387 777.757 664.256L777.756 664.253C777.491 663.121 778.193 661.988 779.325 661.723C780.456 661.458 781.589 662.161 781.854 663.292L781.855 663.295C782.12 664.427 781.417 665.559 780.285 665.824ZM582.647 471.763C581.512 471.513 580.795 470.391 581.044 469.256C581.294 468.121 582.417 467.403 583.552 467.653L583.556 467.654C584.691 467.904 585.408 469.027 585.159 470.161C584.909 471.296 583.786 472.014 582.651 471.764L582.647 471.763ZM783.096 680.118C781.951 680.319 780.86 679.554 780.658 678.41V678.406C780.457 677.261 781.221 676.171 782.366 675.969C783.51 675.768 784.601 676.532 784.802 677.676L784.803 677.681C785.004 678.825 784.24 679.916 783.096 680.118ZM568.455 469.053C567.308 468.867 566.529 467.787 566.715 466.64C566.901 465.493 567.981 464.714 569.128 464.899L569.133 464.9C570.28 465.086 571.058 466.166 570.873 467.313C570.687 468.46 569.606 469.239 568.459 469.053L568.455 469.053ZM785.102 694.545C783.948 694.682 782.902 693.858 782.764 692.704L782.764 692.701C782.627 691.547 783.451 690.5 784.604 690.362C785.758 690.225 786.805 691.049 786.942 692.203L786.943 692.208C787.08 693.361 786.256 694.408 785.102 694.545ZM554.135 467.141C552.979 467.02 552.14 465.984 552.261 464.828C552.383 463.672 553.419 462.835 554.575 462.956L554.579 462.956C555.734 463.078 556.572 464.114 556.45 465.269C556.329 466.425 555.294 467.263 554.138 467.142L554.135 467.141ZM786.3 709.061C785.14 709.134 784.141 708.253 784.069 707.093V707.089C783.996 705.929 784.877 704.93 786.037 704.858C787.196 704.785 788.195 705.666 788.268 706.826L788.269 706.831C788.341 707.99 787.46 708.989 786.3 709.061ZM539.728 466.031C538.568 465.974 537.673 464.987 537.73 463.826C537.787 462.666 538.774 461.771 539.935 461.828L539.939 461.828C541.099 461.885 541.994 462.872 541.937 464.033C541.88 465.193 540.893 466.088 539.733 466.031L539.728 466.031ZM786.687 723.624C785.525 723.632 784.577 722.696 784.569 721.534V721.53C784.561 720.368 785.496 719.419 786.658 719.412C787.821 719.404 788.769 720.339 788.777 721.501V721.506C788.784 722.667 787.849 723.616 786.687 723.624ZM525.283 465.726C524.121 465.734 523.173 464.798 523.165 463.637C523.157 462.474 524.092 461.526 525.254 461.518L525.259 461.518C526.421 461.51 527.369 462.446 527.377 463.608C527.384 464.77 526.449 465.718 525.287 465.726L525.283 465.726ZM786.262 738.183C785.101 738.126 784.207 737.139 784.264 735.979V735.975C784.321 734.814 785.308 733.92 786.468 733.977C787.629 734.033 788.523 735.02 788.466 736.181L788.466 736.185C788.41 737.346 787.423 738.24 786.262 738.183ZM510.843 466.226C509.683 466.298 508.684 465.417 508.611 464.258C508.539 463.098 509.42 462.099 510.579 462.026H510.584C511.743 461.954 512.742 462.835 512.815 463.994C512.888 465.154 512.007 466.153 510.847 466.226L510.843 466.226ZM785.026 752.697C783.87 752.576 783.032 751.541 783.153 750.385V750.381C783.275 749.225 784.311 748.386 785.466 748.508C786.622 748.629 787.46 749.666 787.339 750.821L787.338 750.825C787.217 751.981 786.181 752.819 785.026 752.697ZM496.453 467.531C495.3 467.669 494.253 466.844 494.116 465.69C493.979 464.536 494.803 463.489 495.956 463.352L495.961 463.352C497.114 463.215 498.161 464.039 498.299 465.192C498.436 466.346 497.611 467.393 496.457 467.531L496.453 467.531ZM782.981 767.119C781.834 766.933 781.055 765.852 781.241 764.705V764.701C781.427 763.555 782.508 762.776 783.655 762.961C784.802 763.147 785.582 764.228 785.396 765.375L785.394 765.379C785.208 766.526 784.128 767.305 782.981 767.119ZM482.159 469.636C481.015 469.837 479.924 469.073 479.723 467.929C479.521 466.784 480.286 465.694 481.43 465.492L481.435 465.491C482.579 465.29 483.669 466.055 483.871 467.199C484.072 468.344 483.308 469.434 482.164 469.636L482.159 469.636ZM780.133 781.405C778.998 781.155 778.281 780.033 778.531 778.898L778.531 778.893C778.781 777.758 779.904 777.042 781.039 777.291C782.174 777.541 782.891 778.664 782.641 779.798L782.64 779.802C782.39 780.937 781.268 781.655 780.133 781.405ZM468.006 472.539C466.874 472.804 465.742 472.101 465.476 470.97C465.212 469.838 465.914 468.706 467.045 468.441L467.049 468.44C468.18 468.175 469.313 468.878 469.578 470.009C469.843 471.14 469.141 472.272 468.01 472.537L468.006 472.539ZM776.488 795.51C775.369 795.197 774.716 794.035 775.029 792.916L775.03 792.912C775.343 791.793 776.505 791.14 777.624 791.453C778.742 791.766 779.395 792.927 779.082 794.046L779.081 794.05C778.768 795.169 777.607 795.823 776.488 795.51ZM454.036 476.229C452.921 476.558 451.751 475.92 451.423 474.805C451.095 473.69 451.732 472.52 452.847 472.192L452.851 472.191C453.966 471.863 455.136 472.5 455.464 473.615C455.792 474.73 455.154 475.9 454.04 476.228L454.036 476.229ZM772.056 809.388C770.956 809.012 770.369 807.816 770.745 806.717L770.746 806.713C771.122 805.613 772.318 805.026 773.417 805.401C774.517 805.777 775.104 806.973 774.728 808.073L774.727 808.077C774.352 809.176 773.156 809.763 772.056 809.388ZM440.294 480.699C439.199 481.089 437.996 480.519 437.606 479.424C437.215 478.33 437.786 477.125 438.88 476.735L438.884 476.734C439.978 476.344 441.182 476.914 441.573 478.009C441.963 479.103 441.392 480.307 440.298 480.697L440.294 480.699ZM766.851 822.99C765.774 822.553 765.255 821.326 765.692 820.249L765.693 820.245C766.13 819.168 767.358 818.649 768.435 819.086C769.511 819.523 770.03 820.751 769.593 821.828L769.591 821.831C769.154 822.908 767.927 823.427 766.851 822.99ZM426.831 485.934C425.76 486.385 424.526 485.883 424.075 484.813C423.623 483.742 424.126 482.508 425.196 482.056L425.2 482.054C426.27 481.603 427.505 482.105 427.956 483.176C428.408 484.246 427.906 485.481 426.835 485.932L426.831 485.934ZM760.886 836.276C759.836 835.779 759.388 834.525 759.885 833.474L759.886 833.47C760.383 832.42 761.638 831.972 762.688 832.469C763.738 832.966 764.187 834.221 763.69 835.271L763.688 835.275C763.191 836.325 761.937 836.773 760.886 836.276ZM413.686 491.92C412.642 492.431 411.382 492 410.871 490.956C410.36 489.913 410.79 488.652 411.834 488.14L411.838 488.139C412.881 487.628 414.142 488.059 414.653 489.103C415.164 490.146 414.733 491.406 413.689 491.918L413.686 491.92ZM754.179 849.205C753.159 848.649 752.782 847.371 753.338 846.351L753.34 846.348C753.895 845.327 755.174 844.95 756.194 845.505C757.215 846.061 757.591 847.339 757.036 848.359L757.034 848.364C756.478 849.384 755.2 849.761 754.179 849.205ZM400.898 498.64C399.885 499.209 398.602 498.849 398.033 497.836C397.464 496.824 397.823 495.541 398.836 494.971L398.84 494.969C399.853 494.4 401.136 494.759 401.705 495.772C402.275 496.785 401.914 498.068 400.901 498.637L400.898 498.64ZM746.753 861.735C745.766 861.123 745.462 859.826 746.075 858.838L746.077 858.835C746.689 857.847 747.986 857.543 748.974 858.155C749.961 858.768 750.265 860.065 749.653 861.053L749.651 861.056C749.038 862.044 747.74 862.348 746.753 861.735ZM388.511 506.071C387.531 506.697 386.23 506.411 385.604 505.431C384.978 504.452 385.265 503.151 386.244 502.525L386.248 502.523C387.227 501.898 388.528 502.183 389.154 503.162C389.78 504.142 389.493 505.443 388.514 506.069L388.511 506.071ZM738.631 873.828C737.68 873.161 737.449 871.849 738.116 870.897L738.119 870.894C738.786 869.943 740.098 869.712 741.049 870.38C742.001 871.047 742.231 872.359 741.564 873.31L741.561 873.313C740.894 874.264 739.582 874.495 738.631 873.828ZM376.56 514.191C375.617 514.871 374.302 514.658 373.622 513.716C372.942 512.774 373.155 511.459 374.097 510.779L374.101 510.777C375.043 510.097 376.358 510.31 377.038 511.252C377.718 512.194 377.505 513.509 376.563 514.189L376.56 514.191ZM729.841 885.446C728.928 884.727 728.772 883.404 729.491 882.491L729.494 882.488C730.213 881.576 731.536 881.419 732.449 882.138C733.361 882.858 733.517 884.181 732.798 885.094L732.796 885.097C732.076 886.009 730.753 886.166 729.841 885.446ZM362.123 522.662C361.392 521.76 361.53 520.435 362.433 519.703L362.436 519.701C363.339 518.969 364.664 519.107 365.396 520.01C366.128 520.913 365.989 522.238 365.087 522.97L365.083 522.972C364.18 523.704 362.855 523.565 362.123 522.662ZM720.414 896.557C719.543 895.788 719.46 894.458 720.229 893.587L720.232 893.584C721.001 892.713 722.331 892.631 723.202 893.4C724.073 894.169 724.156 895.499 723.387 896.37L723.384 896.372C722.615 897.243 721.285 897.326 720.414 896.557ZM351.141 532.239C350.36 531.379 350.425 530.047 351.286 529.266L351.289 529.263C352.149 528.483 353.48 528.548 354.261 529.408C355.042 530.269 354.977 531.599 354.117 532.38L354.114 532.383C353.253 533.164 351.922 533.1 351.141 532.239ZM713.362 907.107L713.36 907.11C712.544 907.937 711.212 907.945 710.384 907.129C709.557 906.313 709.548 904.981 710.364 904.154L710.366 904.151C711.182 903.324 712.515 903.315 713.342 904.131C714.17 904.947 714.179 906.28 713.362 907.107ZM343.684 542.388L343.681 542.39C342.865 543.217 341.533 543.226 340.705 542.41C339.879 541.594 339.869 540.262 340.685 539.435L340.688 539.432C341.504 538.605 342.836 538.596 343.664 539.411C344.491 540.228 344.5 541.56 343.684 542.388ZM699.787 917.134C699.006 916.273 699.071 914.941 699.931 914.16L699.934 914.158C700.795 913.377 702.126 913.442 702.906 914.303C703.687 915.163 703.623 916.493 702.762 917.274L702.759 917.277C701.899 918.058 700.568 917.994 699.787 917.134ZM330.846 553.142C329.975 552.373 329.892 551.042 330.661 550.171L330.664 550.168C331.433 549.297 332.763 549.215 333.634 549.984C334.505 550.754 334.588 552.083 333.819 552.954L333.816 552.957C333.047 553.828 331.717 553.911 330.846 553.142ZM688.652 926.53C687.92 925.628 688.059 924.303 688.962 923.571L688.965 923.569C689.867 922.837 691.192 922.976 691.924 923.879C692.655 924.782 692.517 926.107 691.614 926.839L691.611 926.841C690.708 927.572 689.383 927.433 688.652 926.53ZM321.599 564.402C320.687 563.683 320.53 562.36 321.249 561.448L321.251 561.444C321.971 560.532 323.294 560.375 324.207 561.095C325.119 561.814 325.276 563.137 324.557 564.049L324.555 564.053C323.835 564.965 322.512 565.122 321.599 564.402ZM312.999 576.162C312.047 575.495 311.817 574.183 312.484 573.232L312.486 573.228C313.153 572.277 314.465 572.046 315.416 572.713C316.368 573.38 316.598 574.692 315.931 575.644L315.929 575.647C315.262 576.599 313.95 576.829 312.999 576.162ZM679.947 935.765C679.005 936.445 677.69 936.232 677.01 935.29C676.33 934.348 676.543 933.033 677.485 932.353L677.488 932.35C678.43 931.67 679.745 931.883 680.425 932.825C681.105 933.768 680.892 935.083 679.95 935.763L679.947 935.765ZM667.8 944.019C666.821 944.644 665.52 944.357 664.894 943.378C664.268 942.399 664.555 941.098 665.534 940.472L665.538 940.47C666.517 939.844 667.818 940.131 668.443 941.11C669.069 942.089 668.783 943.39 667.804 944.016L667.8 944.019ZM305.074 588.385C304.087 587.773 303.783 586.476 304.395 585.489L304.398 585.485C305.01 584.498 306.307 584.193 307.294 584.806C308.282 585.418 308.586 586.715 307.974 587.703L307.972 587.706C307.36 588.694 306.062 588.998 305.074 588.385ZM655.208 951.572C654.195 952.141 652.912 951.782 652.343 950.769C651.773 949.756 652.133 948.473 653.146 947.904L653.149 947.902C654.162 947.332 655.445 947.692 656.014 948.705C656.584 949.718 656.225 951.001 655.212 951.57L655.208 951.572ZM297.854 601.035C296.833 600.48 296.456 599.202 297.012 598.181L297.014 598.178C297.57 597.157 298.847 596.781 299.868 597.336C300.888 597.892 301.265 599.17 300.71 600.19L300.707 600.194C300.152 601.214 298.874 601.591 297.854 601.035ZM642.211 958.402C641.167 958.913 639.906 958.481 639.395 957.438C638.884 956.394 639.315 955.134 640.359 954.623L640.363 954.621C641.406 954.11 642.667 954.542 643.178 955.585C643.689 956.629 643.258 957.889 642.214 958.4L642.211 958.402ZM291.36 614.072C290.31 613.575 289.861 612.321 290.358 611.27L290.36 611.266C290.857 610.216 292.112 609.768 293.162 610.265C294.212 610.762 294.661 612.017 294.164 613.067L294.162 613.07C293.665 614.121 292.41 614.569 291.36 614.072ZM628.848 964.486C627.777 964.938 626.543 964.436 626.092 963.365C625.64 962.294 626.142 961.06 627.213 960.608L627.216 960.608C628.287 960.156 629.522 960.658 629.973 961.729C630.424 962.8 629.922 964.033 628.852 964.484L628.848 964.486ZM285.613 627.454C284.536 627.017 284.017 625.79 284.454 624.713L284.457 624.709C284.894 623.633 286.12 623.115 287.197 623.552C288.274 623.989 288.792 625.215 288.356 626.291L288.354 626.296C287.917 627.372 286.69 627.891 285.613 627.454ZM615.164 969.807C614.069 970.197 612.865 969.626 612.475 968.532C612.085 967.437 612.656 966.233 613.75 965.843L613.754 965.842C614.848 965.452 616.053 966.022 616.443 967.117C616.833 968.211 616.262 969.415 615.168 969.806L615.164 969.807ZM280.631 641.139C279.531 640.764 278.944 639.568 279.319 638.468L279.321 638.464C279.696 637.364 280.893 636.778 281.992 637.153C283.092 637.529 283.678 638.725 283.302 639.824L283.302 639.828C282.926 640.928 281.73 641.515 280.631 641.139ZM601.197 974.35C600.082 974.678 598.913 974.041 598.585 972.926C598.256 971.812 598.894 970.641 600.009 970.313L600.012 970.313C601.127 969.984 602.297 970.622 602.625 971.737C602.953 972.851 602.315 974.02 601.201 974.348L601.197 974.35ZM276.425 655.089C275.306 654.775 274.652 653.614 274.965 652.495L274.967 652.491C275.28 651.372 276.441 650.719 277.56 651.032C278.679 651.345 279.332 652.507 279.019 653.626L279.018 653.629C278.705 654.748 277.544 655.401 276.425 655.089ZM586.999 978.101C585.868 978.366 584.736 977.664 584.471 976.532C584.205 975.401 584.907 974.269 586.038 974.003L586.043 974.003C587.174 973.738 588.306 974.44 588.571 975.571C588.837 976.702 588.134 977.835 587.002 978.1L586.999 978.101ZM273.01 669.25C271.875 669 271.157 667.877 271.406 666.742L271.407 666.739C271.657 665.604 272.78 664.886 273.915 665.136C275.05 665.386 275.767 666.509 275.517 667.644L275.517 667.647C275.267 668.782 274.144 669.499 273.01 669.25ZM572.614 981.05C571.469 981.251 570.378 980.486 570.177 979.342C569.975 978.198 570.74 977.106 571.884 976.905H571.889C573.033 976.703 574.124 977.467 574.325 978.612C574.527 979.756 573.762 980.847 572.618 981.048L572.614 981.05ZM270.393 683.58C269.246 683.394 268.467 682.313 268.653 681.166L268.653 681.162C268.839 680.015 269.92 679.236 271.067 679.422C272.214 679.608 272.992 680.688 272.807 681.835L272.807 681.839C272.621 682.986 271.54 683.766 270.393 683.58ZM558.087 983.19C556.934 983.327 555.886 982.502 555.749 981.348C555.612 980.194 556.437 979.148 557.59 979.011H557.594C558.748 978.873 559.795 979.697 559.933 980.851C560.07 982.005 559.245 983.051 558.092 983.188L558.087 983.19ZM268.581 698.033C267.426 697.911 266.588 696.876 266.709 695.72L266.71 695.716C266.831 694.56 267.867 693.722 269.023 693.844C270.178 693.966 271.016 695.001 270.895 696.157L270.894 696.16C270.772 697.316 269.737 698.154 268.581 698.033ZM543.464 984.515C542.304 984.587 541.305 983.706 541.233 982.546C541.16 981.386 542.041 980.387 543.201 980.315H543.205C544.365 980.242 545.364 981.123 545.437 982.283C545.509 983.443 544.628 984.442 543.468 984.514L543.464 984.515ZM267.58 712.564C266.419 712.507 265.524 711.521 265.581 710.36L265.581 710.355C265.639 709.195 266.625 708.3 267.786 708.357C268.946 708.414 269.841 709.401 269.784 710.562V710.566C269.727 711.726 268.74 712.621 267.58 712.564ZM528.789 985.024C527.628 985.031 526.679 984.096 526.671 982.934C526.663 981.772 527.599 980.823 528.761 980.816H528.765C529.927 980.808 530.875 981.743 530.883 982.905C530.891 984.067 529.955 985.016 528.793 985.024H528.789ZM267.389 727.13C266.227 727.138 265.279 726.202 265.271 725.041V725.036C265.263 723.874 266.199 722.926 267.361 722.918C268.523 722.91 269.471 723.846 269.479 725.008L269.479 725.012C269.487 726.174 268.551 727.122 267.389 727.13ZM514.109 984.713C512.948 984.655 512.054 983.669 512.111 982.508C512.168 981.347 513.155 980.453 514.315 980.51L514.319 980.51C515.48 980.567 516.374 981.554 516.318 982.714C516.261 983.875 515.274 984.77 514.114 984.713L514.109 984.713ZM268.011 741.683C266.851 741.756 265.852 740.875 265.78 739.715V739.711C265.707 738.551 266.588 737.552 267.748 737.479C268.908 737.407 269.906 738.288 269.979 739.447V739.452C270.052 740.611 269.171 741.61 268.011 741.683ZM499.469 983.584C498.314 983.463 497.475 982.428 497.597 981.272C497.718 980.116 498.754 979.278 499.91 979.4L499.914 979.4C501.07 979.522 501.908 980.557 501.786 981.712C501.665 982.868 500.629 983.707 499.473 983.586L499.469 983.584ZM269.443 756.179C268.289 756.316 267.243 755.492 267.105 754.338L267.105 754.334C266.968 753.18 267.792 752.133 268.946 751.995C270.1 751.858 271.147 752.683 271.284 753.837V753.841C271.421 754.995 270.597 756.042 269.443 756.179ZM484.915 981.641C483.768 981.455 482.989 980.374 483.175 979.227C483.361 978.08 484.442 977.301 485.589 977.487H485.593C486.74 977.673 487.519 978.754 487.333 979.901C487.147 981.048 486.066 981.828 484.919 981.642L484.915 981.641ZM271.682 770.571C270.538 770.773 269.447 770.009 269.245 768.864L269.244 768.86C269.043 767.716 269.808 766.625 270.953 766.423C272.097 766.222 273.188 766.986 273.389 768.131V768.135C273.591 769.279 272.827 770.37 271.682 770.571ZM470.492 978.887C469.357 978.637 468.639 977.514 468.889 976.379C469.139 975.244 470.262 974.528 471.397 974.777L471.401 974.777C472.536 975.027 473.253 976.15 473.003 977.285C472.753 978.42 471.631 979.137 470.496 978.887L470.492 978.887ZM274.723 784.818C273.592 785.083 272.46 784.381 272.195 783.249L272.193 783.245C271.928 782.114 272.63 780.982 273.762 780.717C274.893 780.452 276.025 781.153 276.291 782.284L276.291 782.289C276.556 783.421 275.854 784.553 274.723 784.818ZM456.244 975.327C455.126 975.014 454.472 973.854 454.785 972.735C455.098 971.616 456.259 970.963 457.379 971.276L457.382 971.276C458.501 971.59 459.154 972.751 458.841 973.87C458.528 974.989 457.368 975.642 456.249 975.329L456.244 975.327ZM278.558 798.872C277.443 799.2 276.274 798.562 275.946 797.447L275.944 797.443C275.616 796.329 276.253 795.159 277.368 794.831C278.482 794.503 279.652 795.14 279.981 796.255L279.982 796.259C280.31 797.374 279.673 798.544 278.558 798.872ZM442.218 970.973C441.118 970.598 440.531 969.402 440.906 968.302C441.282 967.203 442.478 966.616 443.578 966.991L443.581 966.992C444.681 967.368 445.268 968.564 444.893 969.663C444.517 970.763 443.321 971.35 442.222 970.975L442.218 970.973ZM283.177 812.689C282.083 813.079 280.879 812.508 280.488 811.414L280.488 811.41C280.097 810.316 280.668 809.112 281.762 808.721C282.857 808.331 284.06 808.902 284.451 809.996L284.452 810.001C284.843 811.095 284.271 812.299 283.177 812.689ZM428.463 965.837C427.386 965.4 426.868 964.174 427.304 963.098C427.741 962.021 428.968 961.502 430.045 961.938L430.049 961.94C431.126 962.377 431.645 963.604 431.208 964.681C430.771 965.758 429.543 966.276 428.466 965.839L428.463 965.837ZM288.566 826.22C287.495 826.671 286.261 826.168 285.81 825.098L285.808 825.094C285.356 824.024 285.858 822.789 286.929 822.338C288 821.886 289.234 822.389 289.686 823.459L289.687 823.463C290.139 824.534 289.636 825.769 288.566 826.22ZM415.02 959.934C413.969 959.437 413.521 958.183 414.018 957.133C414.515 956.082 415.769 955.634 416.82 956.131L416.824 956.132C417.874 956.629 418.322 957.884 417.825 958.934C417.328 959.984 416.073 960.433 415.023 959.936L415.02 959.934ZM294.709 839.424C293.665 839.935 292.405 839.504 291.894 838.46L291.892 838.457C291.381 837.413 291.813 836.152 292.856 835.641C293.899 835.13 295.16 835.562 295.671 836.605L295.673 836.609C296.184 837.653 295.752 838.913 294.709 839.424ZM401.931 953.281C400.91 952.725 400.534 951.447 401.09 950.426C401.646 949.406 402.923 949.029 403.944 949.584L403.947 949.587C404.967 950.142 405.344 951.42 404.789 952.44C404.233 953.461 402.956 953.838 401.935 953.282L401.931 953.281ZM301.59 852.261C300.577 852.83 299.294 852.471 298.724 851.459L298.722 851.454C298.153 850.441 298.512 849.158 299.525 848.589C300.538 848.02 301.822 848.38 302.391 849.393L302.393 849.396C302.962 850.409 302.602 851.692 301.59 852.261ZM389.238 945.897C388.25 945.284 387.947 943.987 388.559 943C389.172 942.012 390.468 941.708 391.456 942.321L391.459 942.323C392.447 942.935 392.751 944.232 392.139 945.22C391.527 946.207 390.229 946.512 389.242 945.9L389.238 945.897ZM309.185 864.69C308.206 865.316 306.904 865.029 306.278 864.05L306.276 864.047C305.65 863.068 305.937 861.766 306.916 861.14C307.895 860.514 309.196 860.801 309.822 861.781L309.824 861.784C310.45 862.763 310.164 864.064 309.185 864.69ZM376.982 937.808C376.03 937.141 375.8 935.829 376.467 934.878C377.134 933.926 378.446 933.696 379.398 934.363L379.4 934.365C380.352 935.033 380.582 936.345 379.915 937.296C379.248 938.247 377.936 938.478 376.984 937.811L376.982 937.808ZM317.47 876.672C316.527 877.352 315.212 877.139 314.532 876.197L314.529 876.194C313.85 875.251 314.062 873.936 315.005 873.256C315.947 872.576 317.262 872.789 317.942 873.732L317.945 873.734C318.625 874.677 318.412 875.992 317.47 876.672ZM365.198 929.043C364.285 928.323 364.129 927 364.848 926.087C365.568 925.175 366.89 925.018 367.803 925.737L367.806 925.74C368.718 926.459 368.875 927.782 368.156 928.695C367.436 929.607 366.114 929.764 365.201 929.045L365.198 929.043ZM323.456 887.861L323.454 887.858C322.722 886.955 322.861 885.63 323.763 884.898C324.666 884.167 325.991 884.305 326.723 885.208L326.725 885.211C327.457 886.113 327.319 887.439 326.416 888.171C325.513 888.902 324.188 888.764 323.456 887.861ZM353.922 919.63C353.051 918.861 352.968 917.531 353.737 916.66C354.506 915.789 355.836 915.706 356.707 916.475L356.71 916.478C357.581 917.247 357.664 918.578 356.895 919.449C356.125 920.32 354.795 920.402 353.925 919.633L353.922 919.63ZM333.02 899.008L333.017 899.006C332.236 898.145 332.301 896.815 333.161 896.034C334.022 895.253 335.353 895.317 336.134 896.177L336.136 896.18C336.917 897.041 336.853 898.372 335.992 899.153C335.132 899.934 333.801 899.869 333.02 899.008ZM343.185 909.607C342.358 908.79 342.349 907.458 343.165 906.63C343.981 905.803 345.314 905.794 346.141 906.61L346.144 906.613C346.971 907.429 346.979 908.761 346.163 909.589C345.347 910.416 344.015 910.425 343.188 909.609L343.185 909.607Z" fill="#2E2E2E" fill-opacity="0.4"/>
<path d="M343.682 542.389C319.223 567.181 300.045 596.676 287.31 629.091C274.575 661.506 268.546 696.168 269.588 730.979C269.623 732.14 268.709 733.11 267.548 733.145C266.387 733.179 265.417 732.266 265.382 731.104C264.323 695.724 270.45 660.497 283.394 627.553C296.337 594.608 315.828 564.631 340.687 539.434C341.503 538.606 342.835 538.597 343.662 539.413C344.489 540.229 344.498 541.562 343.682 542.389Z" fill="#0146BE"/>
<path d="M740.394 871.251C739.434 870.596 739.186 869.287 739.841 868.327C762.304 835.37 776.807 797.646 782.205 758.129C787.603 718.612 783.75 678.38 770.948 640.606C770.576 639.505 771.165 638.311 772.266 637.938C773.366 637.565 774.56 638.155 774.933 639.256C787.944 677.647 791.861 718.536 786.374 758.699C780.888 798.862 766.148 837.202 743.318 870.697C742.663 871.657 741.355 871.905 740.394 871.251Z" fill="#FFC3E8"/>
<path d="M793.35 453.724C792.523 452.908 792.514 451.577 793.329 450.75C794.145 449.924 795.476 449.915 796.303 450.73L796.308 450.736C797.135 451.551 797.144 452.883 796.328 453.709C795.513 454.536 794.182 454.545 793.355 453.729L793.35 453.724ZM803.493 464.115C802.697 463.269 802.738 461.938 803.585 461.142C804.431 460.347 805.761 460.389 806.557 461.235C806.558 461.236 806.56 461.238 806.561 461.24C807.357 462.086 807.316 463.417 806.47 464.212C805.623 465.008 804.293 464.966 803.498 464.12C803.496 464.118 803.494 464.117 803.493 464.115ZM782.823 443.723C781.966 442.939 781.907 441.609 782.69 440.752C783.474 439.895 784.805 439.836 785.662 440.62C785.663 440.622 785.665 440.623 785.666 440.625C786.523 441.409 786.583 442.739 785.799 443.595C785.015 444.452 783.685 444.511 782.828 443.727C782.826 443.726 782.825 443.724 782.823 443.723ZM813.228 474.874C813.227 474.872 813.226 474.87 813.224 474.868C812.461 473.993 812.553 472.665 813.428 471.902C814.304 471.14 815.632 471.231 816.394 472.107C816.396 472.109 816.398 472.11 816.4 472.112C817.162 472.988 817.07 474.316 816.195 475.079C815.319 475.841 813.991 475.749 813.228 474.874ZM771.939 434.138C771.053 433.387 770.943 432.06 771.694 431.174C772.444 430.289 773.771 430.179 774.657 430.929C774.659 430.931 774.661 430.933 774.663 430.935C775.548 431.686 775.658 433.012 774.907 433.898C774.156 434.783 772.83 434.893 771.944 434.142C771.942 434.141 771.94 434.139 771.939 434.138ZM822.535 485.981C822.534 485.979 822.532 485.977 822.531 485.975C821.802 485.071 821.945 483.747 822.849 483.018C823.753 482.29 825.076 482.432 825.805 483.336C825.806 483.338 825.808 483.34 825.81 483.341C826.539 484.245 826.396 485.569 825.492 486.298C824.588 487.027 823.264 486.885 822.535 485.981ZM760.707 424.982C759.793 424.265 759.633 422.943 760.35 422.029C761.066 421.116 762.388 420.955 763.302 421.672C763.304 421.673 763.305 421.675 763.307 421.677C764.221 422.393 764.381 423.714 763.665 424.628C762.949 425.542 761.627 425.702 760.713 424.986C760.711 424.985 760.709 424.983 760.707 424.982ZM834.349 497.859C833.417 498.552 832.1 498.36 831.407 497.429C831.405 497.427 831.404 497.425 831.403 497.423C830.709 496.492 830.901 495.174 831.833 494.48C832.764 493.786 834.082 493.98 834.775 494.911C834.777 494.913 834.778 494.915 834.78 494.916C835.473 495.848 835.28 497.165 834.349 497.859ZM749.14 416.266C748.2 415.585 747.99 414.271 748.67 413.33C749.351 412.389 750.666 412.178 751.607 412.859C751.609 412.861 751.61 412.862 751.612 412.863C752.553 413.544 752.764 414.859 752.083 415.8C751.402 416.741 750.087 416.951 749.146 416.27C749.144 416.269 749.142 416.267 749.14 416.266ZM842.772 509.774C841.814 510.431 840.505 510.188 839.848 509.23C839.847 509.229 839.845 509.227 839.844 509.225C839.187 508.268 839.43 506.959 840.388 506.302C841.345 505.645 842.654 505.887 843.311 506.844C843.312 506.846 843.314 506.849 843.315 506.851C843.972 507.808 843.729 509.117 842.772 509.774ZM737.226 407.984C736.26 407.34 735.998 406.035 736.642 405.069C737.287 404.103 738.592 403.841 739.558 404.486C739.56 404.487 739.562 404.488 739.564 404.489C740.531 405.133 740.791 406.439 740.147 407.405C739.503 408.371 738.197 408.633 737.231 407.989C737.229 407.987 737.228 407.986 737.226 407.984ZM850.724 521.998C849.742 522.617 848.444 522.323 847.824 521.341C847.823 521.339 847.821 521.338 847.82 521.336C847.2 520.354 847.494 519.055 848.476 518.435C849.458 517.815 850.756 518.109 851.376 519.09C851.377 519.092 851.379 519.095 851.38 519.097C852 520.079 851.706 521.378 850.724 521.998ZM725.008 400.173C724.018 399.566 723.706 398.272 724.313 397.282C724.919 396.292 726.214 395.981 727.204 396.587C727.206 396.588 727.208 396.589 727.21 396.59C728.2 397.197 728.512 398.492 727.905 399.482C727.299 400.472 726.004 400.783 725.014 400.177C725.012 400.175 725.01 400.174 725.008 400.173ZM858.196 534.512C857.191 535.093 855.904 534.75 855.323 533.745C855.321 533.743 855.32 533.74 855.319 533.739C854.738 532.733 855.081 531.447 856.086 530.865C857.091 530.284 858.378 530.627 858.959 531.633C858.96 531.635 858.961 531.637 858.963 531.639C859.544 532.644 859.201 533.93 858.196 534.512ZM712.505 392.843C711.492 392.275 711.131 390.993 711.699 389.98C712.267 388.967 713.548 388.606 714.561 389.174C714.563 389.175 714.565 389.177 714.567 389.178C715.58 389.746 715.941 391.027 715.373 392.04C714.805 393.053 713.524 393.414 712.511 392.846C712.509 392.845 712.507 392.844 712.505 392.843ZM865.177 547.301C864.15 547.844 862.878 547.451 862.336 546.424C862.335 546.422 862.333 546.42 862.332 546.418C861.79 545.391 862.183 544.119 863.209 543.577C864.236 543.034 865.508 543.427 866.051 544.454C866.052 544.456 866.053 544.458 866.054 544.46C866.596 545.487 866.204 546.759 865.177 547.301ZM699.731 386.001C698.697 385.473 698.288 384.206 698.816 383.172C699.345 382.138 700.611 381.728 701.645 382.257C701.647 382.258 701.65 382.259 701.652 382.26C702.685 382.789 703.095 384.055 702.567 385.089C702.039 386.123 700.772 386.533 699.738 386.005C699.736 386.004 699.734 386.002 699.731 386.001ZM871.663 560.359C870.616 560.862 869.36 560.42 868.858 559.374C868.857 559.371 868.856 559.369 868.855 559.367C868.353 558.32 868.794 557.064 869.841 556.561C870.888 556.059 872.144 556.501 872.646 557.548C872.647 557.55 872.649 557.553 872.65 557.555C873.152 558.601 872.71 559.857 871.663 560.359ZM686.695 379.655C685.642 379.167 685.184 377.917 685.672 376.863C686.16 375.809 687.409 375.351 688.463 375.839C688.465 375.84 688.467 375.841 688.469 375.842C689.523 376.33 689.982 377.58 689.494 378.634C689.006 379.688 687.756 380.146 686.702 379.657C686.7 379.656 686.697 379.656 686.695 379.655ZM877.641 573.661C876.576 574.122 875.338 573.633 874.877 572.567C874.876 572.565 874.875 572.563 874.874 572.56C874.412 571.495 874.902 570.257 875.968 569.796C877.033 569.334 878.271 569.824 878.732 570.889C878.733 570.892 878.734 570.894 878.735 570.896C879.196 571.962 878.707 573.2 877.641 573.661ZM673.421 373.815C672.35 373.368 671.844 372.137 672.29 371.065C672.737 369.993 673.968 369.487 675.04 369.934C675.042 369.935 675.045 369.936 675.047 369.937C676.119 370.384 676.625 371.615 676.178 372.686C675.731 373.758 674.5 374.264 673.428 373.817C673.426 373.816 673.424 373.816 673.421 373.815ZM883.101 587.178C882.018 587.598 880.8 587.062 880.38 585.979C880.379 585.977 880.378 585.975 880.377 585.972C879.957 584.89 880.494 583.672 881.577 583.252C882.659 582.832 883.878 583.368 884.298 584.451C884.299 584.453 884.3 584.456 884.301 584.458C884.721 585.54 884.183 586.758 883.101 587.178ZM659.936 368.493C658.848 368.088 658.295 366.877 658.701 365.788C659.106 364.7 660.317 364.147 661.405 364.552C661.407 364.553 661.41 364.554 661.412 364.555C662.5 364.96 663.053 366.171 662.647 367.259C662.242 368.347 661.031 368.901 659.943 368.496C659.941 368.495 659.939 368.494 659.936 368.493ZM888.034 600.894C886.936 601.272 885.74 600.689 885.362 599.591C885.361 599.589 885.36 599.586 885.359 599.584C884.981 598.486 885.565 597.289 886.663 596.911C887.761 596.533 888.958 597.117 889.336 598.215C889.337 598.217 889.337 598.219 889.338 598.221C889.716 599.319 889.132 600.516 888.034 600.894ZM646.259 363.695C645.156 363.332 644.557 362.143 644.92 361.041C645.283 359.938 646.471 359.337 647.574 359.7C647.576 359.701 647.579 359.702 647.581 359.703C648.684 360.066 649.284 361.255 648.921 362.358C648.557 363.461 647.369 364.061 646.266 363.698C646.263 363.697 646.261 363.696 646.259 363.695ZM892.438 614.788C891.326 615.123 890.153 614.494 889.817 613.383C889.816 613.381 889.815 613.378 889.815 613.375C889.479 612.264 890.109 611.09 891.22 610.755C892.332 610.419 893.505 611.049 893.841 612.16C893.841 612.163 893.841 612.165 893.842 612.167C894.177 613.279 893.549 614.452 892.438 614.788ZM632.408 359.427C631.292 359.106 630.647 357.941 630.968 356.825C631.288 355.709 632.453 355.065 633.569 355.386C633.571 355.386 633.574 355.386 633.576 355.387C634.692 355.708 635.337 356.872 635.017 357.988C634.696 359.104 633.532 359.75 632.415 359.429C632.413 359.428 632.41 359.428 632.408 359.427ZM896.305 628.847C895.182 629.139 894.034 628.466 893.741 627.343C893.74 627.34 893.739 627.337 893.739 627.335C893.446 626.211 894.12 625.063 895.244 624.771C896.368 624.478 897.515 625.152 897.808 626.275C897.808 626.278 897.81 626.28 897.811 626.282C898.103 627.406 897.429 628.554 896.305 628.847ZM618.396 355.692C617.269 355.414 616.58 354.275 616.858 353.148C617.135 352.02 618.274 351.331 619.402 351.608C619.404 351.609 619.406 351.61 619.409 351.611C620.536 351.888 621.225 353.027 620.948 354.154C620.67 355.282 619.531 355.971 618.404 355.694C618.402 355.693 618.399 355.692 618.396 355.692ZM899.632 643.043C898.497 643.292 897.376 642.575 897.126 641.441C897.126 641.439 897.125 641.436 897.125 641.434C896.875 640.3 897.592 639.178 898.726 638.928C899.86 638.679 900.982 639.397 901.232 640.531C901.232 640.533 901.233 640.535 901.233 640.538C901.483 641.672 900.766 642.793 899.632 643.043ZM604.254 352.497C603.116 352.263 602.384 351.151 602.618 350.014C602.852 348.876 603.964 348.144 605.101 348.378C605.104 348.379 605.106 348.379 605.108 348.38C606.246 348.614 606.978 349.725 606.744 350.863C606.51 352 605.398 352.732 604.261 352.498C604.258 352.498 604.256 352.497 604.254 352.497ZM902.412 657.353C901.269 657.559 900.175 656.8 899.969 655.657C899.969 655.654 899.968 655.652 899.968 655.65C899.762 654.507 900.522 653.413 901.665 653.207C902.807 653.001 903.9 653.761 904.106 654.904C904.107 654.906 904.108 654.909 904.108 654.911C904.314 656.054 903.554 657.147 902.412 657.353ZM590.001 349.846C588.855 349.656 588.081 348.572 588.271 347.426C588.462 346.281 589.545 345.507 590.69 345.698C590.692 345.698 590.695 345.698 590.697 345.699C591.842 345.889 592.618 346.972 592.427 348.118C592.237 349.263 591.153 350.038 590.008 349.847C590.005 349.847 590.003 349.847 590.001 349.846ZM904.643 671.758C903.493 671.921 902.43 671.12 902.268 669.97C902.267 669.968 902.266 669.966 902.266 669.963C902.104 668.813 902.905 667.75 904.054 667.587C905.204 667.425 906.268 668.226 906.43 669.376C906.431 669.378 906.431 669.38 906.432 669.383C906.594 670.532 905.793 671.596 904.643 671.758ZM575.658 347.742C574.506 347.595 573.691 346.542 573.837 345.39C573.984 344.238 575.037 343.423 576.189 343.57C576.191 343.57 576.193 343.571 576.196 343.571C577.348 343.718 578.162 344.77 578.015 345.922C577.869 347.074 576.816 347.889 575.664 347.743C575.662 347.743 575.66 347.742 575.658 347.742ZM906.324 686.239C905.169 686.357 904.137 685.516 904.019 684.361C904.018 684.359 904.017 684.356 904.017 684.354C903.899 683.199 904.739 682.167 905.894 682.048C907.05 681.93 908.083 682.771 908.201 683.926C908.201 683.928 908.201 683.931 908.201 683.933C908.319 685.088 907.479 686.121 906.324 686.239ZM561.244 346.185C560.088 346.082 559.233 345.062 559.335 343.905C559.438 342.749 560.459 341.894 561.615 341.996C561.617 341.997 561.62 341.997 561.623 341.997C562.779 342.1 563.634 343.121 563.531 344.277C563.428 345.434 562.408 346.289 561.251 346.186C561.249 346.186 561.247 346.185 561.244 346.185ZM907.452 700.775C906.293 700.849 905.293 699.97 905.219 698.811C905.219 698.809 905.218 698.806 905.218 698.803C905.144 697.645 906.024 696.646 907.183 696.571C908.342 696.497 909.341 697.377 909.416 698.535C909.416 698.538 909.416 698.54 909.416 698.542C909.49 699.701 908.61 700.701 907.452 700.775ZM546.779 345.18C545.62 345.121 544.727 344.134 544.785 342.974C544.844 341.814 545.831 340.921 546.991 340.98C546.993 340.98 546.996 340.98 546.998 340.98C548.158 341.038 549.051 342.026 548.992 343.186C548.934 344.346 547.946 345.238 546.786 345.18C546.784 345.18 546.782 345.18 546.779 345.18ZM908.024 715.342C906.864 715.372 905.899 714.456 905.868 713.295C905.868 713.293 905.868 713.29 905.868 713.287C905.838 712.127 906.755 711.161 907.916 711.131C909.077 711.101 910.042 712.018 910.072 713.179C910.072 713.181 910.072 713.184 910.073 713.186C910.102 714.347 909.185 715.313 908.024 715.342ZM532.288 344.726C531.127 344.712 530.197 343.759 530.211 342.598C530.226 341.437 531.179 340.507 532.34 340.521C532.342 340.521 532.345 340.521 532.347 340.521C533.508 340.535 534.437 341.488 534.423 342.649C534.409 343.81 533.456 344.74 532.295 344.726C532.292 344.726 532.29 344.726 532.288 344.726ZM908.043 729.921C906.882 729.906 905.952 728.953 905.966 727.792C905.966 727.79 905.966 727.787 905.966 727.785C905.981 726.624 906.933 725.694 908.094 725.709C909.256 725.723 910.186 726.676 910.171 727.837C910.171 727.84 910.172 727.842 910.172 727.844C910.157 729.005 909.204 729.935 908.043 729.921ZM517.791 344.824C516.63 344.854 515.664 343.937 515.635 342.776C515.605 341.615 516.521 340.65 517.682 340.62C517.684 340.62 517.687 340.62 517.689 340.62C518.85 340.59 519.816 341.507 519.845 342.668C519.875 343.829 518.959 344.794 517.798 344.824C517.796 344.824 517.793 344.824 517.791 344.824ZM907.507 744.489C906.347 744.431 905.454 743.443 905.513 742.283C905.513 742.281 905.512 742.279 905.513 742.276C905.571 741.117 906.559 740.224 907.718 740.282C908.878 740.341 909.771 741.329 909.712 742.488C909.712 742.491 909.713 742.493 909.712 742.495C909.654 743.655 908.666 744.548 907.507 744.489ZM503.307 345.473C502.148 345.548 501.148 344.668 501.074 343.509C501 342.351 501.88 341.351 503.038 341.277C503.041 341.277 503.043 341.277 503.045 341.277C504.204 341.203 505.204 342.082 505.278 343.241C505.352 344.4 504.473 345.399 503.314 345.473C503.312 345.473 503.309 345.473 503.307 345.473ZM906.415 759.028C905.258 758.925 904.403 757.905 904.506 756.748C904.506 756.746 904.506 756.743 904.507 756.741C904.609 755.584 905.63 754.73 906.787 754.832C907.944 754.935 908.798 755.956 908.696 757.112C908.696 757.114 908.695 757.117 908.695 757.12C908.593 758.276 907.572 759.13 906.415 759.028ZM488.857 346.675C487.702 346.793 486.67 345.952 486.552 344.797C486.433 343.642 487.274 342.609 488.429 342.491C488.431 342.491 488.434 342.491 488.436 342.491C489.591 342.373 490.624 343.213 490.742 344.368C490.86 345.524 490.019 346.555 488.864 346.674C488.862 346.674 488.859 346.675 488.857 346.675ZM904.77 773.512C903.618 773.366 902.803 772.313 902.949 771.161C902.95 771.159 902.95 771.157 902.951 771.154C903.097 770.003 904.15 769.188 905.302 769.334C906.454 769.481 907.269 770.534 907.122 771.686C907.122 771.688 907.121 771.69 907.121 771.693C906.974 772.844 905.922 773.659 904.77 773.512ZM474.466 348.426C473.316 348.588 472.253 347.787 472.091 346.637C471.929 345.487 472.729 344.424 473.879 344.262C473.881 344.262 473.883 344.261 473.886 344.261C475.035 344.098 476.099 344.899 476.261 346.049C476.423 347.199 475.623 348.263 474.473 348.425C474.471 348.425 474.468 348.426 474.466 348.426ZM902.574 787.924C901.429 787.733 900.654 786.65 900.845 785.505C900.845 785.502 900.846 785.5 900.846 785.498C901.037 784.352 902.12 783.578 903.266 783.768C904.411 783.959 905.185 785.042 904.995 786.187C904.994 786.189 904.994 786.192 904.993 786.194C904.803 787.34 903.719 788.114 902.574 787.924ZM460.153 350.724C459.01 350.93 457.916 350.17 457.71 349.028C457.504 347.885 458.264 346.791 459.407 346.585C459.409 346.585 459.412 346.584 459.414 346.584C460.557 346.378 461.65 347.138 461.856 348.28C462.062 349.423 461.302 350.517 460.16 350.723C460.157 350.723 460.155 350.724 460.153 350.724ZM899.83 802.241C898.692 802.007 897.96 800.895 898.194 799.757C898.194 799.755 898.195 799.753 898.195 799.75C898.43 798.613 899.541 797.881 900.679 798.115C901.816 798.349 902.548 799.461 902.314 800.598C902.314 800.601 902.313 800.603 902.313 800.605C902.078 801.743 900.967 802.475 899.83 802.241ZM445.937 353.567C444.803 353.817 443.681 353.1 443.432 351.966C443.182 350.832 443.899 349.71 445.033 349.461C445.036 349.46 445.038 349.46 445.04 349.459C446.175 349.21 447.296 349.927 447.546 351.061C447.795 352.195 447.078 353.316 445.944 353.566C445.941 353.566 445.939 353.567 445.937 353.567ZM896.538 816.445C895.411 816.167 894.721 815.028 894.998 813.901C894.999 813.898 895 813.895 895 813.893C895.278 812.766 896.417 812.077 897.544 812.355C898.672 812.632 899.361 813.771 899.084 814.898C899.083 814.9 899.082 814.903 899.081 814.906C898.804 816.033 897.666 816.722 896.538 816.445ZM431.838 356.954C430.714 357.246 429.566 356.572 429.273 355.448C428.981 354.325 429.654 353.177 430.778 352.885C430.78 352.884 430.783 352.882 430.785 352.882C431.909 352.589 433.057 353.263 433.349 354.387C433.642 355.511 432.969 356.659 431.846 356.952C431.843 356.952 431.84 356.953 431.838 356.954ZM892.704 830.514C891.588 830.193 890.943 829.028 891.263 827.912C891.264 827.91 891.265 827.907 891.265 827.905C891.586 826.789 892.751 826.144 893.867 826.465C894.983 826.785 895.627 827.95 895.307 829.066C895.306 829.068 895.306 829.071 895.305 829.073C894.985 830.189 893.82 830.834 892.704 830.514ZM417.878 360.878C416.766 361.213 415.593 360.584 415.258 359.472C414.922 358.361 415.552 357.187 416.663 356.852C416.665 356.851 416.668 356.851 416.67 356.85C417.782 356.515 418.955 357.143 419.291 358.254C419.626 359.366 418.997 360.54 417.886 360.876C417.883 360.876 417.88 360.877 417.878 360.878ZM888.334 844.418C887.231 844.054 886.631 842.865 886.995 841.763C886.995 841.76 886.997 841.758 886.997 841.756C887.361 840.653 888.549 840.054 889.652 840.417C890.755 840.78 891.355 841.968 890.992 843.071C890.991 843.073 890.99 843.076 890.989 843.078C890.626 844.181 889.437 844.781 888.334 844.418ZM404.087 365.333C402.989 365.711 401.792 365.127 401.414 364.029C401.036 362.931 401.62 361.735 402.718 361.356C402.72 361.356 402.722 361.354 402.724 361.354C403.822 360.976 405.019 361.56 405.397 362.658C405.775 363.756 405.191 364.952 404.094 365.33C404.091 365.331 404.089 365.332 404.087 365.333ZM883.433 858.144C882.345 857.739 881.791 856.528 882.196 855.44C882.197 855.438 882.198 855.436 882.199 855.433C882.604 854.345 883.815 853.792 884.903 854.197C885.991 854.602 886.546 855.813 886.14 856.902C886.14 856.904 886.138 856.906 886.138 856.909C885.732 857.997 884.521 858.55 883.433 858.144ZM390.475 370.315C389.393 370.735 388.175 370.198 387.755 369.116C387.335 368.033 387.871 366.815 388.954 366.394C388.956 366.394 388.958 366.393 388.961 366.392C390.043 365.972 391.261 366.509 391.681 367.591C392.101 368.674 391.565 369.893 390.482 370.313C390.48 370.314 390.477 370.315 390.475 370.315ZM878.006 871.675C876.934 871.228 876.428 869.997 876.875 868.925C876.876 868.923 876.877 868.921 876.878 868.918C877.325 867.847 878.556 867.34 879.627 867.787C880.699 868.234 881.205 869.465 880.758 870.537C880.758 870.539 880.757 870.542 880.756 870.544C880.309 871.616 879.078 872.122 878.006 871.675ZM377.063 375.819C375.998 376.28 374.76 375.79 374.298 374.725C373.837 373.659 374.327 372.421 375.392 371.96C375.394 371.959 375.397 371.958 375.399 371.957C376.465 371.496 377.702 371.985 378.164 373.051C378.625 374.117 378.136 375.354 377.07 375.816C377.068 375.817 377.065 375.818 377.063 375.819ZM872.058 884.991C871.005 884.503 870.547 883.253 871.035 882.199C871.036 882.197 871.037 882.194 871.038 882.192C871.526 881.139 872.776 880.681 873.829 881.169C874.883 881.657 875.342 882.906 874.854 883.96C874.853 883.962 874.851 883.964 874.85 883.966C874.362 885.02 873.112 885.479 872.058 884.991ZM363.869 381.837C362.822 382.34 361.566 381.899 361.064 380.852C360.562 379.805 361.004 378.548 362.051 378.046C362.053 378.045 362.055 378.044 362.057 378.043C363.104 377.541 364.36 377.982 364.862 379.029C365.364 380.076 364.923 381.332 363.876 381.835C363.874 381.836 363.872 381.836 363.869 381.837ZM865.603 898.064C864.569 897.535 864.159 896.269 864.688 895.235C864.689 895.233 864.69 895.23 864.691 895.228C865.219 894.194 866.486 893.784 867.52 894.312C868.554 894.841 868.964 896.108 868.436 897.142C868.435 897.144 868.433 897.146 868.432 897.148C867.904 898.182 866.637 898.592 865.603 898.064ZM350.921 388.36C349.894 388.902 348.622 388.51 348.079 387.483C347.537 386.456 347.93 385.184 348.957 384.642C348.959 384.64 348.961 384.639 348.963 384.638C349.99 384.096 351.262 384.489 351.804 385.515C352.346 386.542 351.954 387.814 350.927 388.357C350.925 388.358 350.923 388.359 350.921 388.36ZM858.652 910.87C857.639 910.302 857.279 909.021 857.846 908.008C857.847 908.006 857.849 908.003 857.85 908.001C858.418 906.989 859.699 906.628 860.712 907.196C861.725 907.763 862.086 909.045 861.518 910.058C861.517 910.06 861.516 910.062 861.515 910.064C860.947 911.077 859.665 911.438 858.652 910.87ZM338.241 395.373C337.236 395.955 335.95 395.611 335.368 394.606C334.787 393.601 335.13 392.315 336.135 391.733C336.137 391.732 336.14 391.731 336.142 391.73C337.147 391.148 338.433 391.492 339.015 392.497C339.596 393.502 339.253 394.788 338.247 395.37C338.246 395.371 338.243 395.372 338.241 395.373ZM851.21 923.402C850.22 922.795 849.909 921.501 850.516 920.511C850.517 920.509 850.518 920.506 850.519 920.504C851.125 919.514 852.42 919.203 853.41 919.809C854.401 920.416 854.712 921.711 854.105 922.701C854.104 922.703 854.103 922.705 854.102 922.707C853.495 923.697 852.201 924.008 851.21 923.402ZM325.839 402.872C324.857 403.492 323.558 403.198 322.938 402.216C322.318 401.234 322.612 399.936 323.594 399.316C323.596 399.315 323.598 399.313 323.6 399.312C324.582 398.693 325.881 398.986 326.501 399.968C327.12 400.95 326.826 402.248 325.844 402.868C325.842 402.869 325.84 402.871 325.839 402.872ZM843.287 935.644C842.321 934.999 842.06 933.694 842.704 932.728C842.705 932.726 842.707 932.724 842.708 932.722C843.352 931.756 844.657 931.495 845.624 932.139C846.59 932.784 846.851 934.089 846.207 935.055C846.205 935.057 846.204 935.059 846.203 935.061C845.558 936.027 844.253 936.288 843.287 935.644ZM313.728 410.848C312.77 411.505 311.462 411.262 310.804 410.305C310.147 409.347 310.39 408.038 311.347 407.381C311.349 407.379 311.352 407.378 311.354 407.377C312.311 406.72 313.62 406.964 314.277 407.921C314.934 408.878 314.69 410.187 313.733 410.844C313.731 410.845 313.73 410.847 313.728 410.848ZM834.892 947.58C833.952 946.899 833.741 945.583 834.422 944.643C834.424 944.641 834.425 944.639 834.426 944.637C835.107 943.697 836.422 943.486 837.362 944.167C838.303 944.848 838.514 946.163 837.833 947.104C837.832 947.106 837.83 947.107 837.829 947.109C837.148 948.05 835.833 948.261 834.892 947.58ZM301.926 419.29C300.994 419.983 299.677 419.79 298.983 418.859C298.29 417.927 298.482 416.61 299.414 415.917C299.415 415.916 299.417 415.914 299.419 415.913C300.35 415.219 301.668 415.412 302.362 416.344C303.055 417.275 302.863 418.592 301.931 419.286C301.929 419.287 301.928 419.288 301.926 419.29ZM826.063 959.161C825.15 958.445 824.99 957.123 825.706 956.21C825.708 956.208 825.709 956.206 825.71 956.204C826.427 955.29 827.749 955.13 828.663 955.846C829.577 956.563 829.736 957.884 829.02 958.798C829.018 958.8 829.017 958.802 829.016 958.804C828.299 959.718 826.977 959.878 826.063 959.161ZM287.521 427.844C286.792 426.939 286.935 425.616 287.839 424.887C287.841 424.886 287.842 424.884 287.844 424.882C288.748 424.154 290.072 424.296 290.801 425.2C291.53 426.104 291.387 427.428 290.483 428.157C290.481 428.159 290.479 428.16 290.478 428.161C289.574 428.89 288.249 428.748 287.521 427.844ZM276.405 437.264C275.642 436.388 275.734 435.061 276.609 434.298C276.611 434.296 276.613 434.294 276.615 434.292C277.491 433.53 278.819 433.622 279.582 434.497C280.344 435.373 280.252 436.701 279.376 437.464C279.375 437.466 279.373 437.467 279.371 437.468C278.495 438.231 277.168 438.139 276.405 437.264ZM816.795 970.404C815.909 969.653 815.799 968.326 816.549 967.44C816.551 967.439 816.553 967.437 816.554 967.436C817.305 966.55 818.632 966.44 819.518 967.19C820.404 967.941 820.514 969.268 819.763 970.154C819.761 970.156 819.759 970.158 819.757 970.16C819.007 971.045 817.68 971.155 816.795 970.404ZM807.097 981.296C806.24 980.512 806.181 979.181 806.965 978.325C806.966 978.323 806.968 978.321 806.97 978.32C807.754 977.463 809.083 977.404 809.94 978.187C810.797 978.971 810.856 980.302 810.072 981.158C810.071 981.16 810.069 981.162 810.067 981.163C809.284 982.02 807.954 982.08 807.097 981.296ZM265.645 447.108C264.85 446.262 264.892 444.931 265.738 444.136C265.739 444.134 265.741 444.132 265.743 444.13C266.589 443.335 267.92 443.377 268.715 444.223C269.51 445.069 269.469 446.399 268.623 447.195C268.621 447.196 268.619 447.198 268.618 447.2C267.772 447.995 266.44 447.954 265.645 447.108ZM799.962 991.8L799.956 991.805C799.141 992.632 797.81 992.641 796.983 991.826C796.156 991.01 796.147 989.679 796.963 988.852L796.968 988.846C797.784 988.02 799.115 988.011 799.942 988.826C800.768 989.642 800.777 990.973 799.962 991.8ZM258.232 457.337L258.227 457.343C257.411 458.169 256.08 458.178 255.253 457.363C254.427 456.547 254.418 455.216 255.233 454.389L255.238 454.384C256.054 453.557 257.385 453.548 258.212 454.364C259.038 455.179 259.048 456.511 258.232 457.337ZM786.48 1001.97C785.685 1001.12 785.726 999.79 786.572 998.995C786.574 998.993 786.576 998.991 786.577 998.99C787.423 998.195 788.755 998.236 789.55 999.082C790.345 999.928 790.304 1001.26 789.457 1002.05C789.456 1002.06 789.454 1002.06 789.453 1002.06C788.607 1002.85 787.275 1002.81 786.48 1001.97ZM245.255 468.002C244.398 467.218 244.339 465.888 245.123 465.031C245.124 465.029 245.126 465.028 245.128 465.026C245.911 464.169 247.241 464.109 248.098 464.893C248.955 465.677 249.014 467.008 248.23 467.865C248.228 467.866 248.227 467.868 248.225 467.869C247.442 468.726 246.111 468.786 245.255 468.002ZM775.613 1011.69C774.851 1010.82 774.943 1009.49 775.819 1008.73C775.82 1008.72 775.822 1008.72 775.823 1008.72C776.699 1007.96 778.027 1008.05 778.79 1008.93C779.553 1009.8 779.461 1011.13 778.586 1011.89C778.584 1011.89 778.582 1011.9 778.58 1011.9C777.704 1012.66 776.376 1012.57 775.613 1011.69ZM235.677 478.999C234.791 478.248 234.681 476.921 235.432 476.035C235.434 476.033 235.436 476.032 235.437 476.03C236.188 475.144 237.515 475.034 238.4 475.785C239.286 476.536 239.396 477.862 238.645 478.748C238.643 478.75 238.642 478.752 238.641 478.754C237.89 479.64 236.563 479.749 235.677 478.999ZM764.394 1020.99C763.665 1020.09 763.808 1018.76 764.712 1018.03C764.714 1018.03 764.715 1018.03 764.717 1018.03C765.621 1017.3 766.945 1017.44 767.674 1018.35C768.402 1019.25 768.26 1020.57 767.356 1021.3C767.354 1021.3 767.352 1021.31 767.35 1021.31C766.446 1022.04 765.123 1021.89 764.394 1020.99ZM226.532 490.343C225.618 489.626 225.458 488.304 226.175 487.39C226.176 487.388 226.178 487.387 226.179 487.385C226.896 486.472 228.217 486.311 229.131 487.027C230.045 487.744 230.205 489.066 229.489 489.98C229.487 489.981 229.486 489.983 229.485 489.985C228.768 490.899 227.446 491.059 226.532 490.343ZM755.776 1030.28C754.845 1030.97 753.527 1030.78 752.833 1029.85C752.14 1028.92 752.332 1027.6 753.264 1026.91C753.266 1026.9 753.267 1026.9 753.269 1026.9C754.201 1026.21 755.519 1026.4 756.212 1027.33C756.906 1028.26 756.713 1029.58 755.781 1030.27C755.78 1030.28 755.778 1030.28 755.776 1030.28ZM217.833 502.022C216.892 501.341 216.681 500.026 217.362 499.086C217.363 499.084 217.365 499.082 217.366 499.08C218.047 498.139 219.362 497.928 220.303 498.609C221.243 499.29 221.454 500.606 220.773 501.546C220.771 501.548 220.77 501.55 220.769 501.552C220.088 502.492 218.773 502.703 217.833 502.022ZM743.841 1038.81C742.884 1039.47 741.575 1039.23 740.918 1038.27C740.261 1037.31 740.505 1036 741.462 1035.35C741.464 1035.35 741.465 1035.34 741.467 1035.34C742.425 1034.69 743.733 1034.93 744.391 1035.89C745.048 1036.84 744.805 1038.15 743.848 1038.81C743.846 1038.81 743.843 1038.81 743.841 1038.81ZM209.571 514.05C208.605 513.406 208.344 512.1 208.988 511.134C208.99 511.132 208.991 511.129 208.992 511.127C209.637 510.161 210.942 509.901 211.908 510.545C212.874 511.19 213.135 512.495 212.491 513.461C212.49 513.463 212.488 513.465 212.487 513.467C211.843 514.433 210.538 514.694 209.571 514.05ZM731.595 1046.88C730.613 1047.5 729.314 1047.2 728.695 1046.22C728.075 1045.24 728.368 1043.94 729.35 1043.32C729.352 1043.32 729.355 1043.32 729.356 1043.32C730.338 1042.7 731.637 1042.99 732.257 1043.97C732.877 1044.96 732.584 1046.25 731.602 1046.87C731.6 1046.88 731.597 1046.88 731.595 1046.88ZM201.785 526.38C200.794 525.773 200.483 524.478 201.09 523.488C201.091 523.486 201.092 523.483 201.094 523.481C201.7 522.491 202.994 522.181 203.984 522.787C204.975 523.394 205.286 524.688 204.679 525.679C204.678 525.681 204.676 525.682 204.675 525.684C204.069 526.674 202.775 526.986 201.785 526.38ZM719.054 1054.46C718.048 1055.04 716.762 1054.7 716.18 1053.69C715.599 1052.69 715.942 1051.4 716.948 1050.82C716.95 1050.82 716.952 1050.82 716.954 1050.82C717.959 1050.24 719.245 1050.58 719.827 1051.58C720.408 1052.59 720.065 1053.88 719.06 1054.46C719.058 1054.46 719.056 1054.46 719.054 1054.46ZM194.483 538.994C193.47 538.426 193.109 537.144 193.677 536.131C193.678 536.129 193.679 536.127 193.68 536.125C194.248 535.112 195.53 534.751 196.543 535.319C197.556 535.887 197.916 537.169 197.349 538.182C197.347 538.184 197.346 538.186 197.345 538.188C196.777 539.201 195.496 539.561 194.483 538.994ZM706.232 1061.55C705.205 1062.1 703.933 1061.7 703.39 1060.68C702.848 1059.65 703.241 1058.38 704.268 1057.83C704.27 1057.83 704.272 1057.83 704.274 1057.83C705.301 1057.29 706.573 1057.68 707.116 1058.71C707.658 1059.74 707.265 1061.01 706.238 1061.55C706.236 1061.55 706.234 1061.55 706.232 1061.55ZM187.675 551.876C186.641 551.348 186.231 550.081 186.759 549.047C186.76 549.045 186.762 549.043 186.763 549.041C187.291 548.007 188.558 547.597 189.592 548.125C190.626 548.654 191.036 549.92 190.507 550.955C190.506 550.957 190.505 550.959 190.504 550.961C189.975 551.995 188.709 552.405 187.675 551.876ZM693.138 1068.15C692.091 1068.65 690.835 1068.21 690.333 1067.16C689.831 1066.12 690.272 1064.86 691.319 1064.36C691.321 1064.36 691.323 1064.35 691.326 1064.35C692.373 1063.85 693.629 1064.29 694.131 1065.34C694.633 1066.39 694.191 1067.64 693.144 1068.15C693.142 1068.15 693.14 1068.15 693.138 1068.15ZM181.365 565.021C180.312 564.532 179.853 563.283 180.341 562.229C180.342 562.227 180.344 562.225 180.345 562.223C180.833 561.169 182.083 560.71 183.136 561.198C184.19 561.686 184.648 562.936 184.16 563.99C184.159 563.992 184.158 563.995 184.157 563.997C183.669 565.051 182.419 565.509 181.365 565.021ZM679.796 1074.23C678.73 1074.7 677.493 1074.21 677.031 1073.14C676.57 1072.07 677.06 1070.84 678.125 1070.38C678.127 1070.37 678.13 1070.37 678.132 1070.37C679.198 1069.91 680.435 1070.4 680.897 1071.47C681.358 1072.53 680.868 1073.77 679.803 1074.23C679.801 1074.23 679.798 1074.23 679.796 1074.23ZM175.567 578.402C174.496 577.955 173.99 576.724 174.436 575.652C174.437 575.65 174.438 575.647 174.439 575.645C174.886 574.573 176.117 574.067 177.189 574.514C178.261 574.961 178.767 576.192 178.32 577.264C178.319 577.266 178.318 577.269 178.317 577.271C177.87 578.342 176.639 578.849 175.567 578.402ZM666.235 1079.8C665.152 1080.22 663.933 1079.68 663.513 1078.6C663.093 1077.52 663.631 1076.3 664.713 1075.88C664.715 1075.88 664.718 1075.88 664.72 1075.88C665.802 1075.46 667.02 1075.99 667.44 1077.08C667.861 1078.16 667.324 1079.38 666.241 1079.8C666.239 1079.8 666.237 1079.8 666.235 1079.8ZM170.291 591.992C169.203 591.586 168.649 590.376 169.055 589.287C169.055 589.285 169.056 589.283 169.057 589.281C169.463 588.193 170.674 587.639 171.762 588.045C172.85 588.45 173.404 589.661 172.998 590.749C172.998 590.751 172.997 590.754 172.996 590.756C172.59 591.844 171.379 592.397 170.291 591.992ZM652.471 1084.84C651.373 1085.22 650.176 1084.63 649.798 1083.53C649.42 1082.44 650.004 1081.24 651.101 1080.86C651.104 1080.86 651.106 1080.86 651.108 1080.86C652.206 1080.48 653.403 1081.06 653.781 1082.16C654.159 1083.26 653.576 1084.46 652.478 1084.83C652.476 1084.84 652.473 1084.84 652.471 1084.84ZM165.543 605.773C164.44 605.409 163.84 604.22 164.204 603.117C164.204 603.115 164.205 603.113 164.206 603.111C164.569 602.008 165.758 601.408 166.861 601.772C167.964 602.135 168.564 603.324 168.2 604.427C168.2 604.429 168.198 604.431 168.198 604.434C167.834 605.536 166.646 606.136 165.543 605.773ZM638.525 1089.34C637.414 1089.68 636.24 1089.05 635.905 1087.94C635.569 1086.83 636.198 1085.65 637.309 1085.32C637.312 1085.32 637.315 1085.31 637.317 1085.31C638.429 1084.98 639.602 1085.61 639.937 1086.72C640.273 1087.83 639.643 1089 638.532 1089.34C638.53 1089.34 638.527 1089.34 638.525 1089.34ZM161.328 619.724C160.212 619.403 159.568 618.239 159.888 617.123C159.889 617.121 159.889 617.119 159.89 617.116C160.21 616 161.375 615.355 162.491 615.676C163.607 615.996 164.252 617.161 163.932 618.277C163.931 618.279 163.93 618.282 163.93 618.284C163.609 619.4 162.444 620.044 161.328 619.724ZM624.409 1093.31C623.286 1093.6 622.138 1092.93 621.846 1091.8C621.553 1090.68 622.226 1089.53 623.35 1089.24C623.352 1089.24 623.355 1089.24 623.357 1089.24C624.481 1088.95 625.629 1089.62 625.922 1090.74C626.214 1091.87 625.54 1093.01 624.417 1093.31C624.415 1093.31 624.412 1093.31 624.409 1093.31ZM157.651 633.835C156.523 633.557 155.833 632.418 156.111 631.291C156.111 631.288 156.113 631.286 156.113 631.284C156.391 630.156 157.529 629.467 158.657 629.745C159.784 630.022 160.474 631.161 160.197 632.288C160.196 632.291 160.195 632.294 160.195 632.296C159.917 633.423 158.778 634.112 157.651 633.835ZM610.155 1096.73C609.021 1096.98 607.899 1096.26 607.65 1095.13C607.4 1094 608.117 1092.88 609.251 1092.63C609.254 1092.62 609.256 1092.62 609.258 1092.62C610.392 1092.37 611.514 1093.09 611.764 1094.23C612.013 1095.36 611.296 1096.48 610.162 1096.73C610.159 1096.73 610.157 1096.73 610.155 1096.73ZM154.516 648.074C153.379 647.84 152.647 646.728 152.881 645.591C152.881 645.589 152.882 645.586 152.882 645.584C153.116 644.447 154.229 643.714 155.366 643.948C156.503 644.182 157.235 645.294 157.001 646.432C157 646.434 157 646.436 157 646.439C156.765 647.576 155.654 648.308 154.516 648.074ZM595.781 1099.61C594.638 1099.81 593.545 1099.05 593.34 1097.91C593.134 1096.77 593.893 1095.67 595.036 1095.47C595.038 1095.47 595.04 1095.47 595.042 1095.47C596.185 1095.26 597.278 1096.02 597.485 1097.16C597.691 1098.31 596.931 1099.4 595.789 1099.61C595.786 1099.61 595.783 1099.61 595.781 1099.61ZM151.93 662.42C150.784 662.23 150.01 661.148 150.2 660.002C150.201 660 150.201 659.997 150.201 659.995C150.392 658.85 151.475 658.075 152.621 658.265C153.766 658.455 154.541 659.539 154.35 660.685C154.35 660.687 154.349 660.689 154.349 660.692C154.158 661.837 153.075 662.611 151.93 662.42ZM581.31 1101.93C580.16 1102.09 579.096 1101.29 578.934 1100.14C578.772 1098.99 579.572 1097.93 580.722 1097.77C580.724 1097.77 580.727 1097.77 580.729 1097.77C581.879 1097.6 582.942 1098.4 583.105 1099.55C583.267 1100.7 582.466 1101.77 581.317 1101.93C581.314 1101.93 581.312 1101.93 581.31 1101.93ZM149.893 676.855C148.741 676.708 147.926 675.655 148.072 674.503C148.073 674.501 148.073 674.499 148.074 674.497C148.22 673.345 149.273 672.53 150.425 672.676C151.577 672.823 152.392 673.876 152.245 675.028C152.245 675.03 152.244 675.032 152.244 675.035C152.097 676.187 151.045 677.002 149.893 676.855ZM566.759 1103.7C565.604 1103.82 564.571 1102.98 564.453 1101.82C564.335 1100.67 565.175 1099.64 566.33 1099.52C566.333 1099.52 566.336 1099.52 566.338 1099.52C567.493 1099.4 568.526 1100.24 568.644 1101.39C568.762 1102.55 567.921 1103.58 566.766 1103.7C566.764 1103.7 566.762 1103.7 566.759 1103.7ZM148.408 691.357C147.251 691.254 146.397 690.233 146.5 689.076C146.5 689.074 146.499 689.072 146.5 689.07C146.602 687.913 147.624 687.058 148.781 687.161C149.937 687.264 150.792 688.285 150.689 689.441C150.689 689.443 150.688 689.446 150.688 689.448C150.585 690.605 149.565 691.459 148.408 691.357ZM552.15 1104.91C550.991 1104.99 549.991 1104.11 549.917 1102.95C549.843 1101.79 550.722 1100.79 551.881 1100.72C551.884 1100.72 551.886 1100.72 551.889 1100.72C553.047 1100.64 554.047 1101.52 554.121 1102.68C554.195 1103.84 553.315 1104.84 552.157 1104.91C552.154 1104.92 552.152 1104.91 552.15 1104.91ZM147.477 705.907C146.317 705.848 145.424 704.861 145.483 703.701C145.483 703.699 145.482 703.696 145.483 703.694C145.541 702.534 146.529 701.642 147.688 701.7C148.848 701.758 149.741 702.746 149.683 703.905C149.683 703.908 149.683 703.91 149.682 703.913C149.624 705.073 148.636 705.965 147.477 705.907ZM537.506 1105.57C536.345 1105.6 535.38 1104.68 535.35 1103.52C535.32 1102.36 536.236 1101.4 537.397 1101.37C537.4 1101.37 537.402 1101.37 537.405 1101.37C538.565 1101.34 539.531 1102.25 539.561 1103.42C539.591 1104.58 538.674 1105.54 537.513 1105.57C537.511 1105.57 537.508 1105.57 537.506 1105.57ZM147.101 720.481C145.939 720.466 145.009 719.513 145.024 718.352C145.024 718.35 145.023 718.347 145.023 718.345C145.038 717.184 145.991 716.255 147.151 716.269C148.313 716.283 149.243 717.236 149.228 718.397C149.228 718.4 149.229 718.402 149.229 718.404C149.214 719.565 148.261 720.495 147.101 720.481ZM522.848 1105.67C521.687 1105.66 520.758 1104.7 520.772 1103.54C520.786 1102.38 521.739 1101.45 522.9 1101.47C522.902 1101.47 522.905 1101.47 522.907 1101.47C524.068 1101.48 524.998 1102.43 524.984 1103.59C524.969 1104.75 524.016 1105.68 522.855 1105.67C522.853 1105.67 522.85 1105.67 522.848 1105.67ZM147.278 735.058C146.118 735.087 145.152 734.171 145.122 733.01C145.122 733.008 145.122 733.006 145.122 733.003C145.092 731.842 146.01 730.877 147.171 730.847C148.331 730.817 149.296 731.733 149.326 732.894C149.326 732.896 149.326 732.899 149.326 732.901C149.356 734.062 148.439 735.028 147.278 735.058ZM508.197 1105.21C507.037 1105.15 506.145 1104.17 506.203 1103.01C506.261 1101.85 507.248 1100.95 508.408 1101.01C508.41 1101.01 508.413 1101.01 508.416 1101.01C509.576 1101.07 510.468 1102.06 510.41 1103.22C510.351 1104.38 509.363 1105.27 508.204 1105.21C508.201 1105.21 508.199 1105.21 508.197 1105.21ZM148.012 749.618C146.853 749.692 145.853 748.812 145.779 747.654C145.779 747.651 145.779 747.649 145.779 747.647C145.705 746.488 146.584 745.488 147.743 745.414C148.902 745.34 149.902 746.219 149.976 747.378C149.976 747.38 149.976 747.383 149.976 747.385C150.05 748.544 149.171 749.544 148.012 749.618ZM493.572 1104.19C492.416 1104.09 491.561 1103.07 491.664 1101.91C491.766 1100.76 492.787 1099.9 493.944 1100.01C493.946 1100.01 493.949 1100.01 493.951 1100.01C495.108 1100.11 495.962 1101.13 495.86 1102.29C495.757 1103.44 494.736 1104.3 493.579 1104.19C493.577 1104.19 493.575 1104.19 493.572 1104.19ZM149.3 764.14C148.145 764.259 147.112 763.418 146.994 762.263C146.994 762.261 146.994 762.258 146.994 762.256C146.876 761.101 147.716 760.068 148.871 759.95C150.026 759.832 151.059 760.672 151.177 761.827C151.177 761.83 151.178 761.833 151.178 761.835C151.296 762.99 150.455 764.022 149.3 764.14ZM478.999 1102.62C477.848 1102.47 477.032 1101.42 477.179 1100.27C477.326 1099.12 478.379 1098.3 479.531 1098.45C479.533 1098.45 479.535 1098.45 479.538 1098.45C480.689 1098.6 481.504 1099.65 481.358 1100.8C481.211 1101.95 480.158 1102.77 479.006 1102.62C479.004 1102.62 479.002 1102.62 478.999 1102.62ZM151.14 778.601C149.99 778.763 148.927 777.963 148.765 776.813C148.764 776.811 148.764 776.809 148.763 776.807C148.601 775.657 149.402 774.593 150.552 774.431C151.701 774.269 152.765 775.069 152.927 776.219C152.928 776.221 152.928 776.224 152.929 776.226C153.091 777.376 152.29 778.439 151.14 778.601ZM464.498 1100.49C463.352 1100.3 462.578 1099.22 462.768 1098.07C462.959 1096.93 464.042 1096.15 465.188 1096.34C465.19 1096.34 465.192 1096.34 465.194 1096.35C466.34 1096.54 467.114 1097.62 466.923 1098.76C466.733 1099.91 465.65 1100.68 464.505 1100.49C464.503 1100.49 464.5 1100.49 464.498 1100.49ZM153.531 792.982C152.388 793.187 151.294 792.428 151.088 791.285C151.088 791.283 151.087 791.28 151.087 791.278C150.881 790.135 151.64 789.042 152.783 788.836C153.926 788.63 155.02 789.39 155.226 790.532C155.226 790.535 155.227 790.537 155.227 790.539C155.433 791.682 154.673 792.775 153.531 792.982ZM450.087 1097.81C448.949 1097.58 448.217 1096.47 448.451 1095.33C448.685 1094.19 449.797 1093.46 450.935 1093.69C450.937 1093.69 450.939 1093.69 450.942 1093.69C452.079 1093.93 452.811 1095.04 452.577 1096.18C452.343 1097.32 451.231 1098.05 450.094 1097.81C450.091 1097.81 450.089 1097.81 450.087 1097.81ZM156.468 807.26C155.334 807.51 154.213 806.793 153.963 805.659C153.963 805.656 153.962 805.654 153.962 805.652C153.712 804.518 154.429 803.396 155.563 803.146C156.698 802.897 157.819 803.614 158.069 804.748C158.069 804.751 158.069 804.753 158.07 804.755C158.319 805.889 157.602 807.011 156.468 807.26ZM435.786 1094.58C434.659 1094.3 433.97 1093.16 434.247 1092.04C434.525 1090.91 435.664 1090.22 436.791 1090.5C436.794 1090.5 436.796 1090.5 436.799 1090.5C437.926 1090.78 438.615 1091.92 438.337 1093.04C438.06 1094.17 436.921 1094.86 435.794 1094.58C435.792 1094.58 435.789 1094.58 435.786 1094.58ZM159.951 821.419C158.827 821.711 157.68 821.037 157.387 819.914C157.387 819.912 157.386 819.909 157.385 819.906C157.093 818.783 157.766 817.635 158.89 817.342C160.013 817.05 161.161 817.723 161.454 818.846C161.455 818.849 161.456 818.852 161.456 818.854C161.749 819.978 161.075 821.126 159.951 821.419ZM421.619 1090.8C420.503 1090.48 419.858 1089.32 420.178 1088.2C420.499 1087.09 421.664 1086.44 422.78 1086.76C422.782 1086.76 422.785 1086.76 422.787 1086.76C423.903 1087.09 424.547 1088.25 424.227 1089.37C423.906 1090.48 422.742 1091.13 421.626 1090.81C421.624 1090.81 421.621 1090.8 421.619 1090.8ZM163.975 835.434C162.863 835.77 161.69 835.14 161.354 834.029C161.354 834.027 161.354 834.024 161.353 834.022C161.017 832.91 161.646 831.737 162.757 831.401C163.869 831.066 165.042 831.695 165.378 832.806C165.379 832.809 165.38 832.812 165.38 832.814C165.716 833.926 165.086 835.099 163.975 835.434ZM407.614 1086.49C406.511 1086.13 405.911 1084.94 406.274 1083.83C406.638 1082.73 407.826 1082.13 408.929 1082.49C408.932 1082.49 408.934 1082.5 408.936 1082.5C410.039 1082.86 410.638 1084.05 410.275 1085.15C409.912 1086.25 408.723 1086.85 407.62 1086.49C407.618 1086.49 407.616 1086.49 407.614 1086.49ZM168.532 849.278C167.434 849.656 166.237 849.072 165.859 847.974C165.858 847.972 165.857 847.97 165.856 847.968C165.478 846.87 166.063 845.673 167.161 845.295C168.258 844.917 169.455 845.5 169.833 846.598C169.834 846.601 169.835 846.603 169.836 846.605C170.214 847.703 169.63 848.9 168.532 849.278ZM393.783 1081.64C392.695 1081.23 392.142 1080.02 392.548 1078.93C392.953 1077.84 394.164 1077.29 395.252 1077.7C395.254 1077.7 395.256 1077.7 395.259 1077.7C396.347 1078.1 396.9 1079.31 396.495 1080.4C396.09 1081.49 394.878 1082.04 393.79 1081.64C393.788 1081.64 393.786 1081.64 393.783 1081.64ZM173.618 862.937C172.536 863.357 171.317 862.821 170.897 861.738C170.896 861.736 170.895 861.734 170.894 861.731C170.474 860.649 171.012 859.43 172.095 859.01C173.177 858.59 174.395 859.127 174.815 860.21C174.816 860.212 174.817 860.215 174.818 860.217C175.238 861.299 174.701 862.517 173.618 862.937ZM380.148 1076.25C379.076 1075.81 378.57 1074.58 379.017 1073.51C379.464 1072.43 380.695 1071.93 381.767 1072.37C381.769 1072.37 381.771 1072.38 381.774 1072.38C382.845 1072.82 383.352 1074.05 382.905 1075.13C382.458 1076.2 381.227 1076.7 380.155 1076.26C380.153 1076.26 380.15 1076.26 380.148 1076.25ZM179.227 876.394C178.162 876.855 176.924 876.365 176.463 875.3C176.462 875.297 176.461 875.295 176.46 875.293C175.998 874.227 176.488 872.99 177.554 872.528C178.619 872.067 179.857 872.556 180.318 873.622C180.319 873.624 180.32 873.627 180.321 873.629C180.783 874.694 180.293 875.932 179.227 876.394ZM366.726 1070.35C365.672 1069.86 365.213 1068.61 365.701 1067.56C366.189 1066.5 367.439 1066.05 368.493 1066.53C368.495 1066.53 368.498 1066.54 368.5 1066.54C369.553 1067.02 370.011 1068.27 369.523 1069.33C369.035 1070.38 367.786 1070.84 366.732 1070.35C366.73 1070.35 366.728 1070.35 366.726 1070.35ZM185.354 889.628C184.307 890.13 183.051 889.688 182.549 888.641C182.548 888.639 182.546 888.637 182.545 888.635C182.043 887.588 182.485 886.332 183.532 885.83C184.579 885.328 185.835 885.769 186.337 886.816C186.338 886.818 186.339 886.82 186.34 886.823C186.842 887.87 186.401 889.126 185.354 889.628ZM353.544 1063.93C352.51 1063.4 352.1 1062.14 352.628 1061.1C353.157 1060.07 354.423 1059.66 355.457 1060.19C355.459 1060.19 355.461 1060.19 355.464 1060.19C356.498 1060.72 356.908 1061.98 356.38 1063.02C355.851 1064.05 354.584 1064.46 353.55 1063.93C353.548 1063.93 353.546 1063.93 353.544 1063.93ZM191.986 902.612C190.959 903.155 189.687 902.762 189.144 901.735C189.143 901.733 189.142 901.731 189.141 901.729C188.598 900.702 188.992 899.429 190.018 898.887C191.045 898.345 192.317 898.738 192.859 899.765C192.86 899.767 192.862 899.769 192.863 899.771C193.405 900.798 193.012 902.07 191.986 902.612ZM340.628 1057.01C339.615 1056.45 339.254 1055.16 339.822 1054.15C340.39 1053.14 341.671 1052.78 342.684 1053.35C342.686 1053.35 342.688 1053.35 342.69 1053.35C343.703 1053.92 344.064 1055.2 343.496 1056.21C342.928 1057.22 341.647 1057.58 340.634 1057.02C340.632 1057.02 340.63 1057.01 340.628 1057.01ZM199.109 915.324C198.104 915.905 196.817 915.562 196.236 914.557C196.235 914.554 196.233 914.552 196.232 914.55C195.651 913.545 195.994 912.259 196.999 911.677C198.004 911.096 199.291 911.439 199.872 912.444C199.874 912.446 199.875 912.449 199.876 912.451C200.457 913.456 200.114 914.742 199.109 915.324ZM327.984 1049.6C326.994 1048.99 326.684 1047.7 327.29 1046.71C327.896 1045.72 329.191 1045.41 330.181 1046.01C330.183 1046.02 330.186 1046.02 330.188 1046.02C331.178 1046.62 331.489 1047.92 330.882 1048.91C330.276 1049.9 328.981 1050.21 327.991 1049.6C327.989 1049.6 327.986 1049.6 327.984 1049.6ZM206.719 927.754C205.737 928.374 204.438 928.08 203.818 927.098C203.817 927.096 203.816 927.094 203.815 927.092C203.195 926.11 203.489 924.811 204.471 924.191C205.453 923.572 206.751 923.865 207.371 924.847C207.373 924.849 207.373 924.851 207.375 924.853C207.995 925.835 207.701 927.134 206.719 927.754ZM315.631 1041.7C314.665 1041.06 314.404 1039.75 315.048 1038.79C315.692 1037.82 316.998 1037.56 317.964 1038.2C317.966 1038.2 317.967 1038.21 317.969 1038.21C318.935 1038.85 319.197 1040.16 318.553 1041.12C317.908 1042.09 316.603 1042.35 315.637 1041.71C315.635 1041.7 315.633 1041.7 315.631 1041.7ZM214.807 939.888C213.85 940.545 212.541 940.301 211.884 939.344C211.883 939.342 211.881 939.34 211.88 939.338C211.223 938.381 211.466 937.072 212.423 936.415C213.381 935.758 214.69 936.001 215.347 936.959C215.348 936.961 215.35 936.962 215.351 936.964C216.008 937.922 215.765 939.23 214.807 939.888ZM303.583 1033.33C302.642 1032.65 302.431 1031.33 303.112 1030.39C303.793 1029.45 305.108 1029.24 306.049 1029.92C306.051 1029.92 306.053 1029.92 306.055 1029.93C306.995 1030.61 307.206 1031.92 306.525 1032.86C305.844 1033.8 304.529 1034.01 303.588 1033.33C303.586 1033.33 303.585 1033.33 303.583 1033.33ZM223.361 951.709C222.43 952.402 221.113 952.209 220.42 951.278C220.418 951.276 220.417 951.275 220.415 951.273C219.722 950.341 219.915 949.024 220.846 948.33C221.778 947.637 223.095 947.829 223.788 948.761C223.79 948.762 223.791 948.764 223.792 948.766C224.486 949.697 224.293 951.015 223.361 951.709ZM291.888 1024.51C290.974 1023.8 290.814 1022.48 291.531 1021.56C292.247 1020.65 293.569 1020.49 294.482 1021.2C294.484 1021.21 294.486 1021.21 294.488 1021.21C295.402 1021.92 295.562 1023.25 294.845 1024.16C294.129 1025.07 292.808 1025.23 291.894 1024.52C291.892 1024.52 291.89 1024.52 291.888 1024.51ZM229.39 962.853C229.388 962.851 229.387 962.849 229.386 962.847C228.657 961.943 228.799 960.62 229.703 959.891C230.607 959.162 231.931 959.305 232.66 960.209C232.661 960.21 232.663 960.212 232.664 960.214C233.393 961.118 233.251 962.442 232.347 963.17C231.443 963.899 230.119 963.757 229.39 962.853ZM280.532 1015.26C279.647 1014.5 279.537 1013.18 280.288 1012.29C281.039 1011.41 282.366 1011.3 283.251 1012.05C283.253 1012.05 283.255 1012.05 283.256 1012.05C284.142 1012.8 284.252 1014.13 283.501 1015.02C282.751 1015.9 281.424 1016.01 280.538 1015.26C280.536 1015.26 280.534 1015.26 280.532 1015.26ZM238.801 974.082C238.799 974.081 238.797 974.079 238.795 974.077C238.033 973.201 238.124 971.873 239 971.11C239.876 970.348 241.204 970.44 241.967 971.315C241.968 971.317 241.97 971.319 241.972 971.32C242.734 972.196 242.642 973.524 241.766 974.287C240.891 975.049 239.563 974.958 238.801 974.082ZM269.529 1005.56C268.672 1004.78 268.612 1003.45 269.396 1002.59C270.18 1001.74 271.51 1001.68 272.367 1002.46C272.369 1002.46 272.37 1002.47 272.372 1002.47C273.229 1003.25 273.288 1004.58 272.505 1005.44C271.721 1006.29 270.39 1006.35 269.533 1005.57C269.532 1005.57 269.53 1005.57 269.529 1005.56ZM248.633 984.949C247.838 984.103 247.879 982.772 248.725 981.977C249.572 981.182 250.902 981.223 251.697 982.069C251.699 982.071 251.701 982.072 251.702 982.074C252.498 982.92 252.457 984.251 251.61 985.047C250.764 985.842 249.434 985.8 248.638 984.954C248.637 984.953 248.635 984.951 248.633 984.949ZM258.887 995.453C258.06 994.638 258.051 993.307 258.867 992.48C259.682 991.653 261.013 991.645 261.84 992.46L261.845 992.466C262.672 993.281 262.681 994.612 261.866 995.439C261.05 996.266 259.719 996.274 258.892 995.459L258.887 995.453Z" fill="#2E2E2E" fill-opacity="0.4"/>
<path d="M302.118 1032.2C301.18 1031.51 300.974 1030.2 301.658 1029.26C302.343 1028.32 303.658 1028.12 304.596 1028.8C366.724 1074.12 441.186 1099.44 518.062 1101.37C519.223 1101.4 520.139 1102.37 520.11 1103.53C520.081 1104.69 519.116 1105.61 517.955 1105.58C440.225 1103.62 364.936 1078.02 302.118 1032.2Z" fill="#D2A6FB"/>
<path d="M420.934 360.042C419.82 360.369 418.651 359.731 418.323 358.617C417.996 357.503 418.634 356.335 419.748 356.007C453.943 345.961 489.375 340.741 525.014 340.501C526.175 340.493 527.123 341.428 527.131 342.589C527.139 343.75 526.204 344.698 525.042 344.706C489.795 344.944 454.753 350.106 420.934 360.042Z" fill="#F49F00"/>
<path d="M537.077 722.002V724.002H515.077V722.002H537.077Z" fill="var(--fill-0, #A4A4A4)"/>
<path d="M527.077 712.002V734.002H525.077V712.002H527.077Z" fill="var(--fill-0, #A4A4A4)"/>
</g>
</svg>
