<svg width="34" height="33" viewBox="0 0 34 33" fill="none" xmlns="http://www.w3.org/2000/svg">
<path d="M28.9692 28.1186H23.9321V20.4613C23.9321 18.6359 23.8982 16.2845 21.3123 16.2845C18.7264 16.2845 18.2872 18.275 18.2872 20.3287V28.1186H13.2501V12.3711H18.087V14.5231H18.1543C19.1402 12.8863 20.9744 11.9091 22.9253 11.9788C28.0313 11.9788 28.9726 15.2391 28.9726 19.4794V28.1186H28.9692ZM7.5635 10.2192C5.94934 10.2192 4.63926 8.94938 4.63926 7.38229C4.63926 5.8152 5.94748 4.54397 7.56201 4.54397C9.17653 4.54397 10.4862 5.81376 10.4862 7.38085C10.4862 8.94758 9.17802 10.2192 7.5635 10.2192ZM10.0839 28.1186H5.0401V12.3711H10.0839V28.1186ZM31.4814 0.0020066H2.50888C1.13962 -0.0120821 0.0160039 1.05215 0 2.38118V30.6192C0.0160039 31.9496 1.13813 33.0139 2.50888 32.9998H31.4814C32.8537 33.0171 33.9806 31.9511 34 30.6192V2.37974C33.9806 1.04746 32.8537 -0.0167783 31.4814 0.000200361" fill="currentColor"/>
</svg>
