<svg width="50" height="40" viewBox="0 0 50 40" fill="none" xmlns="http://www.w3.org/2000/svg">
  <path d="M48.9377 6.24844C48.3584 4.03125 46.6533 2.30156 44.4705 1.71406C40.5939 0.625 25.0002 0.625 25.0002 0.625C25.0002 0.625 9.40645 0.625 5.52988 1.71406C3.34707 2.30156 1.64207 4.03125 1.06269 6.24844C0 10.1875 0 18.375 0 18.375C0 18.375 0 26.5625 1.06269 30.5016C1.64207 32.7188 3.34707 34.3734 5.52988 34.9609C9.40645 36.125 25.0002 36.125 25.0002 36.125C25.0002 36.125 40.5939 36.125 44.4705 34.9609C46.6533 34.3734 48.3584 32.7188 48.9377 30.5016C50.0002 26.5625 50.0002 18.375 50.0002 18.375C50.0002 18.375 50.0002 10.1875 48.9377 6.24844ZM19.8752 26.0938V10.6562L33.0002 18.375L19.8752 26.0938Z" fill="white"/>
</svg>
