<svg width="2259" height="2916" viewBox="0 0 2259 2916" fill="none" xmlns="http://www.w3.org/2000/svg">
<path d="M1539.5 2916H1539L1539 2.18557e-08L1539.5 0L1539.5 2916Z" fill="#A4A4A4"/>
<path d="M0 595.5L4.37112e-08 595L2259 595V595.5L0 595.5Z" fill="#A4A4A4"/>
<path d="M1633.26 501.126C1632.43 500.31 1632.43 498.977 1633.24 498.15C1634.06 497.322 1635.39 497.313 1636.22 498.13L1636.22 498.131C1637.05 498.947 1637.06 500.28 1636.24 501.107C1635.42 501.934 1634.09 501.943 1633.26 501.127L1633.26 501.126ZM1643.28 512.169L1643.28 512.167C1642.55 511.264 1642.69 509.939 1643.59 509.207C1644.49 508.476 1645.82 508.615 1646.55 509.517L1646.55 509.519C1647.28 510.421 1647.14 511.747 1646.24 512.479C1645.34 513.21 1644.01 513.072 1643.28 512.169ZM1622.09 491.257C1621.17 490.538 1621.02 489.215 1621.74 488.302C1622.46 487.39 1623.78 487.233 1624.69 487.953L1624.69 487.955C1625.61 488.674 1625.76 489.998 1625.04 490.91C1624.32 491.822 1623 491.979 1622.09 491.259L1622.09 491.257ZM1654.91 524.894C1653.93 525.52 1652.62 525.234 1652 524.254L1652 524.252C1651.37 523.273 1651.66 521.971 1652.64 521.346C1653.62 520.72 1654.92 521.007 1655.54 521.986L1655.55 521.989C1656.17 522.968 1655.88 524.268 1654.91 524.894ZM1609.88 482.704C1608.9 482.091 1608.59 480.794 1609.2 479.806C1609.82 478.819 1611.11 478.515 1612.1 479.128L1612.1 479.128C1613.09 479.741 1613.4 481.038 1612.78 482.025C1612.17 483.013 1610.87 483.317 1609.89 482.704L1609.88 482.704ZM1662.11 538.204C1661.07 538.715 1659.81 538.284 1659.3 537.24L1659.3 537.238C1658.79 536.195 1659.22 534.934 1660.26 534.423C1661.31 533.912 1662.57 534.343 1663.08 535.386L1663.08 535.389C1663.59 536.433 1663.16 537.693 1662.11 538.204ZM1596.8 475.58C1595.75 475.083 1595.3 473.828 1595.8 472.778C1596.3 471.728 1597.55 471.279 1598.6 471.776L1598.6 471.777C1599.65 472.275 1600.1 473.529 1599.6 474.579C1599.11 475.629 1597.85 476.078 1596.8 475.581L1596.8 475.58ZM1667.78 552.241C1666.68 552.632 1665.48 552.061 1665.09 550.966L1665.09 550.964C1664.7 549.87 1665.27 548.665 1666.36 548.275C1667.46 547.884 1668.66 548.456 1669.05 549.55L1669.05 549.552C1669.44 550.647 1668.87 551.851 1667.78 552.241ZM1583 469.978C1581.9 469.602 1581.31 468.406 1581.69 467.306C1582.06 466.207 1583.26 465.62 1584.36 465.996L1584.36 465.996C1585.46 466.372 1586.05 467.568 1585.67 468.667C1585.3 469.767 1584.1 470.354 1583 469.978L1583 469.978ZM1671.83 566.83C1670.69 567.095 1669.56 566.393 1669.3 565.262V565.259C1669.03 564.128 1669.73 562.996 1670.86 562.731C1672 562.465 1673.13 563.168 1673.39 564.299L1673.39 564.301C1673.66 565.432 1672.96 566.565 1671.83 566.83ZM1568.65 465.962C1567.51 465.712 1566.79 464.59 1567.04 463.455C1567.29 462.32 1568.42 461.602 1569.55 461.852L1569.55 461.853C1570.69 462.103 1571.41 463.225 1571.16 464.36C1570.91 465.495 1569.78 466.212 1568.65 465.962L1568.65 465.962ZM1674.22 581.779C1673.06 581.916 1672.02 581.091 1671.88 579.937V579.934C1671.74 578.781 1672.57 577.734 1673.72 577.597C1674.87 577.46 1675.92 578.284 1676.06 579.438L1676.06 579.44C1676.2 580.594 1675.37 581.642 1674.22 581.779ZM1553.94 463.578C1552.78 463.456 1551.94 462.421 1552.06 461.265C1552.19 460.11 1553.22 459.27 1554.38 459.392L1554.38 459.393C1555.54 459.514 1556.37 460.549 1556.25 461.705C1556.13 462.861 1555.1 463.699 1553.94 463.578L1553.94 463.578ZM1674.93 596.9C1673.77 596.908 1672.82 595.972 1672.81 594.81V594.807C1672.8 593.645 1673.74 592.697 1674.9 592.689C1676.06 592.681 1677.01 593.617 1677.02 594.779V594.782C1677.03 595.944 1676.09 596.892 1674.93 596.9ZM1539.05 462.847C1537.89 462.855 1536.94 461.92 1536.93 460.758C1536.93 459.596 1537.86 458.647 1539.02 458.639L1539.03 458.639C1540.19 458.632 1541.14 459.567 1541.15 460.729C1541.15 461.891 1540.22 462.84 1539.06 462.847L1539.05 462.847ZM1673.95 612.007C1672.8 611.885 1671.96 610.85 1672.08 609.694V609.692C1672.2 608.536 1673.24 607.698 1674.39 607.819C1675.55 607.941 1676.39 608.977 1676.27 610.132L1676.26 610.134C1676.14 611.29 1675.11 612.128 1673.95 612.007ZM1524.18 463.779C1523.03 463.916 1521.98 463.091 1521.84 461.938C1521.71 460.784 1522.53 459.737 1523.68 459.6L1523.69 459.599C1524.84 459.462 1525.89 460.287 1526.02 461.441C1526.16 462.595 1525.34 463.641 1524.18 463.779H1524.18ZM1671.3 626.91C1670.16 626.66 1669.45 625.538 1669.7 624.403L1669.7 624.401C1669.95 623.266 1671.07 622.549 1672.2 622.799C1673.34 623.049 1674.06 624.171 1673.81 625.306V625.308C1673.56 626.443 1672.43 627.16 1671.3 626.91ZM1509.5 466.362C1508.37 466.627 1507.24 465.925 1506.98 464.793C1506.71 463.662 1507.41 462.53 1508.54 462.265L1508.55 462.264C1509.68 461.999 1510.81 462.701 1511.08 463.832C1511.34 464.963 1510.64 466.096 1509.51 466.362L1509.5 466.362ZM1666.99 641.426C1665.89 641.05 1665.3 639.853 1665.68 638.754L1665.68 638.752C1666.06 637.652 1667.25 637.065 1668.35 637.44C1669.45 637.816 1670.04 639.012 1669.66 640.112L1669.66 640.114C1669.29 641.214 1668.09 641.801 1666.99 641.426ZM1495.21 470.571C1494.12 470.961 1492.91 470.391 1492.52 469.297C1492.13 468.202 1492.7 466.998 1493.8 466.608L1493.8 466.607C1494.89 466.217 1496.1 466.787 1496.49 467.882C1496.88 468.976 1496.31 470.18 1495.21 470.57L1495.21 470.571ZM1661.08 655.359C1660.03 654.862 1659.58 653.607 1660.08 652.557L1660.08 652.555C1660.57 651.505 1661.83 651.056 1662.88 651.553C1663.93 652.05 1664.38 653.304 1663.88 654.354L1663.88 654.357C1663.38 655.407 1662.13 655.856 1661.08 655.359ZM1481.48 476.36C1480.44 476.871 1479.18 476.439 1478.67 475.396C1478.16 474.352 1478.59 473.092 1479.63 472.581L1479.63 472.579C1480.68 472.068 1481.94 472.5 1482.45 473.543C1482.96 474.586 1482.53 475.847 1481.49 476.358L1481.48 476.36ZM1653.63 668.538C1652.64 667.925 1652.34 666.628 1652.95 665.64L1652.95 665.638C1653.57 664.65 1654.86 664.346 1655.85 664.959C1656.84 665.571 1657.14 666.868 1656.53 667.856L1656.53 667.858C1655.92 668.845 1654.62 669.15 1653.63 668.538ZM1468.5 483.659C1467.52 484.285 1466.22 483.999 1465.59 483.019C1464.97 482.04 1465.25 480.739 1466.23 480.113L1466.23 480.113C1467.21 479.487 1468.51 479.773 1469.14 480.752C1469.77 481.731 1469.48 483.033 1468.5 483.658L1468.5 483.659ZM1644.75 680.797C1643.84 680.077 1643.68 678.754 1644.4 677.842L1644.4 677.84C1645.12 676.927 1646.44 676.771 1647.36 677.49C1648.27 678.21 1648.42 679.533 1647.7 680.446L1647.7 680.448C1646.98 681.36 1645.66 681.516 1644.75 680.797ZM1453.45 492.069C1452.72 491.166 1452.86 489.84 1453.76 489.108L1453.76 489.107C1454.67 488.375 1455.99 488.514 1456.72 489.416C1457.46 490.319 1457.32 491.644 1456.41 492.376L1456.41 492.378C1455.51 493.11 1454.18 492.971 1453.45 492.069ZM1637.53 691.972L1637.53 691.973C1636.71 692.8 1635.38 692.81 1634.55 691.993C1633.72 691.177 1633.71 689.844 1634.53 689.017L1634.53 689.016C1635.35 688.189 1636.68 688.18 1637.51 688.996C1638.34 689.812 1638.34 691.145 1637.53 691.972ZM1445.37 502.395L1445.37 502.396C1444.56 503.223 1443.22 503.232 1442.4 502.416C1441.57 501.6 1441.56 500.267 1442.38 499.44L1442.38 499.439C1443.19 498.611 1444.53 498.602 1445.35 499.418C1446.18 500.235 1446.19 501.567 1445.37 502.395ZM1623.18 701.995C1622.45 701.093 1622.59 699.767 1623.49 699.036L1623.49 699.034C1624.39 698.302 1625.72 698.441 1626.45 699.343C1627.18 700.246 1627.04 701.572 1626.14 702.303L1626.14 702.305C1625.24 703.036 1623.91 702.898 1623.18 701.995ZM1432.55 513.922C1431.64 513.202 1431.48 511.879 1432.2 510.966L1432.2 510.964C1432.92 510.052 1434.24 509.895 1435.16 510.615C1436.07 511.334 1436.22 512.658 1435.51 513.57L1435.5 513.572C1434.78 514.484 1433.46 514.641 1432.55 513.922ZM1613.67 711.3C1612.69 711.925 1611.39 711.639 1610.76 710.66C1610.14 709.681 1610.42 708.379 1611.4 707.753L1611.41 707.753C1612.38 707.127 1613.69 707.413 1614.31 708.392C1614.94 709.372 1614.65 710.673 1613.67 711.298L1613.67 711.3ZM1424.05 526.453C1423.06 525.84 1422.76 524.543 1423.37 523.556L1423.37 523.554C1423.99 522.566 1425.28 522.262 1426.27 522.874C1427.26 523.487 1427.56 524.784 1426.95 525.772L1426.95 525.774C1426.34 526.762 1425.04 527.065 1424.05 526.453ZM1600.27 718.832C1599.22 719.344 1597.96 718.912 1597.45 717.869C1596.94 716.825 1597.37 715.565 1598.42 715.054L1598.42 715.052C1599.46 714.541 1600.72 714.973 1601.23 716.016C1601.75 717.06 1601.31 718.32 1600.27 718.831L1600.27 718.832ZM1417.02 539.859C1415.97 539.362 1415.52 538.108 1416.02 537.057L1416.02 537.055C1416.52 536.005 1417.77 535.556 1418.82 536.053C1419.88 536.55 1420.32 537.804 1419.83 538.855L1419.83 538.858C1419.33 539.908 1418.07 540.356 1417.02 539.859ZM1586.11 724.805C1585.01 725.195 1583.81 724.625 1583.42 723.53C1583.03 722.436 1583.6 721.232 1584.69 720.841L1584.69 720.841C1585.79 720.45 1586.99 721.021 1587.38 722.115C1587.77 723.21 1587.2 724.413 1586.11 724.804L1586.11 724.805ZM1411.55 553.971C1410.45 553.596 1409.87 552.399 1410.24 551.3L1410.24 551.298C1410.62 550.198 1411.81 549.611 1412.91 549.986C1414.01 550.362 1414.6 551.558 1414.22 552.658L1414.22 552.66C1413.85 553.76 1412.65 554.347 1411.55 553.971ZM1571.36 729.148C1570.23 729.413 1569.09 728.711 1568.83 727.58C1568.56 726.448 1569.27 725.316 1570.4 725.051L1570.4 725.05C1571.53 724.785 1572.66 725.487 1572.93 726.619C1573.19 727.75 1572.49 728.882 1571.36 729.148H1571.36ZM1407.7 568.614C1406.57 568.364 1405.85 567.241 1406.1 566.106L1406.1 566.104C1406.35 564.969 1407.47 564.252 1408.61 564.502C1409.74 564.751 1410.46 565.874 1410.21 567.008L1410.21 567.011C1409.96 568.145 1408.83 568.864 1407.7 568.614ZM1556.22 731.812C1555.06 731.95 1554.02 731.125 1553.88 729.971C1553.74 728.817 1554.57 727.77 1555.72 727.633H1555.72C1556.88 727.496 1557.92 728.32 1558.06 729.474C1558.2 730.628 1557.37 731.675 1556.22 731.812L1556.22 731.812ZM1405.51 583.593C1404.36 583.471 1403.52 582.435 1403.64 581.28L1403.64 581.278C1403.76 580.122 1404.8 579.283 1405.95 579.405C1407.11 579.527 1407.94 580.562 1407.82 581.717V581.72C1407.7 582.876 1406.67 583.714 1405.51 583.593ZM1540.88 732.772C1539.71 732.78 1538.77 731.845 1538.76 730.683C1538.75 729.521 1539.69 728.572 1540.85 728.564H1540.85C1542.01 728.557 1542.96 729.492 1542.97 730.654C1542.98 731.816 1542.04 732.764 1540.88 732.772L1540.88 732.772ZM1405 598.723C1403.84 598.73 1402.89 597.795 1402.89 596.633V596.63C1402.88 595.468 1403.81 594.52 1404.97 594.512C1406.14 594.504 1407.09 595.44 1407.09 596.602V596.604C1407.1 597.766 1406.17 598.715 1405 598.723ZM1525.52 732.019C1524.37 731.897 1523.53 730.862 1523.65 729.707C1523.77 728.551 1524.81 727.713 1525.96 727.834H1525.97C1527.12 727.956 1527.96 728.991 1527.84 730.147C1527.72 731.302 1526.68 732.141 1525.53 732.02L1525.52 732.019ZM1406.18 613.815C1405.03 613.952 1403.98 613.128 1403.85 611.974L1403.84 611.972C1403.71 610.818 1404.53 609.771 1405.69 609.634C1406.84 609.497 1407.89 610.321 1408.02 611.475V611.477C1408.16 612.631 1407.34 613.678 1406.18 613.815ZM1510.35 729.56C1509.21 729.31 1508.5 728.187 1508.75 727.052C1509 725.917 1510.12 725.2 1511.25 725.45L1511.26 725.45C1512.39 725.7 1513.11 726.823 1512.86 727.958C1512.61 729.092 1511.49 729.809 1510.35 729.56H1510.35ZM1409.04 628.681C1407.91 628.946 1406.78 628.245 1406.51 627.113V627.111C1406.24 625.979 1406.95 624.847 1408.08 624.582C1409.21 624.316 1410.34 625.019 1410.61 626.151L1410.61 626.153C1410.87 627.284 1410.17 628.416 1409.04 628.681ZM1495.54 725.415C1494.44 725.04 1493.86 723.844 1494.23 722.744C1494.61 721.645 1495.8 721.058 1496.9 721.434L1496.91 721.434C1498.01 721.81 1498.59 723.006 1498.22 724.105C1497.84 725.205 1496.65 725.792 1495.55 725.416L1495.54 725.415ZM1413.54 643.137C1412.45 643.527 1411.24 642.956 1410.85 641.862L1410.85 641.86C1410.46 640.765 1411.03 639.561 1412.13 639.17C1413.22 638.78 1414.43 639.351 1414.82 640.446L1414.82 640.448C1415.21 641.542 1414.64 642.747 1413.54 643.137ZM1481.3 719.634C1480.25 719.137 1479.8 717.883 1480.3 716.833C1480.8 715.782 1482.05 715.334 1483.1 715.831L1483.1 715.832C1484.15 716.33 1484.6 717.584 1484.1 718.634C1483.61 719.684 1482.35 720.133 1481.3 719.636L1481.3 719.634ZM1419.64 656.989C1418.6 657.5 1417.34 657.069 1416.83 656.025L1416.83 656.023C1416.31 654.979 1416.75 653.719 1417.79 653.208C1418.83 652.696 1420.09 653.128 1420.6 654.171L1420.61 654.174C1421.12 655.218 1420.68 656.478 1419.64 656.989ZM1467.8 712.283C1466.81 711.671 1466.51 710.374 1467.12 709.386C1467.73 708.399 1469.03 708.095 1470.02 708.707L1470.02 708.708C1471.01 709.32 1471.31 710.618 1470.7 711.606C1470.09 712.593 1468.79 712.897 1467.8 712.284L1467.8 712.283ZM1427.27 670.066C1426.29 670.692 1424.98 670.405 1424.36 669.426L1424.36 669.424C1423.73 668.444 1424.02 667.143 1425 666.518C1425.98 665.892 1427.28 666.178 1427.9 667.158L1427.9 667.16C1428.53 668.139 1428.24 669.441 1427.27 670.066ZM1455.21 703.457C1454.3 702.737 1454.14 701.414 1454.86 700.502C1455.58 699.589 1456.9 699.433 1457.82 700.152L1457.82 700.154C1458.73 700.874 1458.89 702.197 1458.17 703.11C1457.45 704.022 1456.12 704.178 1455.21 703.459L1455.21 703.457ZM1433.35 681.894L1433.35 681.893C1432.62 680.99 1432.76 679.665 1433.66 678.933C1434.56 678.202 1435.89 678.34 1436.62 679.243L1436.62 679.245C1437.36 680.147 1437.22 681.473 1436.31 682.204C1435.41 682.936 1434.09 682.797 1433.35 681.894ZM1443.68 693.281C1442.86 692.465 1442.85 691.132 1443.66 690.305C1444.48 689.477 1445.81 689.468 1446.64 690.285L1446.64 690.286C1447.47 691.102 1447.48 692.435 1446.66 693.262C1445.85 694.089 1444.51 694.098 1443.69 693.282L1443.68 693.281Z" fill="#777777"/>
<path d="M1452.54 701.288C1451.65 700.547 1451.52 699.221 1452.26 698.326C1453 697.431 1454.33 697.306 1455.23 698.046C1469.75 710.071 1486.67 718.867 1504.85 723.848C1523.04 728.829 1542.07 729.882 1560.7 726.938C1561.85 726.757 1562.92 727.54 1563.11 728.688C1563.29 729.835 1562.5 730.913 1561.36 731.094C1542.14 734.132 1522.5 733.045 1503.74 727.906C1484.98 722.767 1467.53 713.693 1452.54 701.288Z" fill="#89F574"/>
<path d="M1720.83 411.93C1720 411.113 1719.99 409.781 1720.81 408.953C1721.62 408.126 1722.96 408.118 1723.78 408.934L1723.79 408.937C1724.61 409.753 1724.62 411.084 1723.81 411.912C1722.99 412.739 1721.66 412.748 1720.83 411.932L1720.83 411.93ZM1730.84 422.365L1730.83 422.362C1730.05 421.501 1730.12 420.171 1730.98 419.39C1731.84 418.609 1733.17 418.673 1733.95 419.534L1733.95 419.536C1734.73 420.397 1734.67 421.729 1733.81 422.51C1732.95 423.29 1731.62 423.225 1730.84 422.365ZM1710.26 402.064C1709.39 401.295 1709.31 399.965 1710.08 399.094C1710.85 398.223 1712.18 398.14 1713.05 398.909L1713.05 398.912C1713.92 399.681 1714 401.012 1713.23 401.883C1712.46 402.754 1711.13 402.836 1710.26 402.067L1710.26 402.064ZM1740.25 433.335L1740.25 433.331C1739.51 432.428 1739.65 431.104 1740.56 430.372C1741.46 429.641 1742.78 429.779 1743.52 430.682L1743.52 430.685C1744.25 431.588 1744.11 432.912 1743.21 433.644C1742.3 434.376 1740.98 434.237 1740.25 433.335ZM1699.16 392.803C1698.25 392.083 1698.1 390.76 1698.82 389.847C1699.53 388.935 1700.86 388.779 1701.77 389.498L1701.77 389.5C1702.69 390.22 1702.84 391.543 1702.12 392.455C1701.4 393.368 1700.08 393.524 1699.17 392.805L1699.16 392.803ZM1751.97 445.287C1751.02 445.967 1749.71 445.754 1749.03 444.812L1749.03 444.808C1748.35 443.866 1748.56 442.551 1749.5 441.871C1750.44 441.191 1751.76 441.404 1752.44 442.346L1752.44 442.35C1753.12 443.292 1752.91 444.607 1751.97 445.287ZM1687.57 384.178C1686.62 383.511 1686.39 382.199 1687.06 381.247C1687.72 380.296 1689.03 380.065 1689.99 380.732L1689.99 380.734C1690.94 381.402 1691.17 382.714 1690.5 383.665C1689.84 384.616 1688.53 384.847 1687.57 384.18L1687.57 384.178ZM1760.05 457.402C1759.08 458.028 1757.77 457.741 1757.15 456.762L1757.15 456.759C1756.52 455.779 1756.81 454.478 1757.79 453.853C1758.77 453.227 1760.07 453.513 1760.69 454.492L1760.69 454.497C1761.32 455.476 1761.03 456.776 1760.05 457.402ZM1675.51 376.22C1674.52 375.607 1674.22 374.31 1674.83 373.322C1675.44 372.335 1676.74 372.031 1677.73 372.644L1677.73 372.646C1678.72 373.258 1679.02 374.555 1678.41 375.543C1677.8 376.53 1676.5 376.834 1675.51 376.222L1675.51 376.22ZM1767.45 469.953C1766.43 470.522 1765.15 470.163 1764.58 469.15L1764.58 469.147C1764.01 468.134 1764.37 466.851 1765.38 466.282C1766.39 465.712 1767.68 466.072 1768.25 467.085L1768.25 467.088C1768.82 468.101 1768.46 469.384 1767.45 469.953ZM1663.02 368.956C1662 368.4 1661.63 367.122 1662.18 366.102C1662.74 365.081 1664.02 364.705 1665.04 365.26L1665.04 365.263C1666.06 365.818 1666.44 367.096 1665.88 368.116C1665.33 369.137 1664.05 369.514 1663.03 368.958L1663.02 368.956ZM1774.11 482.901C1773.07 483.412 1771.81 482.981 1771.3 481.937L1771.3 481.934C1770.79 480.89 1771.22 479.63 1772.26 479.119C1773.3 478.607 1774.57 479.038 1775.08 480.082L1775.08 480.086C1775.59 481.129 1775.16 482.39 1774.11 482.901ZM1650.15 362.41C1649.1 361.912 1648.65 360.658 1649.15 359.608C1649.64 358.558 1650.9 358.109 1651.95 358.606L1651.95 358.608C1653 359.105 1653.45 360.36 1652.95 361.41C1652.46 362.46 1651.2 362.909 1650.15 362.412L1650.15 362.41ZM1780.04 496.204C1778.97 496.656 1777.74 496.154 1777.29 495.083L1777.28 495.079C1776.83 494.009 1777.33 492.775 1778.41 492.323C1779.48 491.872 1780.71 492.373 1781.16 493.444L1781.16 493.448C1781.61 494.518 1781.11 495.753 1780.04 496.204ZM1636.92 356.602C1635.85 356.165 1635.33 354.938 1635.76 353.861C1636.2 352.785 1637.43 352.266 1638.5 352.703L1638.51 352.705C1639.58 353.142 1640.1 354.369 1639.67 355.446C1639.23 356.522 1638 357.041 1636.93 356.604L1636.92 356.602ZM1785.21 509.821C1784.11 510.211 1782.91 509.64 1782.52 508.546L1782.52 508.542C1782.13 507.448 1782.7 506.244 1783.79 505.854C1784.89 505.463 1786.09 506.034 1786.48 507.128L1786.48 507.132C1786.87 508.227 1786.3 509.43 1785.21 509.821ZM1623.39 351.55C1622.29 351.174 1621.7 349.978 1622.08 348.879C1622.45 347.779 1623.65 347.192 1624.75 347.568L1624.75 347.569C1625.85 347.944 1626.44 349.141 1626.06 350.24C1625.69 351.34 1624.49 351.927 1623.39 351.551L1623.39 351.55ZM1789.6 523.712C1788.49 524.04 1787.32 523.402 1786.99 522.288L1786.99 522.284C1786.66 521.17 1787.3 520 1788.41 519.671C1789.53 519.343 1790.7 519.98 1791.03 521.095L1791.03 521.099C1791.35 522.214 1790.72 523.384 1789.6 523.712ZM1609.59 347.266C1608.47 346.953 1607.82 345.792 1608.13 344.673C1608.44 343.554 1609.6 342.9 1610.72 343.213L1610.73 343.215C1611.85 343.528 1612.5 344.689 1612.19 345.808C1611.87 346.927 1610.71 347.581 1609.59 347.268L1609.59 347.266ZM1793.21 537.826C1792.08 538.091 1790.95 537.389 1790.68 536.258L1790.68 536.254C1790.41 535.123 1791.12 533.99 1792.25 533.724C1793.38 533.459 1794.51 534.162 1794.78 535.293L1794.78 535.297C1795.04 536.428 1794.34 537.561 1793.21 537.826ZM1595.57 343.765C1594.44 343.515 1593.72 342.392 1593.97 341.258C1594.22 340.123 1595.34 339.405 1596.48 339.655L1596.48 339.656C1597.61 339.906 1598.33 341.028 1598.08 342.163C1597.83 343.298 1596.71 344.016 1595.57 343.766L1595.57 343.765ZM1796.02 552.119C1794.87 552.321 1793.78 551.556 1793.58 550.411V550.407C1793.38 549.263 1794.14 548.172 1795.29 547.971C1796.43 547.769 1797.52 548.534 1797.73 549.678L1797.73 549.683C1797.93 550.827 1797.16 551.918 1796.02 552.119ZM1581.38 341.055C1580.23 340.869 1579.45 339.788 1579.64 338.641C1579.82 337.494 1580.9 336.715 1582.05 336.901L1582.06 336.901C1583.2 337.087 1583.98 338.168 1583.8 339.315C1583.61 340.462 1582.53 341.241 1581.38 341.055L1581.38 341.055ZM1798.03 566.547C1796.87 566.684 1795.82 565.859 1795.69 564.705L1795.69 564.702C1795.55 563.548 1796.37 562.501 1797.53 562.364C1798.68 562.227 1799.73 563.05 1799.87 564.204L1799.87 564.209C1800 565.363 1799.18 566.409 1798.03 566.547ZM1567.06 339.143C1565.9 339.021 1565.06 337.985 1565.18 336.829C1565.31 335.674 1566.34 334.836 1567.5 334.958L1567.5 334.958C1568.66 335.079 1569.5 336.115 1569.37 337.271C1569.25 338.426 1568.22 339.265 1567.06 339.143L1567.06 339.143ZM1799.22 581.063C1798.06 581.135 1797.06 580.254 1796.99 579.095V579.09C1796.92 577.931 1797.8 576.932 1798.96 576.859C1800.12 576.786 1801.12 577.668 1801.19 578.827L1801.19 578.832C1801.26 579.992 1800.38 580.99 1799.22 581.063ZM1552.65 338.032C1551.49 337.975 1550.6 336.988 1550.65 335.828C1550.71 334.667 1551.7 333.773 1552.86 333.829L1552.86 333.829C1554.02 333.886 1554.92 334.873 1554.86 336.034C1554.8 337.195 1553.82 338.089 1552.66 338.032L1552.65 338.032ZM1799.61 595.625C1798.45 595.633 1797.5 594.697 1797.49 593.535V593.531C1797.48 592.369 1798.42 591.421 1799.58 591.413C1800.74 591.405 1801.69 592.341 1801.7 593.503V593.507C1801.71 594.669 1800.77 595.617 1799.61 595.625ZM1538.21 337.728C1537.04 337.736 1536.1 336.8 1536.09 335.638C1536.08 334.476 1537.02 333.528 1538.18 333.52L1538.18 333.52C1539.34 333.512 1540.29 334.448 1540.3 335.61C1540.31 336.771 1539.37 337.72 1538.21 337.728L1538.21 337.728ZM1799.18 610.185C1798.02 610.128 1797.13 609.141 1797.19 607.98V607.976C1797.24 606.816 1798.23 605.921 1799.39 605.978C1800.55 606.035 1801.45 607.022 1801.39 608.183L1801.39 608.187C1801.33 609.347 1800.35 610.242 1799.18 610.185ZM1523.77 338.227C1522.61 338.3 1521.61 337.419 1521.53 336.259C1521.46 335.099 1522.34 334.1 1523.5 334.028H1523.51C1524.67 333.955 1525.67 334.836 1525.74 335.996C1525.81 337.156 1524.93 338.155 1523.77 338.227L1523.77 338.227ZM1797.95 624.699C1796.79 624.577 1795.95 623.542 1796.08 622.386V622.382C1796.2 621.227 1797.23 620.388 1798.39 620.509C1799.55 620.631 1800.38 621.667 1800.26 622.823L1800.26 622.826C1800.14 623.982 1799.1 624.82 1797.95 624.699ZM1509.38 339.533C1508.22 339.67 1507.18 338.845 1507.04 337.692C1506.9 336.538 1507.73 335.491 1508.88 335.354L1508.88 335.353C1510.04 335.216 1511.08 336.04 1511.22 337.194C1511.36 338.348 1510.53 339.395 1509.38 339.532L1509.38 339.533ZM1795.9 639.12C1794.76 638.934 1793.98 637.854 1794.16 636.707V636.703C1794.35 635.556 1795.43 634.777 1796.58 634.963C1797.72 635.149 1798.5 636.229 1798.32 637.376L1798.32 637.38C1798.13 638.528 1797.05 639.306 1795.9 639.12ZM1495.08 341.637C1493.94 341.839 1492.85 341.075 1492.65 339.93C1492.44 338.786 1493.21 337.695 1494.35 337.494L1494.36 337.493C1495.5 337.292 1496.59 338.056 1496.79 339.201C1497 340.345 1496.23 341.436 1495.09 341.637L1495.08 341.637ZM1793.06 653.406C1791.92 653.156 1791.2 652.034 1791.45 650.899L1791.45 650.895C1791.7 649.76 1792.83 649.043 1793.96 649.293C1795.1 649.543 1795.81 650.665 1795.56 651.8L1795.56 651.804C1795.31 652.939 1794.19 653.656 1793.06 653.406ZM1480.93 344.54C1479.8 344.805 1478.66 344.102 1478.4 342.971C1478.13 341.84 1478.84 340.708 1479.97 340.443L1479.97 340.441C1481.1 340.176 1482.24 340.879 1482.5 342.01C1482.77 343.142 1482.06 344.273 1480.93 344.539L1480.93 344.54ZM1789.41 667.511C1788.29 667.198 1787.64 666.037 1787.95 664.918L1787.95 664.914C1788.27 663.794 1789.43 663.141 1790.55 663.454C1791.67 663.767 1792.32 664.928 1792.01 666.047L1792 666.051C1791.69 667.17 1790.53 667.824 1789.41 667.511ZM1466.96 348.231C1465.84 348.559 1464.67 347.921 1464.35 346.807C1464.02 345.692 1464.66 344.522 1465.77 344.194L1465.77 344.192C1466.89 343.864 1468.06 344.502 1468.39 345.616C1468.72 346.731 1468.08 347.901 1466.96 348.229L1466.96 348.231ZM1784.98 681.389C1783.88 681.014 1783.29 679.818 1783.67 678.718L1783.67 678.714C1784.04 677.615 1785.24 677.027 1786.34 677.403C1787.44 677.778 1788.03 678.975 1787.65 680.075L1787.65 680.078C1787.27 681.178 1786.08 681.765 1784.98 681.389ZM1453.22 352.7C1452.12 353.09 1450.92 352.52 1450.53 351.426C1450.14 350.331 1450.71 349.127 1451.8 348.736L1451.81 348.736C1452.9 348.345 1454.11 348.916 1454.5 350.01C1454.89 351.105 1454.32 352.308 1453.22 352.699L1453.22 352.7ZM1779.77 694.992C1778.7 694.555 1778.18 693.327 1778.62 692.251L1778.62 692.246C1779.05 691.17 1780.28 690.651 1781.36 691.088C1782.43 691.525 1782.95 692.752 1782.52 693.829L1782.51 693.833C1782.08 694.909 1780.85 695.429 1779.77 694.992ZM1439.75 357.935C1438.68 358.386 1437.45 357.885 1437 356.814C1436.55 355.744 1437.05 354.509 1438.12 354.058L1438.12 354.056C1439.19 353.604 1440.43 354.107 1440.88 355.177C1441.33 356.248 1440.83 357.482 1439.76 357.934L1439.75 357.935ZM1773.81 708.278C1772.76 707.78 1772.31 706.526 1772.81 705.476L1772.81 705.472C1773.31 704.422 1774.56 703.973 1775.61 704.47C1776.66 704.967 1777.11 706.222 1776.61 707.273L1776.61 707.276C1776.11 708.326 1774.86 708.774 1773.81 708.278ZM1426.61 363.921C1425.57 364.432 1424.31 364.001 1423.79 362.958C1423.28 361.914 1423.71 360.653 1424.76 360.142L1424.76 360.14C1425.8 359.629 1427.06 360.061 1427.58 361.104C1428.09 362.148 1427.66 363.408 1426.61 363.919L1426.61 363.921ZM1767.1 721.206C1766.08 720.651 1765.71 719.373 1766.26 718.353L1766.26 718.349C1766.82 717.328 1768.1 716.951 1769.12 717.507C1770.14 718.062 1770.51 719.34 1769.96 720.361L1769.96 720.365C1769.4 721.386 1768.12 721.762 1767.1 721.206ZM1413.82 370.641C1412.81 371.21 1411.53 370.851 1410.96 369.838C1410.39 368.825 1410.75 367.542 1411.76 366.973L1411.76 366.97C1412.78 366.401 1414.06 366.76 1414.63 367.773C1415.2 368.786 1414.84 370.069 1413.82 370.639L1413.82 370.641ZM1759.68 733.737C1758.69 733.124 1758.39 731.827 1759 730.84L1759 730.836C1759.61 729.849 1760.91 729.544 1761.9 730.157C1762.88 730.769 1763.19 732.067 1762.58 733.054L1762.57 733.058C1761.96 734.045 1760.66 734.349 1759.68 733.737ZM1401.43 378.073C1400.45 378.698 1399.15 378.412 1398.53 377.433C1397.9 376.454 1398.19 375.153 1399.17 374.527L1399.17 374.525C1400.15 373.899 1401.45 374.185 1402.08 375.164C1402.7 376.143 1402.42 377.445 1401.44 378.071L1401.43 378.073ZM1751.55 745.829C1750.6 745.162 1750.37 743.85 1751.04 742.899L1751.04 742.896C1751.71 741.944 1753.02 741.714 1753.97 742.381C1754.92 743.048 1755.15 744.36 1754.49 745.312L1754.48 745.314C1753.82 746.266 1752.51 746.497 1751.55 745.829ZM1389.48 386.193C1388.54 386.872 1387.23 386.66 1386.55 385.718C1385.87 384.775 1386.08 383.46 1387.02 382.78L1387.02 382.778C1387.97 382.098 1389.28 382.311 1389.96 383.253C1390.64 384.196 1390.43 385.511 1389.49 386.191L1389.48 386.193ZM1742.76 757.448C1741.85 756.728 1741.69 755.405 1742.41 754.493L1742.42 754.49C1743.14 753.577 1744.46 753.421 1745.37 754.14C1746.28 754.859 1746.44 756.182 1745.72 757.095L1745.72 757.099C1745 758.011 1743.68 758.167 1742.76 757.448ZM1375.05 394.664C1374.32 393.761 1374.45 392.436 1375.36 391.704L1375.36 391.702C1376.26 390.97 1377.59 391.109 1378.32 392.012C1379.05 392.914 1378.91 394.239 1378.01 394.971L1378.01 394.973C1377.1 395.705 1375.78 395.567 1375.05 394.664ZM1733.34 768.559C1732.47 767.79 1732.38 766.459 1733.15 765.588L1733.15 765.585C1733.92 764.714 1735.25 764.632 1736.13 765.402C1737 766.171 1737.08 767.5 1736.31 768.371L1736.31 768.374C1735.54 769.245 1734.21 769.328 1733.34 768.559ZM1364.06 404.241C1363.28 403.38 1363.35 402.049 1364.21 401.268L1364.21 401.265C1365.07 400.484 1366.4 400.549 1367.18 401.41C1367.97 402.27 1367.9 403.601 1367.04 404.382L1367.04 404.384C1366.18 405.165 1364.85 405.101 1364.06 404.241ZM1726.29 779.108L1726.28 779.111C1725.47 779.938 1724.13 779.947 1723.31 779.131C1722.48 778.315 1722.47 776.982 1723.29 776.155L1723.29 776.152C1724.11 775.325 1725.44 775.316 1726.27 776.132C1727.09 776.948 1727.1 778.281 1726.29 779.108ZM1356.61 414.389L1356.6 414.392C1355.79 415.219 1354.46 415.227 1353.63 414.411C1352.8 413.595 1352.79 412.264 1353.61 411.436L1353.61 411.434C1354.43 410.607 1355.76 410.597 1356.59 411.413C1357.41 412.229 1357.42 413.562 1356.61 414.389ZM1712.71 789.135C1711.93 788.274 1711.99 786.943 1712.85 786.162L1712.86 786.159C1713.72 785.378 1715.05 785.444 1715.83 786.304C1716.61 787.165 1716.55 788.495 1715.69 789.276L1715.68 789.279C1714.82 790.059 1713.49 789.995 1712.71 789.135ZM1343.77 425.143C1342.9 424.374 1342.82 423.043 1343.58 422.172L1343.59 422.17C1344.36 421.299 1345.69 421.217 1346.56 421.986C1347.43 422.755 1347.51 424.084 1346.74 424.955L1346.74 424.958C1345.97 425.829 1344.64 425.912 1343.77 425.143ZM1701.57 798.532C1700.84 797.629 1700.98 796.305 1701.89 795.573L1701.89 795.57C1702.79 794.839 1704.11 794.978 1704.85 795.88C1705.58 796.783 1705.44 798.108 1704.54 798.84L1704.53 798.842C1703.63 799.574 1702.31 799.435 1701.57 798.532ZM1334.52 436.404C1333.61 435.684 1333.45 434.362 1334.17 433.449L1334.17 433.446C1334.89 432.533 1336.22 432.377 1337.13 433.096C1338.04 433.816 1338.2 435.138 1337.48 436.051L1337.48 436.054C1336.76 436.967 1335.44 437.123 1334.52 436.404ZM1325.92 448.164C1324.97 447.497 1324.74 446.185 1325.41 445.233L1325.41 445.23C1326.08 444.278 1327.39 444.048 1328.34 444.715C1329.29 445.382 1329.52 446.694 1328.85 447.645L1328.85 447.649C1328.19 448.6 1326.87 448.831 1325.92 448.164ZM1692.87 807.767C1691.93 808.446 1690.61 808.234 1689.93 807.291C1689.25 806.349 1689.47 805.034 1690.41 804.354L1690.41 804.351C1691.35 803.671 1692.67 803.884 1693.35 804.827C1694.03 805.769 1693.82 807.084 1692.87 807.764L1692.87 807.767ZM1680.72 816.02C1679.74 816.646 1678.44 816.359 1677.82 815.38C1677.19 814.4 1677.48 813.099 1678.46 812.473L1678.46 812.471C1679.44 811.846 1680.74 812.132 1681.37 813.111C1681.99 814.09 1681.71 815.391 1680.73 816.017L1680.72 816.02ZM1318 460.387C1317.01 459.774 1316.71 458.478 1317.32 457.49L1317.32 457.486C1317.93 456.499 1319.23 456.195 1320.22 456.807C1321.21 457.42 1321.51 458.717 1320.9 459.704L1320.9 459.708C1320.28 460.695 1318.99 460.999 1318 460.387ZM1668.13 823.573C1667.12 824.143 1665.84 823.783 1665.27 822.77C1664.7 821.757 1665.06 820.475 1666.07 819.905L1666.07 819.903C1667.09 819.334 1668.37 819.694 1668.94 820.706C1669.51 821.719 1669.15 823.003 1668.13 823.572L1668.13 823.573ZM1310.78 473.037C1309.76 472.481 1309.38 471.203 1309.94 470.183L1309.94 470.179C1310.49 469.159 1311.77 468.782 1312.79 469.338C1313.81 469.893 1314.19 471.171 1313.63 472.192L1313.63 472.195C1313.08 473.216 1311.8 473.592 1310.78 473.037ZM1655.13 830.404C1654.09 830.915 1652.83 830.483 1652.32 829.439C1651.81 828.396 1652.24 827.136 1653.28 826.624L1653.29 826.623C1654.33 826.112 1655.59 826.543 1656.1 827.587C1656.61 828.63 1656.18 829.89 1655.14 830.402L1655.13 830.404ZM1304.28 486.073C1303.23 485.576 1302.78 484.322 1303.28 483.272L1303.28 483.267C1303.78 482.217 1305.04 481.77 1306.09 482.267C1307.14 482.764 1307.58 484.018 1307.09 485.068L1307.09 485.072C1306.59 486.122 1305.33 486.57 1304.28 486.073ZM1641.77 836.488C1640.7 836.939 1639.47 836.437 1639.01 835.366C1638.56 834.296 1639.07 833.061 1640.14 832.61L1640.14 832.609C1641.21 832.157 1642.44 832.66 1642.9 833.73C1643.35 834.801 1642.85 836.034 1641.77 836.486L1641.77 836.488ZM1298.54 499.456C1297.46 499.019 1296.94 497.791 1297.38 496.714L1297.38 496.711C1297.82 495.634 1299.04 495.116 1300.12 495.553C1301.2 495.99 1301.72 497.216 1301.28 498.293L1301.28 498.297C1300.84 499.374 1299.61 499.893 1298.54 499.456ZM1628.09 841.808C1626.99 842.199 1625.79 841.628 1625.4 840.533C1625.01 839.439 1625.58 838.235 1626.67 837.845L1626.68 837.844C1627.77 837.453 1628.98 838.024 1629.37 839.118C1629.76 840.213 1629.19 841.417 1628.09 841.807L1628.09 841.808ZM1293.55 513.141C1292.45 512.765 1291.87 511.569 1292.24 510.47L1292.24 510.465C1292.62 509.366 1293.82 508.779 1294.92 509.155C1296.02 509.53 1296.6 510.726 1296.23 511.826L1296.23 511.829C1295.85 512.929 1294.65 513.516 1293.55 513.141ZM1614.12 846.351C1613.01 846.679 1611.84 846.042 1611.51 844.928C1611.18 843.813 1611.82 842.643 1612.93 842.315L1612.94 842.314C1614.05 841.986 1615.22 842.623 1615.55 843.738C1615.88 844.853 1615.24 846.022 1614.12 846.35L1614.12 846.351ZM1289.35 527.09C1288.23 526.777 1287.58 525.615 1287.89 524.496L1287.89 524.492C1288.2 523.373 1289.36 522.72 1290.48 523.034C1291.6 523.347 1292.26 524.508 1291.94 525.627L1291.94 525.631C1291.63 526.75 1290.47 527.403 1289.35 527.09ZM1599.92 850.102C1598.79 850.367 1597.66 849.665 1597.39 848.534C1597.13 847.402 1597.83 846.27 1598.96 846.005L1598.97 846.005C1600.1 845.74 1601.23 846.441 1601.49 847.572C1601.76 848.704 1601.06 849.836 1599.93 850.102L1599.92 850.102ZM1285.93 541.251C1284.8 541.001 1284.08 539.879 1284.33 538.744L1284.33 538.74C1284.58 537.605 1285.7 536.887 1286.84 537.137C1287.97 537.387 1288.69 538.511 1288.44 539.645L1288.44 539.649C1288.19 540.784 1287.07 541.501 1285.93 541.251ZM1585.54 853.051C1584.39 853.253 1583.3 852.488 1583.1 851.343C1582.9 850.199 1583.66 849.107 1584.81 848.906H1584.81C1585.96 848.705 1587.05 849.469 1587.25 850.613C1587.45 851.758 1586.69 852.848 1585.54 853.05L1585.54 853.051ZM1283.32 555.581C1282.17 555.395 1281.39 554.315 1281.58 553.168L1281.58 553.163C1281.76 552.016 1282.84 551.237 1283.99 551.423C1285.14 551.609 1285.92 552.69 1285.73 553.837L1285.73 553.841C1285.54 554.988 1284.46 555.767 1283.32 555.581ZM1571.01 855.191C1569.86 855.328 1568.81 854.503 1568.67 853.35C1568.54 852.196 1569.36 851.149 1570.51 851.012H1570.52C1571.67 850.875 1572.72 851.698 1572.86 852.852C1572.99 854.006 1572.17 855.053 1571.01 855.19L1571.01 855.191ZM1281.5 570.034C1280.35 569.913 1279.51 568.877 1279.63 567.722L1279.63 567.717C1279.75 566.562 1280.79 565.724 1281.95 565.845C1283.1 565.967 1283.94 567.003 1283.82 568.158L1283.82 568.162C1283.7 569.318 1282.66 570.156 1281.5 570.034ZM1556.39 856.517C1555.23 856.589 1554.23 855.707 1554.16 854.548C1554.08 853.388 1554.96 852.389 1556.12 852.316H1556.13C1557.29 852.244 1558.29 853.125 1558.36 854.284C1558.43 855.444 1557.55 856.443 1556.39 856.516L1556.39 856.517ZM1280.5 584.565C1279.34 584.508 1278.45 583.522 1278.5 582.362L1278.5 582.357C1278.56 581.196 1279.55 580.302 1280.71 580.359C1281.87 580.416 1282.76 581.403 1282.71 582.563V582.567C1282.65 583.728 1281.66 584.622 1280.5 584.565ZM1541.71 857.025C1540.55 857.033 1539.6 856.097 1539.59 854.935C1539.59 853.773 1540.52 852.825 1541.68 852.817H1541.69C1542.85 852.809 1543.8 853.745 1543.81 854.907C1543.81 856.069 1542.88 857.017 1541.72 857.025H1541.71ZM1280.31 599.132C1279.15 599.14 1278.2 598.204 1278.19 597.042V597.038C1278.19 595.876 1279.12 594.927 1280.28 594.92C1281.45 594.912 1282.39 595.847 1282.4 597.009L1282.4 597.014C1282.41 598.175 1281.47 599.124 1280.31 599.132ZM1527.03 856.714C1525.87 856.657 1524.98 855.67 1525.03 854.509C1525.09 853.349 1526.08 852.454 1527.24 852.511L1527.24 852.511C1528.4 852.568 1529.3 853.555 1529.24 854.716C1529.18 855.876 1528.2 856.771 1527.04 856.715L1527.03 856.714ZM1280.93 613.684C1279.77 613.757 1278.78 612.876 1278.7 611.716V611.712C1278.63 610.552 1279.51 609.553 1280.67 609.481C1281.83 609.408 1282.83 610.289 1282.9 611.449V611.453C1282.98 612.613 1282.09 613.612 1280.93 613.684ZM1512.39 855.586C1511.24 855.464 1510.4 854.429 1510.52 853.273C1510.64 852.118 1511.68 851.28 1512.83 851.402L1512.84 851.401C1513.99 851.523 1514.83 852.558 1514.71 853.714C1514.59 854.87 1513.55 855.709 1512.4 855.587L1512.39 855.586ZM1282.37 628.18C1281.21 628.318 1280.17 627.493 1280.03 626.339L1280.03 626.336C1279.89 625.182 1280.72 624.134 1281.87 623.997C1283.02 623.86 1284.07 624.685 1284.21 625.839V625.843C1284.34 626.997 1283.52 628.043 1282.37 628.18ZM1497.84 853.642C1496.69 853.456 1495.91 852.376 1496.1 851.229C1496.28 850.082 1497.36 849.303 1498.51 849.489H1498.52C1499.66 849.675 1500.44 850.756 1500.26 851.903C1500.07 853.05 1498.99 853.829 1497.84 853.643L1497.84 853.642ZM1284.61 642.573C1283.46 642.774 1282.37 642.01 1282.17 640.866L1282.17 640.862C1281.97 639.717 1282.73 638.626 1283.88 638.425C1285.02 638.224 1286.11 638.988 1286.31 640.132V640.136C1286.51 641.281 1285.75 642.371 1284.61 642.573ZM1483.42 850.888C1482.28 850.638 1481.56 849.516 1481.81 848.381C1482.06 847.246 1483.19 846.529 1484.32 846.779L1484.32 846.779C1485.46 847.029 1486.18 848.152 1485.93 849.286C1485.68 850.421 1484.55 851.139 1483.42 850.889L1483.42 850.888ZM1287.65 656.819C1286.52 657.084 1285.38 656.382 1285.12 655.251L1285.12 655.247C1284.85 654.115 1285.55 652.983 1286.69 652.718C1287.82 652.453 1288.95 653.155 1289.21 654.286L1289.21 654.291C1289.48 655.422 1288.78 656.554 1287.65 656.819ZM1469.17 847.329C1468.05 847.016 1467.4 845.855 1467.71 844.737C1468.02 843.617 1469.18 842.964 1470.3 843.277L1470.31 843.278C1471.42 843.591 1472.08 844.752 1471.76 845.871C1471.45 846.99 1470.29 847.643 1469.17 847.33L1469.17 847.329ZM1291.48 670.874C1290.37 671.202 1289.2 670.563 1288.87 669.449L1288.87 669.444C1288.54 668.33 1289.18 667.161 1290.29 666.832C1291.41 666.504 1292.58 667.142 1292.9 668.256L1292.91 668.261C1293.23 669.375 1292.6 670.545 1291.48 670.874ZM1455.14 842.975C1454.04 842.599 1453.45 841.403 1453.83 840.304C1454.21 839.204 1455.4 838.617 1456.5 838.993L1456.5 838.994C1457.6 839.369 1458.19 840.565 1457.82 841.665C1457.44 842.764 1456.24 843.352 1455.15 842.976L1455.14 842.975ZM1296.1 684.691C1295.01 685.081 1293.8 684.51 1293.41 683.415L1293.41 683.412C1293.02 682.317 1293.59 681.113 1294.69 680.723C1295.78 680.332 1296.98 680.904 1297.37 681.998L1297.38 682.002C1297.77 683.096 1297.19 684.3 1296.1 684.691ZM1441.39 837.839C1440.31 837.402 1439.79 836.176 1440.23 835.099C1440.66 834.022 1441.89 833.503 1442.97 833.94L1442.97 833.941C1444.05 834.378 1444.57 835.606 1444.13 836.682C1443.69 837.759 1442.47 838.278 1441.39 837.841L1441.39 837.839ZM1301.49 698.221C1300.42 698.673 1299.18 698.17 1298.73 697.099L1298.73 697.096C1298.28 696.025 1298.78 694.791 1299.85 694.339C1300.92 693.888 1302.16 694.39 1302.61 695.461L1302.61 695.465C1303.06 696.536 1302.56 697.77 1301.49 698.221ZM1427.94 831.936C1426.89 831.438 1426.44 830.184 1426.94 829.134C1427.44 828.084 1428.69 827.635 1429.74 828.132L1429.75 828.134C1430.8 828.631 1431.25 829.885 1430.75 830.935C1430.25 831.986 1429 832.435 1427.95 831.938L1427.94 831.936ZM1307.63 711.425C1306.59 711.936 1305.33 711.505 1304.82 710.462L1304.82 710.458C1304.3 709.415 1304.74 708.154 1305.78 707.643C1306.82 707.132 1308.08 707.563 1308.59 708.606L1308.6 708.61C1309.11 709.654 1308.68 710.914 1307.63 711.425ZM1414.85 825.282C1413.83 824.727 1413.46 823.448 1414.01 822.428C1414.57 821.407 1415.85 821.03 1416.87 821.586L1416.87 821.588C1417.89 822.144 1418.27 823.421 1417.71 824.442C1417.16 825.462 1415.88 825.839 1414.86 825.284L1414.85 825.282ZM1314.51 724.263C1313.5 724.832 1312.22 724.473 1311.65 723.46L1311.65 723.455C1311.08 722.442 1311.44 721.16 1312.45 720.59C1313.46 720.021 1314.74 720.381 1315.31 721.394L1315.32 721.398C1315.89 722.41 1315.53 723.693 1314.51 724.263ZM1402.16 817.898C1401.17 817.286 1400.87 815.989 1401.48 815.001C1402.1 814.014 1403.39 813.71 1404.38 814.322L1404.38 814.324C1405.37 814.937 1405.67 816.234 1405.06 817.221C1404.45 818.209 1403.15 818.513 1402.17 817.901L1402.16 817.898ZM1322.11 736.692C1321.13 737.317 1319.83 737.031 1319.2 736.052L1319.2 736.048C1318.57 735.069 1318.86 733.767 1319.84 733.142C1320.82 732.516 1322.12 732.803 1322.75 733.782L1322.75 733.786C1323.37 734.765 1323.09 736.066 1322.11 736.692ZM1389.91 809.81C1388.95 809.143 1388.72 807.831 1389.39 806.879C1390.06 805.928 1391.37 805.697 1392.32 806.364L1392.32 806.367C1393.28 807.034 1393.51 808.346 1392.84 809.298C1392.17 810.249 1390.86 810.479 1389.91 809.812L1389.91 809.81ZM1330.39 748.673C1329.45 749.353 1328.14 749.14 1327.46 748.198L1327.45 748.195C1326.77 747.253 1326.99 745.938 1327.93 745.258C1328.87 744.578 1330.19 744.791 1330.87 745.733L1330.87 745.736C1331.55 746.678 1331.34 747.993 1330.39 748.673ZM1378.12 801.044C1377.21 800.325 1377.05 799.001 1377.77 798.089C1378.49 797.176 1379.81 797.019 1380.73 797.739L1380.73 797.742C1381.64 798.461 1381.8 799.784 1381.08 800.696C1380.36 801.609 1379.04 801.765 1378.12 801.046L1378.12 801.044ZM1336.38 759.863L1336.38 759.859C1335.65 758.956 1335.78 757.631 1336.69 756.899C1337.59 756.168 1338.91 756.307 1339.65 757.21L1339.65 757.212C1340.38 758.115 1340.24 759.44 1339.34 760.172C1338.44 760.904 1337.11 760.765 1336.38 759.863ZM1366.85 791.631C1365.97 790.862 1365.89 789.533 1366.66 788.662C1367.43 787.791 1368.76 787.708 1369.63 788.477L1369.63 788.48C1370.5 789.249 1370.59 790.579 1369.82 791.45C1369.05 792.321 1367.72 792.403 1366.85 791.634L1366.85 791.631ZM1345.94 771.01L1345.94 771.007C1345.16 770.147 1345.22 768.816 1346.08 768.035C1346.95 767.254 1348.28 767.318 1349.06 768.179L1349.06 768.182C1349.84 769.042 1349.78 770.374 1348.92 771.155C1348.05 771.935 1346.72 771.87 1345.94 771.01ZM1356.11 781.608C1355.28 780.792 1355.27 779.459 1356.09 778.632C1356.9 777.805 1358.24 777.796 1359.06 778.612L1359.07 778.615C1359.89 779.431 1359.9 780.763 1359.09 781.59C1358.27 782.417 1356.94 782.427 1356.11 781.611L1356.11 781.608Z" fill="#777777"/>
<path d="M1356.61 414.39C1332.15 439.182 1312.97 468.678 1300.23 501.093C1287.5 533.507 1281.47 568.169 1282.51 602.981C1282.55 604.142 1281.63 605.111 1280.47 605.146C1279.31 605.181 1278.34 604.267 1278.31 603.106C1277.25 567.726 1283.37 532.499 1296.32 499.554C1309.26 466.61 1328.75 436.632 1353.61 411.435C1354.43 410.608 1355.76 410.598 1356.59 411.414C1357.41 412.23 1357.42 413.563 1356.61 414.39Z" fill="#0146BE"/>
<path d="M1753.32 743.252C1752.36 742.598 1752.11 741.289 1752.76 740.329C1775.23 707.372 1789.73 669.648 1795.13 630.13C1800.53 590.613 1796.67 550.381 1783.87 512.607C1783.5 511.507 1784.09 510.313 1785.19 509.94C1786.29 509.567 1787.48 510.157 1787.86 511.257C1800.87 549.649 1804.78 590.537 1799.3 630.7C1793.81 670.863 1779.07 709.203 1756.24 742.699C1755.59 743.659 1754.28 743.907 1753.32 743.252Z" fill="#FFC3E8"/>
<path d="M1806.27 325.725C1805.45 324.91 1805.44 323.579 1806.25 322.752C1807.07 321.925 1808.4 321.916 1809.23 322.732L1809.23 322.737C1810.06 323.553 1810.07 324.884 1809.25 325.711C1808.44 326.537 1807.1 326.546 1806.28 325.731L1806.27 325.725ZM1816.42 336.117C1815.62 335.27 1815.66 333.939 1816.51 333.144C1817.35 332.349 1818.68 332.39 1819.48 333.236C1819.48 333.238 1819.48 333.239 1819.48 333.241C1820.28 334.087 1820.24 335.419 1819.39 336.214C1818.55 337.009 1817.22 336.967 1816.42 336.121C1816.42 336.12 1816.42 336.118 1816.42 336.117ZM1795.75 315.724C1794.89 314.94 1794.83 313.61 1795.61 312.753C1796.4 311.897 1797.73 311.838 1798.58 312.622C1798.59 312.623 1798.59 312.625 1798.59 312.626C1799.45 313.41 1799.51 314.74 1798.72 315.597C1797.94 316.454 1796.61 316.513 1795.75 315.729C1795.75 315.727 1795.75 315.726 1795.75 315.724ZM1826.15 346.875C1826.15 346.873 1826.15 346.871 1826.15 346.87C1825.38 345.994 1825.48 344.666 1826.35 343.904C1827.23 343.141 1828.55 343.233 1829.32 344.108C1829.32 344.11 1829.32 344.112 1829.32 344.114C1830.09 344.989 1829.99 346.318 1829.12 347.08C1828.24 347.843 1826.91 347.751 1826.15 346.875ZM1784.86 306.139C1783.98 305.389 1783.87 304.062 1784.62 303.176C1785.37 302.29 1786.69 302.18 1787.58 302.931C1787.58 302.932 1787.58 302.935 1787.59 302.936C1788.47 303.687 1788.58 305.013 1787.83 305.899C1787.08 306.785 1785.75 306.894 1784.87 306.144C1784.87 306.142 1784.86 306.141 1784.86 306.139ZM1835.46 357.982C1835.46 357.98 1835.46 357.978 1835.45 357.976C1834.73 357.072 1834.87 355.748 1835.77 355.019C1836.68 354.291 1838 354.434 1838.73 355.338C1838.73 355.34 1838.73 355.341 1838.73 355.343C1839.46 356.247 1839.32 357.571 1838.42 358.3C1837.51 359.028 1836.19 358.886 1835.46 357.982ZM1773.63 296.983C1772.72 296.267 1772.56 294.945 1773.27 294.031C1773.99 293.117 1775.31 292.957 1776.23 293.673C1776.23 293.675 1776.23 293.677 1776.23 293.678C1777.14 294.395 1777.3 295.716 1776.59 296.63C1775.87 297.544 1774.55 297.704 1773.64 296.987C1773.63 296.986 1773.63 296.985 1773.63 296.983ZM1847.27 369.86C1846.34 370.554 1845.02 370.361 1844.33 369.43C1844.33 369.428 1844.33 369.426 1844.33 369.425C1843.63 368.493 1843.82 367.175 1844.76 366.481C1845.69 365.788 1847 365.981 1847.7 366.912C1847.7 366.914 1847.7 366.916 1847.7 366.918C1848.4 367.849 1848.2 369.167 1847.27 369.86ZM1762.06 288.267C1761.12 287.586 1760.91 286.272 1761.59 285.332C1762.27 284.391 1763.59 284.18 1764.53 284.861C1764.53 284.862 1764.53 284.864 1764.54 284.865C1765.48 285.546 1765.69 286.861 1765.01 287.801C1764.33 288.742 1763.01 288.952 1762.07 288.271C1762.07 288.27 1762.07 288.269 1762.06 288.267ZM1855.69 381.776C1854.74 382.433 1853.43 382.189 1852.77 381.232C1852.77 381.23 1852.77 381.228 1852.77 381.226C1852.11 380.269 1852.35 378.96 1853.31 378.303C1854.27 377.646 1855.58 377.888 1856.23 378.845C1856.24 378.847 1856.24 378.85 1856.24 378.852C1856.9 379.81 1856.65 381.118 1855.69 381.776ZM1750.15 279.986C1749.18 279.342 1748.92 278.036 1749.57 277.07C1750.21 276.104 1751.52 275.843 1752.48 276.487C1752.48 276.488 1752.49 276.489 1752.49 276.49C1753.45 277.135 1753.71 278.441 1753.07 279.407C1752.43 280.373 1751.12 280.634 1750.15 279.99C1750.15 279.989 1750.15 279.987 1750.15 279.986ZM1863.65 393.999C1862.67 394.619 1861.37 394.325 1860.75 393.343C1860.75 393.341 1860.74 393.339 1860.74 393.337C1860.12 392.355 1860.42 391.057 1861.4 390.437C1862.38 389.817 1863.68 390.11 1864.3 391.092C1864.3 391.094 1864.3 391.097 1864.3 391.099C1864.92 392.081 1864.63 393.379 1863.65 393.999ZM1737.93 272.174C1736.94 271.568 1736.63 270.273 1737.24 269.283C1737.84 268.293 1739.14 267.982 1740.13 268.588C1740.13 268.59 1740.13 268.591 1740.13 268.592C1741.12 269.198 1741.43 270.493 1740.83 271.483C1740.22 272.473 1738.93 272.785 1737.94 272.178C1737.93 272.177 1737.93 272.175 1737.93 272.174ZM1871.12 406.513C1870.11 407.095 1868.83 406.751 1868.25 405.746C1868.24 405.744 1868.24 405.742 1868.24 405.74C1867.66 404.735 1868 403.448 1869.01 402.867C1870.01 402.285 1871.3 402.629 1871.88 403.634C1871.88 403.636 1871.88 403.638 1871.89 403.64C1872.47 404.645 1872.12 405.932 1871.12 406.513ZM1725.43 264.844C1724.41 264.276 1724.05 262.995 1724.62 261.982C1725.19 260.969 1726.47 260.608 1727.48 261.176C1727.49 261.177 1727.49 261.178 1727.49 261.179C1728.5 261.747 1728.86 263.029 1728.3 264.042C1727.73 265.054 1726.45 265.415 1725.43 264.847C1725.43 264.846 1725.43 264.845 1725.43 264.844ZM1878.1 419.303C1877.07 419.845 1875.8 419.452 1875.26 418.426C1875.26 418.424 1875.26 418.422 1875.26 418.419C1874.71 417.393 1875.11 416.12 1876.13 415.578C1877.16 415.036 1878.43 415.429 1878.97 416.455C1878.97 416.457 1878.98 416.459 1878.98 416.461C1879.52 417.488 1879.13 418.76 1878.1 419.303ZM1712.65 258.003C1711.62 257.474 1711.21 256.208 1711.74 255.173C1712.27 254.14 1713.53 253.73 1714.57 254.258C1714.57 254.259 1714.57 254.26 1714.57 254.261C1715.61 254.79 1716.02 256.057 1715.49 257.091C1714.96 258.125 1713.69 258.534 1712.66 258.006C1712.66 258.005 1712.66 258.004 1712.65 258.003ZM1884.59 432.361C1883.54 432.863 1882.28 432.422 1881.78 431.375C1881.78 431.373 1881.78 431.37 1881.78 431.368C1881.28 430.321 1881.72 429.065 1882.76 428.563C1883.81 428.06 1885.07 428.503 1885.57 429.55C1885.57 429.552 1885.57 429.554 1885.57 429.556C1886.07 430.603 1885.63 431.858 1884.59 432.361ZM1699.62 251.656C1698.56 251.168 1698.11 249.918 1698.59 248.864C1699.08 247.811 1700.33 247.352 1701.39 247.84C1701.39 247.841 1701.39 247.842 1701.39 247.843C1702.45 248.331 1702.91 249.582 1702.42 250.635C1701.93 251.689 1700.68 252.147 1699.63 251.659C1699.62 251.658 1699.62 251.657 1699.62 251.656ZM1890.56 445.663C1889.5 446.124 1888.26 445.634 1887.8 444.569C1887.8 444.566 1887.8 444.564 1887.8 444.562C1887.34 443.496 1887.83 442.259 1888.89 441.797C1889.96 441.336 1891.19 441.825 1891.66 442.891C1891.66 442.893 1891.66 442.896 1891.66 442.898C1892.12 443.963 1891.63 445.201 1890.56 445.663ZM1686.34 245.816C1685.27 245.369 1684.77 244.138 1685.21 243.066C1685.66 241.995 1686.89 241.488 1687.96 241.935C1687.97 241.936 1687.97 241.937 1687.97 241.938C1689.04 242.385 1689.55 243.616 1689.1 244.688C1688.65 245.759 1687.42 246.266 1686.35 245.819C1686.35 245.818 1686.35 245.817 1686.34 245.816ZM1896.02 459.18C1894.94 459.6 1893.72 459.063 1893.3 457.981C1893.3 457.978 1893.3 457.976 1893.3 457.974C1892.88 456.891 1893.42 455.673 1894.5 455.253C1895.58 454.833 1896.8 455.37 1897.22 456.452C1897.22 456.455 1897.22 456.457 1897.22 456.459C1897.64 457.542 1897.11 458.76 1896.02 459.18ZM1672.86 240.495C1671.77 240.089 1671.22 238.878 1671.62 237.79C1672.03 236.702 1673.24 236.148 1674.33 236.553C1674.33 236.554 1674.33 236.555 1674.33 236.556C1675.42 236.962 1675.98 238.173 1675.57 239.261C1675.16 240.349 1673.95 240.903 1672.87 240.497C1672.86 240.496 1672.86 240.495 1672.86 240.495ZM1900.96 472.895C1899.86 473.273 1898.66 472.69 1898.29 471.592C1898.28 471.59 1898.28 471.588 1898.28 471.585C1897.9 470.487 1898.49 469.291 1899.59 468.913C1900.68 468.534 1901.88 469.118 1902.26 470.216C1902.26 470.218 1902.26 470.22 1902.26 470.222C1902.64 471.32 1902.06 472.517 1900.96 472.895ZM1659.18 235.696C1658.08 235.333 1657.48 234.145 1657.84 233.042C1658.21 231.939 1659.39 231.339 1660.5 231.702C1660.5 231.702 1660.5 231.704 1660.5 231.704C1661.61 232.068 1662.21 233.257 1661.84 234.36C1661.48 235.462 1660.29 236.062 1659.19 235.699C1659.19 235.698 1659.18 235.697 1659.18 235.696ZM1905.36 486.789C1904.25 487.125 1903.08 486.496 1902.74 485.384C1902.74 485.382 1902.74 485.379 1902.74 485.377C1902.4 484.265 1903.03 483.092 1904.14 482.756C1905.25 482.421 1906.43 483.05 1906.76 484.162C1906.76 484.164 1906.76 484.167 1906.77 484.169C1907.1 485.28 1906.47 486.453 1905.36 486.789ZM1645.33 231.428C1644.21 231.108 1643.57 229.943 1643.89 228.827C1644.21 227.711 1645.38 227.067 1646.49 227.387C1646.49 227.388 1646.5 227.388 1646.5 227.388C1647.61 227.709 1648.26 228.874 1647.94 229.99C1647.62 231.106 1646.45 231.751 1645.34 231.431C1645.34 231.43 1645.33 231.429 1645.33 231.428ZM1909.23 500.848C1908.1 501.141 1906.96 500.468 1906.66 499.344C1906.66 499.342 1906.66 499.339 1906.66 499.337C1906.37 498.213 1907.04 497.065 1908.17 496.772C1909.29 496.48 1910.44 497.153 1910.73 498.277C1910.73 498.279 1910.73 498.281 1910.73 498.284C1911.03 499.407 1910.35 500.555 1909.23 500.848ZM1631.32 227.693C1630.19 227.416 1629.5 226.277 1629.78 225.149C1630.06 224.022 1631.2 223.332 1632.32 223.61C1632.33 223.61 1632.33 223.612 1632.33 223.612C1633.46 223.89 1634.15 225.028 1633.87 226.156C1633.59 227.283 1632.45 227.973 1631.33 227.695C1631.32 227.695 1631.32 227.694 1631.32 227.693ZM1912.55 515.044C1911.42 515.294 1910.3 514.576 1910.05 513.442C1910.05 513.44 1910.05 513.438 1910.05 513.435C1909.8 512.301 1910.52 511.179 1911.65 510.93C1912.78 510.68 1913.91 511.398 1914.15 512.532C1914.16 512.534 1914.16 512.537 1914.16 512.539C1914.41 513.673 1913.69 514.795 1912.55 515.044ZM1617.18 224.498C1616.04 224.264 1615.31 223.153 1615.54 222.015C1615.78 220.878 1616.89 220.146 1618.02 220.38C1618.03 220.38 1618.03 220.381 1618.03 220.381C1619.17 220.615 1619.9 221.727 1619.67 222.864C1619.43 224.002 1618.32 224.734 1617.18 224.5C1617.18 224.499 1617.18 224.499 1617.18 224.498ZM1915.33 529.354C1914.19 529.56 1913.1 528.801 1912.89 527.658C1912.89 527.656 1912.89 527.654 1912.89 527.651C1912.69 526.508 1913.44 525.414 1914.59 525.208C1915.73 525.003 1916.82 525.762 1917.03 526.905C1917.03 526.908 1917.03 526.91 1917.03 526.913C1917.24 528.056 1916.48 529.148 1915.33 529.354ZM1602.92 221.848C1601.78 221.657 1601 220.573 1601.19 219.428C1601.38 218.283 1602.47 217.509 1603.61 217.699C1603.62 217.699 1603.62 217.7 1603.62 217.7C1604.77 217.891 1605.54 218.974 1605.35 220.119C1605.16 221.265 1604.08 222.039 1602.93 221.849C1602.93 221.849 1602.93 221.848 1602.92 221.848ZM1917.57 543.76C1916.42 543.922 1915.35 543.121 1915.19 541.972C1915.19 541.969 1915.19 541.967 1915.19 541.965C1915.03 540.815 1915.83 539.751 1916.98 539.589C1918.13 539.427 1919.19 540.227 1919.35 541.377C1919.35 541.379 1919.35 541.382 1919.35 541.384C1919.52 542.534 1918.72 543.598 1917.57 543.76ZM1588.58 219.743C1587.43 219.596 1586.61 218.543 1586.76 217.392C1586.91 216.24 1587.96 215.425 1589.11 215.571C1589.11 215.571 1589.12 215.572 1589.12 215.573C1590.27 215.719 1591.08 216.771 1590.94 217.923C1590.79 219.075 1589.74 219.891 1588.59 219.744C1588.59 219.744 1588.58 219.743 1588.58 219.743ZM1919.25 558.24C1918.09 558.359 1917.06 557.518 1916.94 556.363C1916.94 556.36 1916.94 556.358 1916.94 556.356C1916.82 555.201 1917.66 554.168 1918.82 554.05C1919.97 553.931 1921.01 554.772 1921.12 555.928C1921.12 555.93 1921.12 555.932 1921.12 555.934C1921.24 557.09 1920.4 558.122 1919.25 558.24ZM1574.17 218.186C1573.01 218.084 1572.16 217.063 1572.26 215.907C1572.36 214.75 1573.38 213.895 1574.54 213.998C1574.54 213.998 1574.54 213.998 1574.55 213.998C1575.7 214.101 1576.56 215.122 1576.45 216.279C1576.35 217.436 1575.33 218.29 1574.17 218.188C1574.17 218.188 1574.17 218.187 1574.17 218.186ZM1920.37 572.776C1919.22 572.851 1918.22 571.971 1918.14 570.812C1918.14 570.81 1918.14 570.807 1918.14 570.805C1918.07 569.646 1918.95 568.647 1920.11 568.573C1921.26 568.499 1922.26 569.378 1922.34 570.537C1922.34 570.539 1922.34 570.542 1922.34 570.544C1922.41 571.703 1921.53 572.702 1920.37 572.776ZM1559.7 217.181C1558.54 217.123 1557.65 216.135 1557.71 214.975C1557.77 213.816 1558.75 212.923 1559.91 212.981C1559.92 212.981 1559.92 212.981 1559.92 212.981C1561.08 213.04 1561.97 214.028 1561.92 215.187C1561.86 216.347 1560.87 217.24 1559.71 217.181C1559.71 217.181 1559.7 217.181 1559.7 217.181ZM1920.95 587.344C1919.79 587.374 1918.82 586.457 1918.79 585.297C1918.79 585.294 1918.79 585.291 1918.79 585.289C1918.76 584.128 1919.68 583.162 1920.84 583.132C1922 583.102 1922.97 584.02 1923 585.18C1923 585.183 1923 585.185 1923 585.187C1923.03 586.348 1922.11 587.314 1920.95 587.344ZM1545.21 216.727C1544.05 216.713 1543.12 215.76 1543.13 214.599C1543.15 213.438 1544.1 212.508 1545.26 212.522C1545.27 212.522 1545.27 212.522 1545.27 212.522C1546.43 212.537 1547.36 213.489 1547.35 214.65C1547.33 215.811 1546.38 216.742 1545.22 216.727C1545.22 216.727 1545.21 216.727 1545.21 216.727ZM1920.97 601.922C1919.81 601.908 1918.88 600.954 1918.89 599.793C1918.89 599.791 1918.89 599.789 1918.89 599.786C1918.9 598.625 1919.86 597.696 1921.02 597.71C1922.18 597.724 1923.11 598.678 1923.09 599.839C1923.09 599.841 1923.09 599.843 1923.09 599.846C1923.08 601.007 1922.13 601.936 1920.97 601.922ZM1530.71 216.825C1529.55 216.855 1528.59 215.938 1528.56 214.777C1528.53 213.617 1529.44 212.651 1530.61 212.621C1530.61 212.621 1530.61 212.621 1530.61 212.621C1531.77 212.591 1532.74 213.508 1532.77 214.669C1532.8 215.83 1531.88 216.795 1530.72 216.825C1530.72 216.825 1530.72 216.825 1530.71 216.825ZM1920.43 616.491C1919.27 616.432 1918.38 615.444 1918.44 614.285C1918.44 614.282 1918.44 614.28 1918.44 614.278C1918.49 613.118 1919.48 612.225 1920.64 612.284C1921.8 612.342 1922.69 613.33 1922.64 614.49C1922.64 614.492 1922.64 614.494 1922.64 614.497C1922.58 615.656 1921.59 616.549 1920.43 616.491ZM1516.23 217.475C1515.07 217.549 1514.07 216.67 1514 215.511C1513.92 214.352 1514.8 213.352 1515.96 213.278C1515.96 213.278 1515.97 213.278 1515.97 213.278C1517.13 213.204 1518.13 214.083 1518.2 215.242C1518.28 216.401 1517.4 217.401 1516.24 217.475C1516.23 217.475 1516.23 217.475 1516.23 217.475ZM1919.34 631.029C1918.18 630.927 1917.33 629.906 1917.43 628.75C1917.43 628.747 1917.43 628.744 1917.43 628.742C1917.53 627.586 1918.55 626.731 1919.71 626.834C1920.87 626.936 1921.72 627.957 1921.62 629.114C1921.62 629.116 1921.62 629.119 1921.62 629.121C1921.52 630.278 1920.49 631.132 1919.34 631.029ZM1501.78 218.677C1500.63 218.795 1499.59 217.954 1499.47 216.799C1499.36 215.643 1500.2 214.611 1501.35 214.493C1501.35 214.492 1501.36 214.493 1501.36 214.493C1502.51 214.374 1503.55 215.215 1503.67 216.37C1503.78 217.525 1502.94 218.557 1501.79 218.675C1501.78 218.675 1501.78 218.676 1501.78 218.677ZM1917.69 645.514C1916.54 645.367 1915.73 644.315 1915.87 643.163C1915.87 643.161 1915.87 643.158 1915.87 643.156C1916.02 642.004 1917.07 641.189 1918.23 641.336C1919.38 641.482 1920.19 642.535 1920.05 643.687C1920.05 643.689 1920.04 643.692 1920.04 643.694C1919.9 644.846 1918.85 645.66 1917.69 645.514ZM1487.39 220.428C1486.24 220.59 1485.18 219.788 1485.01 218.639C1484.85 217.489 1485.65 216.426 1486.8 216.263C1486.8 216.263 1486.81 216.262 1486.81 216.262C1487.96 216.1 1489.02 216.901 1489.18 218.05C1489.35 219.2 1488.55 220.264 1487.4 220.426C1487.39 220.427 1487.39 220.427 1487.39 220.428ZM1915.5 659.925C1914.35 659.734 1913.58 658.651 1913.77 657.506C1913.77 657.504 1913.77 657.501 1913.77 657.499C1913.96 656.354 1915.04 655.579 1916.19 655.769C1917.33 655.96 1918.11 657.043 1917.92 658.189C1917.92 658.191 1917.92 658.193 1917.92 658.195C1917.73 659.341 1916.64 660.116 1915.5 659.925ZM1473.08 222.726C1471.93 222.932 1470.84 222.172 1470.63 221.029C1470.43 219.886 1471.19 218.793 1472.33 218.587C1472.33 218.586 1472.34 218.586 1472.34 218.585C1473.48 218.38 1474.57 219.139 1474.78 220.281C1474.99 221.424 1474.23 222.518 1473.08 222.724C1473.08 222.725 1473.08 222.725 1473.08 222.726ZM1912.75 674.242C1911.62 674.008 1910.88 672.896 1911.12 671.759C1911.12 671.757 1911.12 671.754 1911.12 671.752C1911.35 670.615 1912.46 669.882 1913.6 670.117C1914.74 670.351 1915.47 671.462 1915.24 672.6C1915.24 672.602 1915.24 672.604 1915.24 672.607C1915 673.744 1913.89 674.476 1912.75 674.242ZM1458.86 225.569C1457.73 225.818 1456.6 225.101 1456.36 223.967C1456.11 222.833 1456.82 221.712 1457.96 221.462C1457.96 221.461 1457.96 221.461 1457.96 221.461C1459.1 221.211 1460.22 221.928 1460.47 223.062C1460.72 224.196 1460 225.318 1458.87 225.567C1458.86 225.568 1458.86 225.568 1458.86 225.569ZM1909.46 688.446C1908.33 688.169 1907.64 687.03 1907.92 685.902C1907.92 685.9 1907.92 685.897 1907.92 685.895C1908.2 684.767 1909.34 684.079 1910.47 684.356C1911.59 684.634 1912.28 685.772 1912.01 686.899C1912.01 686.902 1912.01 686.905 1912 686.907C1911.73 688.034 1910.59 688.723 1909.46 688.446ZM1444.76 228.955C1443.64 229.248 1442.49 228.573 1442.2 227.45C1441.9 226.326 1442.58 225.179 1443.7 224.886C1443.7 224.885 1443.71 224.884 1443.71 224.883C1444.83 224.59 1445.98 225.265 1446.27 226.389C1446.57 227.512 1445.89 228.66 1444.77 228.953C1444.77 228.954 1444.76 228.954 1444.76 228.955ZM1905.63 702.515C1904.51 702.194 1903.87 701.03 1904.19 699.914C1904.19 699.911 1904.19 699.909 1904.19 699.906C1904.51 698.79 1905.67 698.146 1906.79 698.466C1907.91 698.787 1908.55 699.951 1908.23 701.067C1908.23 701.07 1908.23 701.072 1908.23 701.074C1907.91 702.19 1906.74 702.835 1905.63 702.515ZM1430.8 232.879C1429.69 233.215 1428.52 232.585 1428.18 231.474C1427.85 230.362 1428.47 229.189 1429.59 228.853C1429.59 228.853 1429.59 228.852 1429.59 228.852C1430.7 228.516 1431.88 229.145 1432.21 230.256C1432.55 231.367 1431.92 232.541 1430.81 232.877C1430.81 232.878 1430.8 232.878 1430.8 232.879ZM1901.26 716.419C1900.15 716.056 1899.55 714.867 1899.92 713.764C1899.92 713.762 1899.92 713.759 1899.92 713.757C1900.28 712.654 1901.47 712.055 1902.57 712.418C1903.68 712.781 1904.28 713.97 1903.92 715.073C1903.91 715.075 1903.91 715.077 1903.91 715.079C1903.55 716.182 1902.36 716.782 1901.26 716.419ZM1417.01 237.335C1415.91 237.713 1414.72 237.129 1414.34 236.031C1413.96 234.933 1414.54 233.736 1415.64 233.358C1415.64 233.357 1415.65 233.356 1415.65 233.355C1416.75 232.977 1417.94 233.562 1418.32 234.659C1418.7 235.757 1418.11 236.954 1417.02 237.332C1417.01 237.332 1417.01 237.334 1417.01 237.335ZM1896.36 730.146C1895.27 729.74 1894.71 728.53 1895.12 727.442C1895.12 727.439 1895.12 727.437 1895.12 727.435C1895.53 726.347 1896.74 725.793 1897.83 726.198C1898.91 726.604 1899.47 727.815 1899.06 728.903C1899.06 728.905 1899.06 728.908 1899.06 728.91C1898.66 729.998 1897.44 730.551 1896.36 730.146ZM1403.4 242.317C1402.32 242.737 1401.1 242.2 1400.68 241.117C1400.26 240.035 1400.79 238.816 1401.88 238.396C1401.88 238.395 1401.88 238.394 1401.88 238.393C1402.97 237.973 1404.18 238.51 1404.6 239.593C1405.02 240.675 1404.49 241.894 1403.41 242.314C1403.4 242.315 1403.4 242.316 1403.4 242.317ZM1890.93 743.676C1889.86 743.229 1889.35 741.998 1889.8 740.927C1889.8 740.924 1889.8 740.922 1889.8 740.92C1890.25 739.848 1891.48 739.342 1892.55 739.789C1893.62 740.236 1894.13 741.467 1893.68 742.539C1893.68 742.541 1893.68 742.543 1893.68 742.545C1893.23 743.617 1892 744.123 1890.93 743.676ZM1389.99 247.82C1388.92 248.281 1387.68 247.792 1387.22 246.726C1386.76 245.661 1387.25 244.423 1388.32 243.961C1388.32 243.96 1388.32 243.96 1388.32 243.959C1389.39 243.497 1390.63 243.987 1391.09 245.052C1391.55 246.118 1391.06 247.356 1389.99 247.817C1389.99 247.818 1389.99 247.819 1389.99 247.82ZM1884.98 756.992C1883.93 756.504 1883.47 755.254 1883.96 754.201C1883.96 754.198 1883.96 754.196 1883.96 754.194C1884.45 753.14 1885.7 752.682 1886.75 753.17C1887.81 753.658 1888.26 754.908 1887.78 755.961C1887.78 755.963 1887.77 755.965 1887.77 755.967C1887.29 757.021 1886.04 757.48 1884.98 756.992ZM1376.79 253.839C1375.75 254.341 1374.49 253.9 1373.99 252.853C1373.48 251.806 1373.93 250.55 1374.97 250.048C1374.98 250.047 1374.98 250.045 1374.98 250.044C1376.03 249.542 1377.28 249.984 1377.79 251.031C1378.29 252.077 1377.85 253.334 1376.8 253.836C1376.8 253.837 1376.8 253.838 1376.79 253.839ZM1878.53 770.065C1877.49 769.537 1877.08 768.27 1877.61 767.236C1877.61 767.234 1877.61 767.232 1877.61 767.23C1878.14 766.196 1879.41 765.786 1880.44 766.314C1881.48 766.842 1881.89 768.11 1881.36 769.144C1881.36 769.146 1881.36 769.148 1881.36 769.15C1880.83 770.184 1879.56 770.594 1878.53 770.065ZM1363.84 260.362C1362.82 260.904 1361.55 260.511 1361 259.484C1360.46 258.458 1360.85 257.185 1361.88 256.643C1361.88 256.642 1361.88 256.641 1361.89 256.64C1362.91 256.097 1364.19 256.49 1364.73 257.517C1365.27 258.544 1364.88 259.816 1363.85 260.358C1363.85 260.359 1363.85 260.36 1363.84 260.362ZM1871.58 782.872C1870.56 782.304 1870.2 781.022 1870.77 780.009C1870.77 780.007 1870.77 780.005 1870.77 780.003C1871.34 778.99 1872.62 778.629 1873.64 779.197C1874.65 779.765 1875.01 781.047 1874.44 782.059C1874.44 782.061 1874.44 782.064 1874.44 782.066C1873.87 783.079 1872.59 783.439 1871.58 782.872ZM1351.16 267.375C1350.16 267.956 1348.87 267.613 1348.29 266.608C1347.71 265.602 1348.05 264.316 1349.06 263.735C1349.06 263.733 1349.06 263.732 1349.06 263.731C1350.07 263.15 1351.36 263.493 1351.94 264.498C1352.52 265.503 1352.18 266.79 1351.17 267.371C1351.17 267.372 1351.17 267.374 1351.16 267.375ZM1864.13 795.404C1863.14 794.797 1862.83 793.502 1863.44 792.512C1863.44 792.51 1863.44 792.508 1863.44 792.506C1864.05 791.516 1865.34 791.205 1866.33 791.811C1867.32 792.417 1867.63 793.712 1867.03 794.702C1867.03 794.704 1867.03 794.707 1867.03 794.709C1866.42 795.699 1865.12 796.01 1864.13 795.404ZM1338.76 274.874C1337.78 275.494 1336.48 275.2 1335.86 274.218C1335.24 273.236 1335.54 271.937 1336.52 271.317C1336.52 271.316 1336.52 271.315 1336.52 271.314C1337.51 270.694 1338.8 270.988 1339.42 271.97C1340.04 272.951 1339.75 274.25 1338.77 274.869C1338.77 274.871 1338.76 274.872 1338.76 274.874ZM1856.21 807.645C1855.24 807.001 1854.98 805.696 1855.63 804.729C1855.63 804.728 1855.63 804.726 1855.63 804.724C1856.28 803.758 1857.58 803.497 1858.55 804.141C1859.51 804.785 1859.77 806.09 1859.13 807.056C1859.13 807.058 1859.13 807.06 1859.13 807.062C1858.48 808.028 1857.18 808.289 1856.21 807.645ZM1326.65 282.85C1325.69 283.507 1324.39 283.263 1323.73 282.306C1323.07 281.349 1323.31 280.039 1324.27 279.382C1324.27 279.381 1324.28 279.38 1324.28 279.378C1325.23 278.721 1326.54 278.965 1327.2 279.922C1327.86 280.88 1327.61 282.188 1326.66 282.846C1326.65 282.847 1326.65 282.848 1326.65 282.85ZM1847.82 819.581C1846.87 818.9 1846.66 817.585 1847.35 816.644C1847.35 816.642 1847.35 816.641 1847.35 816.639C1848.03 815.698 1849.34 815.488 1850.29 816.169C1851.23 816.85 1851.44 818.164 1850.76 819.105C1850.75 819.107 1850.75 819.109 1850.75 819.111C1850.07 820.051 1848.76 820.262 1847.82 819.581ZM1314.85 291.291C1313.92 291.985 1312.6 291.792 1311.91 290.86C1311.21 289.929 1311.41 288.612 1312.34 287.918C1312.34 287.917 1312.34 287.916 1312.34 287.914C1313.27 287.221 1314.59 287.414 1315.29 288.345C1315.98 289.277 1315.79 290.594 1314.85 291.287C1314.85 291.288 1314.85 291.29 1314.85 291.291ZM1838.99 831.163C1838.07 830.446 1837.91 829.125 1838.63 828.211C1838.63 828.209 1838.63 828.207 1838.63 828.206C1839.35 827.292 1840.67 827.131 1841.59 827.848C1842.5 828.564 1842.66 829.886 1841.94 830.8C1841.94 830.802 1841.94 830.803 1841.94 830.805C1841.22 831.719 1839.9 831.879 1838.99 831.163ZM1300.44 299.845C1299.72 298.941 1299.86 297.617 1300.76 296.889C1300.76 296.887 1300.77 296.885 1300.77 296.884C1301.67 296.155 1303 296.298 1303.72 297.202C1304.45 298.106 1304.31 299.43 1303.41 300.159C1303.4 300.16 1303.4 300.161 1303.4 300.163C1302.5 300.891 1301.17 300.749 1300.44 299.845ZM1289.33 309.265C1288.57 308.39 1288.66 307.062 1289.53 306.299C1289.53 306.298 1289.54 306.295 1289.54 306.294C1290.41 305.531 1291.74 305.623 1292.51 306.499C1293.27 307.375 1293.18 308.703 1292.3 309.466C1292.3 309.467 1292.3 309.468 1292.29 309.47C1291.42 310.232 1290.09 310.141 1289.33 309.265ZM1829.72 842.405C1828.83 841.655 1828.72 840.328 1829.47 839.442C1829.47 839.44 1829.48 839.439 1829.48 839.437C1830.23 838.551 1831.55 838.441 1832.44 839.192C1833.33 839.943 1833.44 841.27 1832.69 842.155C1832.68 842.157 1832.68 842.159 1832.68 842.161C1831.93 843.047 1830.6 843.156 1829.72 842.405ZM1820.02 853.297C1819.16 852.514 1819.1 851.183 1819.89 850.326C1819.89 850.324 1819.89 850.323 1819.89 850.321C1820.68 849.464 1822.01 849.405 1822.86 850.189C1823.72 850.972 1823.78 852.303 1823 853.16C1822.99 853.162 1822.99 853.163 1822.99 853.165C1822.21 854.021 1820.88 854.081 1820.02 853.297ZM1278.57 319.109C1277.77 318.263 1277.81 316.932 1278.66 316.137C1278.66 316.135 1278.66 316.133 1278.67 316.132C1279.51 315.337 1280.84 315.378 1281.64 316.224C1282.43 317.07 1282.39 318.401 1281.55 319.196C1281.54 319.198 1281.54 319.199 1281.54 319.201C1280.7 319.996 1279.36 319.955 1278.57 319.109ZM1812.89 863.801L1812.88 863.807C1812.06 864.633 1810.73 864.642 1809.91 863.827C1809.08 863.011 1809.07 861.68 1809.89 860.853L1809.89 860.848C1810.71 860.021 1812.04 860.012 1812.86 860.828C1813.69 861.643 1813.7 862.974 1812.89 863.801ZM1271.16 329.339L1271.15 329.344C1270.33 330.171 1269 330.18 1268.18 329.364C1267.35 328.549 1267.34 327.218 1268.16 326.391L1268.16 326.385C1268.98 325.559 1270.31 325.55 1271.14 326.365C1271.96 327.181 1271.97 328.512 1271.16 329.339ZM1799.4 873.968C1798.61 873.122 1798.65 871.791 1799.5 870.996C1799.5 870.994 1799.5 870.993 1799.5 870.991C1800.35 870.196 1801.68 870.237 1802.47 871.083C1803.27 871.929 1803.23 873.26 1802.38 874.055C1802.38 874.056 1802.38 874.058 1802.38 874.06C1801.53 874.855 1800.2 874.814 1799.4 873.968ZM1258.18 340.003C1257.32 339.22 1257.26 337.889 1258.05 337.032C1258.05 337.031 1258.05 337.029 1258.05 337.027C1258.83 336.171 1260.16 336.111 1261.02 336.895C1261.88 337.679 1261.94 339.009 1261.15 339.866C1261.15 339.868 1261.15 339.869 1261.15 339.871C1260.36 340.728 1259.03 340.787 1258.18 340.003ZM1788.54 883.693C1787.77 882.818 1787.87 881.489 1788.74 880.727C1788.74 880.725 1788.74 880.723 1788.75 880.722C1789.62 879.959 1790.95 880.051 1791.71 880.927C1792.48 881.802 1792.38 883.13 1791.51 883.893C1791.51 883.894 1791.51 883.897 1791.5 883.898C1790.63 884.661 1789.3 884.569 1788.54 883.693ZM1248.6 351C1247.71 350.25 1247.6 348.923 1248.36 348.037C1248.36 348.035 1248.36 348.033 1248.36 348.031C1249.11 347.145 1250.44 347.036 1251.32 347.787C1252.21 348.538 1252.32 349.864 1251.57 350.75C1251.57 350.751 1251.57 350.753 1251.56 350.755C1250.81 351.641 1249.49 351.751 1248.6 351ZM1777.32 892.991C1776.59 892.086 1776.73 890.762 1777.63 890.034C1777.64 890.032 1777.64 890.031 1777.64 890.029C1778.54 889.301 1779.87 889.443 1780.6 890.346C1781.33 891.25 1781.18 892.575 1780.28 893.303C1780.28 893.305 1780.28 893.306 1780.27 893.308C1779.37 894.036 1778.05 893.895 1777.32 892.991ZM1239.46 362.344C1238.54 361.628 1238.38 360.306 1239.1 359.392C1239.1 359.39 1239.1 359.389 1239.1 359.387C1239.82 358.473 1241.14 358.312 1242.05 359.029C1242.97 359.745 1243.13 361.067 1242.41 361.981C1242.41 361.983 1242.41 361.985 1242.41 361.987C1241.69 362.9 1240.37 363.061 1239.46 362.344ZM1768.7 902.278C1767.77 902.972 1766.45 902.778 1765.76 901.847C1765.06 900.916 1765.26 899.599 1766.19 898.905C1766.19 898.904 1766.19 898.902 1766.19 898.901C1767.12 898.207 1768.44 898.4 1769.14 899.331C1769.83 900.263 1769.64 901.58 1768.7 902.274C1768.7 902.275 1768.7 902.277 1768.7 902.278ZM1230.76 374.023C1229.82 373.343 1229.6 372.028 1230.29 371.087C1230.29 371.085 1230.29 371.083 1230.29 371.081C1230.97 370.141 1232.29 369.93 1233.23 370.611C1234.17 371.292 1234.38 372.607 1233.7 373.548C1233.69 373.55 1233.69 373.552 1233.69 373.553C1233.01 374.494 1231.7 374.704 1230.76 374.023ZM1756.76 910.814C1755.81 911.471 1754.5 911.227 1753.84 910.27C1753.18 909.313 1753.43 908.004 1754.38 907.347C1754.39 907.345 1754.39 907.344 1754.39 907.342C1755.35 906.685 1756.66 906.929 1757.31 907.886C1757.97 908.843 1757.73 910.151 1756.77 910.809C1756.77 910.81 1756.77 910.812 1756.76 910.814ZM1222.49 386.051C1221.53 385.407 1221.27 384.102 1221.91 383.136C1221.91 383.134 1221.91 383.131 1221.92 383.129C1222.56 382.163 1223.87 381.903 1224.83 382.547C1225.8 383.191 1226.06 384.496 1225.41 385.463C1225.41 385.464 1225.41 385.466 1225.41 385.468C1224.77 386.434 1223.46 386.695 1222.49 386.051ZM1744.52 918.878C1743.54 919.498 1742.24 919.204 1741.62 918.223C1741 917.241 1741.29 915.942 1742.27 915.322C1742.28 915.321 1742.28 915.32 1742.28 915.319C1743.26 914.699 1744.56 914.992 1745.18 915.974C1745.8 916.956 1745.51 918.254 1744.53 918.874C1744.52 918.875 1744.52 918.877 1744.52 918.878ZM1214.71 398.381C1213.72 397.775 1213.41 396.48 1214.01 395.49C1214.01 395.488 1214.02 395.485 1214.02 395.483C1214.62 394.493 1215.92 394.182 1216.91 394.789C1217.9 395.395 1218.21 396.69 1217.6 397.68C1217.6 397.682 1217.6 397.684 1217.6 397.686C1216.99 398.676 1215.7 398.987 1214.71 398.381ZM1731.98 926.461C1730.97 927.043 1729.69 926.699 1729.1 925.694C1728.52 924.689 1728.87 923.402 1729.87 922.821C1729.87 922.82 1729.87 922.819 1729.88 922.817C1730.88 922.236 1732.17 922.579 1732.75 923.585C1733.33 924.59 1732.99 925.876 1731.98 926.458C1731.98 926.459 1731.98 926.46 1731.98 926.461ZM1207.41 410.995C1206.39 410.427 1206.03 409.146 1206.6 408.133C1206.6 408.131 1206.6 408.128 1206.6 408.126C1207.17 407.114 1208.45 406.753 1209.47 407.321C1210.48 407.888 1210.84 409.17 1210.27 410.183C1210.27 410.185 1210.27 410.187 1210.27 410.189C1209.7 411.202 1208.42 411.563 1207.41 410.995ZM1719.16 933.553C1718.13 934.095 1716.86 933.702 1716.31 932.675C1715.77 931.648 1716.16 930.376 1717.19 929.834C1717.19 929.833 1717.2 929.832 1717.2 929.831C1718.22 929.288 1719.5 929.681 1720.04 930.708C1720.58 931.735 1720.19 933.007 1719.16 933.549C1719.16 933.55 1719.16 933.551 1719.16 933.553ZM1200.6 423.878C1199.56 423.349 1199.15 422.082 1199.68 421.048C1199.68 421.046 1199.69 421.044 1199.69 421.042C1200.21 420.008 1201.48 419.598 1202.52 420.127C1203.55 420.655 1203.96 421.922 1203.43 422.956C1203.43 422.958 1203.43 422.96 1203.43 422.962C1202.9 423.996 1201.63 424.406 1200.6 423.878ZM1706.06 940.148C1705.01 940.65 1703.76 940.208 1703.26 939.162C1702.75 938.115 1703.19 936.858 1704.24 936.356C1704.24 936.355 1704.25 936.354 1704.25 936.353C1705.3 935.851 1706.55 936.292 1707.05 937.339C1707.56 938.386 1707.11 939.642 1706.07 940.145C1706.06 940.146 1706.06 940.147 1706.06 940.148ZM1194.29 437.022C1193.24 436.534 1192.78 435.284 1193.26 434.231C1193.27 434.229 1193.27 434.227 1193.27 434.225C1193.76 433.171 1195.01 432.712 1196.06 433.2C1197.11 433.688 1197.57 434.938 1197.08 435.992C1197.08 435.994 1197.08 435.996 1197.08 435.998C1196.59 437.052 1195.34 437.51 1194.29 437.022ZM1692.72 946.233C1691.65 946.695 1690.42 946.205 1689.95 945.14C1689.49 944.074 1689.98 942.836 1691.05 942.375C1691.05 942.374 1691.05 942.373 1691.05 942.372C1692.12 941.911 1693.36 942.4 1693.82 943.466C1694.28 944.531 1693.79 945.769 1692.73 946.231C1692.72 946.232 1692.72 946.232 1692.72 946.233ZM1188.49 450.403C1187.42 449.956 1186.91 448.725 1187.36 447.654C1187.36 447.651 1187.36 447.649 1187.36 447.647C1187.81 446.575 1189.04 446.069 1190.11 446.516C1191.18 446.963 1191.69 448.194 1191.24 449.265C1191.24 449.268 1191.24 449.27 1191.24 449.272C1190.79 450.344 1189.56 450.85 1188.49 450.403ZM1679.16 951.799C1678.07 952.219 1676.86 951.681 1676.44 950.599C1676.02 949.516 1676.55 948.298 1677.64 947.878C1677.64 947.877 1677.64 947.876 1677.64 947.875C1678.73 947.455 1679.94 947.993 1680.36 949.075C1680.78 950.157 1680.25 951.376 1679.16 951.796C1679.16 951.797 1679.16 951.798 1679.16 951.799ZM1183.21 463.993C1182.13 463.588 1181.57 462.377 1181.98 461.289C1181.98 461.287 1181.98 461.284 1181.98 461.282C1182.39 460.194 1183.6 459.641 1184.69 460.046C1185.77 460.452 1186.33 461.662 1185.92 462.75C1185.92 462.753 1185.92 462.755 1185.92 462.757C1185.51 463.845 1184.3 464.398 1183.21 463.993ZM1665.39 956.836C1664.3 957.214 1663.1 956.631 1662.72 955.533C1662.34 954.435 1662.93 953.239 1664.02 952.86C1664.03 952.86 1664.03 952.858 1664.03 952.858C1665.13 952.479 1666.33 953.063 1666.7 954.161C1667.08 955.259 1666.5 956.456 1665.4 956.834C1665.4 956.835 1665.4 956.836 1665.39 956.836ZM1178.47 477.774C1177.36 477.411 1176.76 476.222 1177.13 475.119C1177.13 475.117 1177.13 475.115 1177.13 475.113C1177.49 474.01 1178.68 473.41 1179.78 473.773C1180.89 474.136 1181.49 475.325 1181.12 476.428C1181.12 476.43 1181.12 476.433 1181.12 476.435C1180.76 477.538 1179.57 478.137 1178.47 477.774ZM1651.45 961.34C1650.34 961.676 1649.16 961.047 1648.83 959.936C1648.49 958.825 1649.12 957.651 1650.23 957.315C1650.23 957.314 1650.24 957.314 1650.24 957.313C1651.35 956.977 1652.52 957.607 1652.86 958.718C1653.2 959.83 1652.57 961.003 1651.45 961.339C1651.45 961.34 1651.45 961.34 1651.45 961.34ZM1174.25 491.725C1173.14 491.405 1172.49 490.241 1172.81 489.125C1172.81 489.123 1172.81 489.12 1172.81 489.118C1173.13 488.002 1174.3 487.357 1175.41 487.677C1176.53 487.998 1177.18 489.162 1176.86 490.278C1176.85 490.281 1176.85 490.284 1176.85 490.286C1176.53 491.402 1175.37 492.046 1174.25 491.725ZM1637.33 965.308C1636.21 965.601 1635.06 964.927 1634.77 963.804C1634.48 962.68 1635.15 961.532 1636.27 961.239C1636.27 961.238 1636.28 961.238 1636.28 961.237C1637.4 960.944 1638.55 961.619 1638.84 962.742C1639.14 963.866 1638.46 965.013 1637.34 965.306C1637.34 965.307 1637.33 965.308 1637.33 965.308ZM1170.57 505.836C1169.45 505.558 1168.76 504.42 1169.03 503.292C1169.03 503.29 1169.04 503.287 1169.04 503.285C1169.31 502.158 1170.45 501.469 1171.58 501.746C1172.71 502.023 1173.4 503.162 1173.12 504.29C1173.12 504.292 1173.12 504.295 1173.12 504.298C1172.84 505.425 1171.7 506.113 1170.57 505.836ZM1623.08 968.732C1621.94 968.981 1620.82 968.264 1620.57 967.13C1620.32 965.996 1621.04 964.874 1622.17 964.625C1622.18 964.624 1622.18 964.624 1622.18 964.623C1623.32 964.374 1624.44 965.09 1624.69 966.224C1624.94 967.359 1624.22 968.481 1623.08 968.73C1623.08 968.731 1623.08 968.731 1623.08 968.732ZM1167.44 520.076C1166.3 519.841 1165.57 518.73 1165.8 517.592C1165.8 517.59 1165.81 517.588 1165.81 517.585C1166.04 516.448 1167.15 515.715 1168.29 515.949C1169.43 516.184 1170.16 517.296 1169.92 518.433C1169.92 518.435 1169.92 518.438 1169.92 518.44C1169.69 519.577 1168.58 520.31 1167.44 520.076ZM1608.7 971.607C1607.56 971.812 1606.47 971.053 1606.26 969.91C1606.06 968.767 1606.82 967.674 1607.96 967.468C1607.96 967.467 1607.96 967.467 1607.97 967.466C1609.11 967.26 1610.2 968.02 1610.41 969.162C1610.61 970.305 1609.85 971.399 1608.71 971.605C1608.71 971.605 1608.71 971.606 1608.7 971.607ZM1164.85 534.422C1163.71 534.232 1162.93 533.149 1163.12 532.004C1163.12 532.001 1163.12 531.999 1163.12 531.997C1163.32 530.851 1164.4 530.076 1165.54 530.266C1166.69 530.457 1167.46 531.541 1167.27 532.686C1167.27 532.688 1167.27 532.691 1167.27 532.693C1167.08 533.839 1166 534.612 1164.85 534.422ZM1594.23 973.93C1593.08 974.092 1592.02 973.292 1591.86 972.142C1591.69 970.992 1592.5 969.928 1593.65 969.766C1593.65 969.766 1593.65 969.765 1593.65 969.764C1594.8 969.602 1595.87 970.403 1596.03 971.553C1596.19 972.703 1595.39 973.766 1594.24 973.929C1594.24 973.929 1594.23 973.93 1594.23 973.93ZM1162.82 548.856C1161.66 548.71 1160.85 547.657 1161 546.505C1161 546.503 1161 546.5 1161 546.498C1161.14 545.346 1162.2 544.531 1163.35 544.678C1164.5 544.825 1165.32 545.877 1165.17 547.029C1165.17 547.032 1165.17 547.034 1165.17 547.036C1165.02 548.188 1163.97 549.003 1162.82 548.856ZM1579.68 975.699C1578.53 975.818 1577.49 974.977 1577.38 973.822C1577.26 972.667 1578.1 971.635 1579.25 971.516C1579.26 971.516 1579.26 971.516 1579.26 971.516C1580.42 971.397 1581.45 972.238 1581.57 973.393C1581.69 974.548 1580.84 975.581 1579.69 975.699C1579.69 975.7 1579.68 975.699 1579.68 975.699ZM1161.33 563.358C1160.17 563.256 1159.32 562.235 1159.42 561.078C1159.42 561.076 1159.42 561.073 1159.42 561.071C1159.53 559.914 1160.55 559.059 1161.7 559.162C1162.86 559.265 1163.72 560.286 1163.61 561.443C1163.61 561.445 1163.61 561.447 1163.61 561.449C1163.51 562.606 1162.49 563.461 1161.33 563.358ZM1565.07 976.914C1563.91 976.988 1562.91 976.109 1562.84 974.95C1562.77 973.791 1563.65 972.791 1564.8 972.717C1564.81 972.717 1564.81 972.717 1564.81 972.717C1565.97 972.643 1566.97 973.523 1567.04 974.681C1567.12 975.84 1566.24 976.84 1565.08 976.914C1565.08 976.914 1565.08 976.914 1565.07 976.914ZM1160.4 577.908C1159.24 577.85 1158.35 576.862 1158.41 575.702C1158.41 575.7 1158.41 575.698 1158.41 575.695C1158.46 574.536 1159.45 573.643 1160.61 573.701C1161.77 573.76 1162.66 574.747 1162.61 575.907C1162.61 575.909 1162.61 575.912 1162.61 575.914C1162.55 577.074 1161.56 577.967 1160.4 577.908ZM1550.43 977.571C1549.27 977.601 1548.3 976.684 1548.27 975.523C1548.24 974.362 1549.16 973.397 1550.32 973.367C1550.32 973.367 1550.33 973.366 1550.33 973.366C1551.49 973.336 1552.45 974.253 1552.48 975.414C1552.51 976.575 1551.6 977.541 1550.44 977.571C1550.43 977.571 1550.43 977.571 1550.43 977.571ZM1160.02 592.482C1158.86 592.468 1157.93 591.515 1157.95 590.353C1157.95 590.351 1157.95 590.349 1157.95 590.346C1157.96 589.185 1158.91 588.256 1160.07 588.27C1161.24 588.284 1162.17 589.238 1162.15 590.399C1162.15 590.401 1162.15 590.404 1162.15 590.406C1162.14 591.567 1161.18 592.496 1160.02 592.482ZM1535.77 977.67C1534.61 977.656 1533.68 976.703 1533.69 975.542C1533.71 974.381 1534.66 973.451 1535.82 973.465C1535.83 973.465 1535.83 973.465 1535.83 973.465C1536.99 973.479 1537.92 974.432 1537.91 975.593C1537.89 976.754 1536.94 977.684 1535.78 977.67C1535.78 977.67 1535.77 977.67 1535.77 977.67ZM1160.2 607.059C1159.04 607.089 1158.08 606.172 1158.05 605.012C1158.05 605.009 1158.05 605.007 1158.05 605.005C1158.02 603.844 1158.93 602.878 1160.09 602.848C1161.25 602.818 1162.22 603.735 1162.25 604.896C1162.25 604.898 1162.25 604.9 1162.25 604.902C1162.28 606.063 1161.36 607.029 1160.2 607.059ZM1521.12 977.211C1519.96 977.152 1519.07 976.164 1519.13 975.005C1519.18 973.845 1520.17 972.952 1521.33 973.01C1521.33 973.01 1521.34 973.011 1521.34 973.011C1522.5 973.069 1523.39 974.057 1523.33 975.217C1523.27 976.376 1522.29 977.269 1521.13 977.211C1521.12 977.211 1521.12 977.211 1521.12 977.211ZM1160.94 621.619C1159.78 621.693 1158.78 620.814 1158.7 619.655C1158.7 619.653 1158.7 619.651 1158.7 619.648C1158.63 618.489 1159.51 617.49 1160.67 617.416C1161.83 617.341 1162.83 618.221 1162.9 619.38C1162.9 619.382 1162.9 619.384 1162.9 619.387C1162.97 620.545 1162.09 621.545 1160.94 621.619ZM1506.5 976.194C1505.34 976.091 1504.48 975.069 1504.59 973.913C1504.69 972.756 1505.71 971.902 1506.87 972.004C1506.87 972.005 1506.87 972.005 1506.87 972.005C1508.03 972.108 1508.89 973.129 1508.78 974.285C1508.68 975.442 1507.66 976.296 1506.5 976.194C1506.5 976.193 1506.5 976.194 1506.5 976.194ZM1162.22 636.142C1161.07 636.26 1160.04 635.42 1159.92 634.265C1159.92 634.262 1159.92 634.26 1159.92 634.258C1159.8 633.102 1160.64 632.07 1161.79 631.952C1162.95 631.833 1163.98 632.674 1164.1 633.829C1164.1 633.831 1164.1 633.834 1164.1 633.836C1164.22 634.992 1163.38 636.024 1162.22 636.142ZM1491.92 974.62C1490.77 974.473 1489.96 973.42 1490.1 972.268C1490.25 971.116 1491.3 970.301 1492.45 970.448C1492.46 970.448 1492.46 970.449 1492.46 970.449C1493.61 970.596 1494.43 971.649 1494.28 972.801C1494.13 973.953 1493.08 974.768 1491.93 974.621C1491.93 974.621 1491.93 974.62 1491.92 974.62ZM1164.06 650.603C1162.91 650.765 1161.85 649.965 1161.69 648.815C1161.69 648.813 1161.69 648.81 1161.69 648.808C1161.52 647.658 1162.33 646.594 1163.48 646.432C1164.62 646.27 1165.69 647.071 1165.85 648.221C1165.85 648.223 1165.85 648.225 1165.85 648.227C1166.01 649.377 1165.21 650.44 1164.06 650.603ZM1477.42 972.492C1476.28 972.301 1475.5 971.218 1475.69 970.072C1475.88 968.927 1476.97 968.153 1478.11 968.343C1478.11 968.344 1478.12 968.344 1478.12 968.345C1479.26 968.535 1480.04 969.618 1479.85 970.764C1479.66 971.909 1478.57 972.683 1477.43 972.493C1477.43 972.493 1477.42 972.492 1477.42 972.492ZM1166.45 664.983C1165.31 665.189 1164.22 664.429 1164.01 663.286C1164.01 663.284 1164.01 663.282 1164.01 663.279C1163.8 662.137 1164.56 661.043 1165.71 660.837C1166.85 660.631 1167.94 661.391 1168.15 662.534C1168.15 662.536 1168.15 662.539 1168.15 662.541C1168.36 663.683 1167.6 664.777 1166.45 664.983ZM1463.01 969.811C1461.87 969.577 1461.14 968.465 1461.37 967.327C1461.61 966.19 1462.72 965.458 1463.86 965.692C1463.86 965.693 1463.86 965.693 1463.86 965.694C1465 965.928 1465.73 967.04 1465.5 968.177C1465.27 969.314 1464.15 970.046 1463.02 969.812C1463.01 969.812 1463.01 969.812 1463.01 969.811ZM1169.39 679.262C1168.26 679.511 1167.14 678.794 1166.89 677.66C1166.89 677.658 1166.89 677.655 1166.89 677.653C1166.64 676.519 1167.35 675.397 1168.49 675.148C1169.62 674.898 1170.74 675.616 1170.99 676.75C1170.99 676.752 1170.99 676.754 1170.99 676.757C1171.24 677.891 1170.53 679.012 1169.39 679.262ZM1448.71 966.58C1447.58 966.302 1446.89 965.164 1447.17 964.037C1447.45 962.909 1448.59 962.219 1449.71 962.497C1449.72 962.497 1449.72 962.498 1449.72 962.499C1450.85 962.776 1451.54 963.915 1451.26 965.043C1450.98 966.17 1449.84 966.859 1448.72 966.582C1448.72 966.581 1448.71 966.581 1448.71 966.58ZM1172.87 693.42C1171.75 693.712 1170.6 693.039 1170.31 691.915C1170.31 691.913 1170.31 691.91 1170.31 691.908C1170.02 690.784 1170.69 689.637 1171.81 689.344C1172.94 689.051 1174.08 689.724 1174.38 690.848C1174.38 690.85 1174.38 690.853 1174.38 690.855C1174.67 691.979 1174 693.127 1172.87 693.42ZM1434.54 962.804C1433.43 962.483 1432.78 961.318 1433.1 960.202C1433.42 959.086 1434.59 958.441 1435.7 958.762C1435.71 958.762 1435.71 958.763 1435.71 958.764C1436.83 959.084 1437.47 960.249 1437.15 961.365C1436.83 962.481 1435.67 963.125 1434.55 962.805C1434.55 962.804 1434.54 962.804 1434.54 962.804ZM1176.9 707.436C1175.79 707.771 1174.61 707.142 1174.28 706.03C1174.28 706.028 1174.28 706.026 1174.28 706.023C1173.94 704.912 1174.57 703.739 1175.68 703.403C1176.79 703.067 1177.97 703.696 1178.3 704.808C1178.3 704.81 1178.3 704.813 1178.3 704.815C1178.64 705.927 1178.01 707.1 1176.9 707.436ZM1420.54 958.488C1419.43 958.124 1418.83 956.936 1419.2 955.833C1419.56 954.73 1420.75 954.13 1421.85 954.493C1421.86 954.494 1421.86 954.495 1421.86 954.496C1422.96 954.859 1423.56 956.047 1423.2 957.15C1422.84 958.253 1421.65 958.853 1420.54 958.49C1420.54 958.489 1420.54 958.488 1420.54 958.488ZM1181.46 721.28C1180.36 721.658 1179.16 721.074 1178.78 719.976C1178.78 719.974 1178.78 719.971 1178.78 719.969C1178.4 718.871 1178.99 717.675 1180.08 717.297C1181.18 716.919 1182.38 717.502 1182.76 718.6C1182.76 718.602 1182.76 718.604 1182.76 718.607C1183.14 719.705 1182.55 720.901 1181.46 721.28ZM1406.71 953.636C1405.62 953.23 1405.07 952.019 1405.47 950.931C1405.88 949.843 1407.09 949.29 1408.18 949.695C1408.18 949.696 1408.18 949.697 1408.18 949.698C1409.27 950.103 1409.82 951.314 1409.42 952.402C1409.01 953.49 1407.8 954.044 1406.71 953.639C1406.71 953.638 1406.71 953.637 1406.71 953.636ZM1186.54 734.939C1185.46 735.359 1184.24 734.822 1183.82 733.74C1183.82 733.738 1183.82 733.735 1183.82 733.733C1183.4 732.65 1183.94 731.432 1185.02 731.012C1186.1 730.592 1187.32 731.129 1187.74 732.211C1187.74 732.214 1187.74 732.216 1187.74 732.218C1188.16 733.301 1187.62 734.519 1186.54 734.939ZM1393.07 948.254C1392 947.807 1391.49 946.576 1391.94 945.504C1392.39 944.433 1393.62 943.926 1394.69 944.373C1394.69 944.374 1394.69 944.375 1394.7 944.376C1395.77 944.823 1396.28 946.054 1395.83 947.126C1395.38 948.197 1394.15 948.704 1393.08 948.257C1393.08 948.256 1393.07 948.255 1393.07 948.254ZM1192.15 748.395C1191.09 748.856 1189.85 748.367 1189.39 747.301C1189.39 747.299 1189.38 747.297 1189.38 747.294C1188.92 746.229 1189.41 744.991 1190.48 744.53C1191.54 744.068 1192.78 744.558 1193.24 745.623C1193.24 745.626 1193.24 745.628 1193.24 745.63C1193.71 746.696 1193.22 747.934 1192.15 748.395ZM1379.65 942.349C1378.6 941.861 1378.14 940.611 1378.62 939.557C1379.11 938.503 1380.36 938.045 1381.42 938.533C1381.42 938.534 1381.42 938.535 1381.42 938.536C1382.48 939.024 1382.93 940.274 1382.45 941.328C1381.96 942.381 1380.71 942.84 1379.66 942.352C1379.65 942.351 1379.65 942.35 1379.65 942.349ZM1198.28 761.629C1197.23 762.132 1195.97 761.689 1195.47 760.642C1195.47 760.64 1195.47 760.638 1195.47 760.636C1194.97 759.589 1195.41 758.334 1196.46 757.831C1197.5 757.329 1198.76 757.77 1199.26 758.817C1199.26 758.819 1199.26 758.822 1199.26 758.824C1199.77 759.871 1199.32 761.127 1198.28 761.629ZM1366.47 935.931C1365.43 935.402 1365.02 934.135 1365.55 933.101C1366.08 932.067 1367.35 931.658 1368.38 932.186C1368.38 932.187 1368.38 932.188 1368.39 932.189C1369.42 932.718 1369.83 933.984 1369.3 935.018C1368.77 936.052 1367.51 936.462 1366.47 935.934C1366.47 935.933 1366.47 935.932 1366.47 935.931ZM1204.91 774.614C1203.88 775.156 1202.61 774.763 1202.07 773.737C1202.07 773.735 1202.07 773.733 1202.06 773.731C1201.52 772.704 1201.92 771.431 1202.94 770.889C1203.97 770.347 1205.24 770.74 1205.78 771.766C1205.78 771.768 1205.79 771.771 1205.79 771.773C1206.33 772.799 1205.94 774.072 1204.91 774.614ZM1353.55 929.013C1352.54 928.445 1352.18 927.163 1352.75 926.151C1353.31 925.138 1354.59 924.777 1355.61 925.345C1355.61 925.346 1355.61 925.347 1355.61 925.348C1356.63 925.916 1356.99 927.198 1356.42 928.21C1355.85 929.223 1354.57 929.584 1353.56 929.016C1353.56 929.015 1353.55 929.014 1353.55 929.013ZM1212.03 787.325C1211.03 787.907 1209.74 787.563 1209.16 786.558C1209.16 786.556 1209.16 786.554 1209.16 786.552C1208.57 785.547 1208.92 784.26 1209.92 783.679C1210.93 783.097 1212.21 783.441 1212.8 784.446C1212.8 784.448 1212.8 784.45 1212.8 784.452C1213.38 785.457 1213.04 786.744 1212.03 787.325ZM1340.91 921.6C1339.92 920.993 1339.61 919.699 1340.21 918.709C1340.82 917.719 1342.11 917.407 1343.1 918.014C1343.11 918.015 1343.11 918.016 1343.11 918.017C1344.1 918.624 1344.41 919.919 1343.81 920.909C1343.2 921.899 1341.9 922.21 1340.91 921.604C1340.91 921.602 1340.91 921.601 1340.91 921.6ZM1219.64 799.755C1218.66 800.375 1217.36 800.082 1216.74 799.1C1216.74 799.098 1216.74 799.095 1216.74 799.094C1216.12 798.112 1216.41 796.813 1217.39 796.193C1218.38 795.573 1219.67 795.867 1220.29 796.849C1220.3 796.851 1220.3 796.853 1220.3 796.855C1220.92 797.837 1220.62 799.136 1219.64 799.755ZM1328.55 913.7C1327.59 913.056 1327.33 911.751 1327.97 910.785C1328.62 909.819 1329.92 909.558 1330.89 910.202C1330.89 910.203 1330.89 910.205 1330.89 910.206C1331.86 910.85 1332.12 912.156 1331.48 913.122C1330.83 914.088 1329.53 914.349 1328.56 913.705C1328.56 913.704 1328.56 913.702 1328.55 913.7ZM1227.73 811.889C1226.77 812.546 1225.46 812.303 1224.81 811.345C1224.81 811.343 1224.8 811.342 1224.8 811.34C1224.15 810.382 1224.39 809.074 1225.35 808.416C1226.3 807.759 1227.61 808.003 1228.27 808.96C1228.27 808.962 1228.27 808.964 1228.27 808.966C1228.93 809.923 1228.69 811.232 1227.73 811.889ZM1316.51 905.327C1315.57 904.646 1315.35 903.331 1316.04 902.391C1316.72 901.45 1318.03 901.24 1318.97 901.921C1318.97 901.922 1318.98 901.923 1318.98 901.925C1319.92 902.606 1320.13 903.92 1319.45 904.861C1318.77 905.801 1317.45 906.012 1316.51 905.331C1316.51 905.33 1316.51 905.329 1316.51 905.327ZM1236.28 823.71C1235.35 824.403 1234.04 824.211 1233.34 823.28C1233.34 823.278 1233.34 823.276 1233.34 823.274C1232.65 822.343 1232.84 821.025 1233.77 820.332C1234.7 819.638 1236.02 819.831 1236.71 820.762C1236.71 820.764 1236.71 820.766 1236.72 820.768C1237.41 821.699 1237.22 823.016 1236.28 823.71ZM1304.81 896.514C1303.9 895.797 1303.74 894.475 1304.45 893.562C1305.17 892.648 1306.49 892.488 1307.41 893.205C1307.41 893.206 1307.41 893.207 1307.41 893.209C1308.33 893.925 1308.49 895.247 1307.77 896.161C1307.05 897.075 1305.73 897.235 1304.82 896.518C1304.82 896.517 1304.81 896.515 1304.81 896.514ZM1242.31 834.854C1242.31 834.852 1242.31 834.851 1242.31 834.849C1241.58 833.945 1241.72 832.621 1242.63 831.892C1243.53 831.164 1244.85 831.306 1245.58 832.21C1245.58 832.212 1245.59 832.214 1245.59 832.216C1246.32 833.12 1246.17 834.443 1245.27 835.172C1244.37 835.901 1243.04 835.758 1242.31 834.854ZM1293.46 887.256C1292.57 886.505 1292.46 885.179 1293.21 884.293C1293.96 883.407 1295.29 883.297 1296.17 884.048C1296.18 884.049 1296.18 884.051 1296.18 884.053C1297.07 884.803 1297.18 886.13 1296.42 887.016C1295.67 887.902 1294.35 888.012 1293.46 887.261C1293.46 887.26 1293.46 887.257 1293.46 887.256ZM1251.72 846.084C1251.72 846.082 1251.72 846.08 1251.72 846.078C1250.96 845.203 1251.05 843.874 1251.92 843.112C1252.8 842.349 1254.13 842.441 1254.89 843.317C1254.89 843.319 1254.89 843.32 1254.9 843.322C1255.66 844.197 1255.57 845.526 1254.69 846.288C1253.81 847.051 1252.49 846.959 1251.72 846.084ZM1282.45 877.566C1281.6 876.782 1281.54 875.452 1282.32 874.595C1283.1 873.738 1284.43 873.68 1285.29 874.463C1285.29 874.465 1285.29 874.467 1285.3 874.468C1286.15 875.252 1286.21 876.582 1285.43 877.439C1284.64 878.295 1283.31 878.354 1282.46 877.571C1282.46 877.569 1282.45 877.567 1282.45 877.566ZM1261.56 856.95C1260.76 856.104 1260.8 854.773 1261.65 853.978C1262.49 853.183 1263.83 853.225 1264.62 854.071C1264.62 854.072 1264.62 854.074 1264.63 854.076C1265.42 854.922 1265.38 856.253 1264.53 857.048C1263.69 857.844 1262.36 857.802 1261.56 856.956C1261.56 856.954 1261.56 856.952 1261.56 856.95ZM1271.81 867.455C1270.98 866.639 1270.97 865.308 1271.79 864.481C1272.61 863.655 1273.94 863.646 1274.76 864.461L1274.77 864.467C1275.6 865.282 1275.6 866.614 1274.79 867.44C1273.97 868.267 1272.64 868.276 1271.82 867.46L1271.81 867.455Z" fill="#777777"/>
<path d="M1315.04 904.198C1314.1 903.513 1313.9 902.198 1314.58 901.26C1315.27 900.322 1316.58 900.116 1317.52 900.8C1379.65 946.12 1454.11 971.435 1530.98 973.373C1532.15 973.403 1533.06 974.368 1533.03 975.528C1533 976.689 1532.04 977.606 1530.88 977.577C1453.15 975.618 1377.86 950.021 1315.04 904.198Z" fill="#D2A6FB"/>
<path d="M1433.86 232.043C1432.74 232.37 1431.57 231.733 1431.25 230.619C1430.92 229.505 1431.56 228.336 1432.67 228.009C1466.87 217.962 1502.3 212.743 1537.94 212.502C1539.1 212.494 1540.05 213.429 1540.05 214.59C1540.06 215.752 1539.13 216.699 1537.97 216.707C1502.72 216.945 1467.68 222.107 1433.86 232.043Z" fill="#F49F00"/>
<path d="M1550 594.003V596.003H1528V594.003H1550Z" fill="#A4A4A4"/>
<path d="M1540 584.003V606.003H1538V584.003H1540Z" fill="#A4A4A4"/>
</svg>
