<svg width="555" height="264" viewBox="0 0 555 264" fill="none" xmlns="http://www.w3.org/2000/svg">
<path d="M4.37112e-08 133.726L0 133.226L423 133.226V133.726L4.37112e-08 133.726Z" fill="#A4A4A4"/>
<path d="M454.121 100.606C453.531 100.024 453.525 99.0741 454.107 98.4844C454.688 97.8947 455.638 97.8884 456.228 98.4701L456.23 98.4722C456.82 99.054 456.826 100.004 456.244 100.593C455.663 101.183 454.713 101.189 454.123 100.608L454.121 100.606ZM464.441 112.487C463.706 112.869 462.8 112.582 462.419 111.846L462.419 111.844C462.037 111.109 462.324 110.203 463.06 109.822C463.795 109.441 464.7 109.728 465.082 110.463L465.083 110.466C465.464 111.201 465.177 112.106 464.441 112.487ZM442.771 92.462C442.031 92.0908 441.732 91.1894 442.103 90.4488C442.474 89.7083 443.375 89.4087 444.116 89.7798L444.118 89.7812C444.859 90.1526 445.158 91.054 444.787 91.7945C444.415 92.5349 443.514 92.8339 442.773 92.4627L442.771 92.462ZM468.539 126.338C467.721 126.473 466.949 125.919 466.815 125.101V125.099C466.681 124.281 467.235 123.509 468.052 123.375C468.869 123.241 469.641 123.795 469.776 124.612L469.776 124.615C469.91 125.432 469.356 126.204 468.539 126.338ZM429.458 88.2457C428.639 88.1223 428.075 87.3579 428.198 86.5388C428.321 85.7196 429.086 85.1554 429.905 85.2788L429.908 85.2788C430.727 85.4023 431.291 86.1666 431.168 86.9856C431.044 87.8048 430.279 88.3684 429.46 88.245L429.458 88.2457ZM468.169 140.778C467.35 140.654 466.787 139.89 466.91 139.071L466.909 139.069C467.033 138.25 467.797 137.686 468.616 137.809C469.435 137.933 470 138.697 469.876 139.516L469.876 139.519C469.753 140.338 468.988 140.902 468.169 140.778ZM415.488 88.3393C414.671 88.4738 413.898 87.9206 413.764 87.1031C413.629 86.2858 414.183 85.514 415.001 85.3794L415.003 85.3794C415.821 85.245 416.593 85.7989 416.727 86.6163C416.861 87.4336 416.308 88.2056 415.49 88.34L415.488 88.3393ZM463.361 154.398C462.62 154.027 462.321 153.125 462.692 152.385L462.693 152.383C463.064 151.642 463.966 151.343 464.706 151.714C465.447 152.086 465.746 152.986 465.375 153.727L465.374 153.73C465.002 154.47 464.101 154.769 463.361 154.398ZM402.233 92.7365C401.498 93.1176 400.592 92.8308 400.211 92.0955C399.83 91.3601 400.117 90.4547 400.852 90.0734L400.855 90.072C401.59 89.6908 402.495 89.9783 402.876 90.7136C403.257 91.4492 402.971 92.3546 402.235 92.7358L402.233 92.7365ZM456.685 165.839L456.683 165.841C456.101 166.431 455.151 166.437 454.562 165.856C453.972 165.274 453.966 164.324 454.547 163.734L454.549 163.732C455.131 163.143 456.081 163.136 456.671 163.718C457.26 164.3 457.267 165.249 456.685 165.839ZM390.997 101.032L390.995 101.034C390.413 101.624 389.463 101.63 388.873 101.048C388.284 100.467 388.277 99.5168 388.859 98.9271L388.861 98.925C389.443 98.3354 390.393 98.3289 390.982 98.9107C391.572 99.4925 391.578 100.442 390.997 101.032ZM444.689 174.694C443.954 175.075 443.049 174.788 442.668 174.053C442.286 173.317 442.573 172.412 443.309 172.03L443.311 172.03C444.046 171.649 444.952 171.935 445.333 172.671C445.714 173.406 445.427 174.311 444.692 174.693L444.689 174.694ZM380.838 113.052C380.097 112.681 379.798 111.78 380.169 111.039L380.17 111.037C380.541 110.296 381.443 109.997 382.183 110.368C382.924 110.74 383.223 111.641 382.852 112.382L382.851 112.384C382.48 113.124 381.578 113.423 380.838 113.052ZM430.54 179.387C429.723 179.521 428.951 178.967 428.817 178.15C428.682 177.333 429.236 176.561 430.054 176.426L430.056 176.426C430.873 176.292 431.645 176.845 431.779 177.662C431.914 178.48 431.36 179.252 430.543 179.387L430.54 179.387ZM376.928 126.957C376.108 126.834 375.544 126.069 375.668 125.25V125.247C375.791 124.428 376.555 123.864 377.374 123.987C378.193 124.111 378.758 124.875 378.634 125.694V125.697C378.511 126.516 377.747 127.08 376.928 126.957ZM415.636 179.487C414.817 179.364 414.253 178.599 414.377 177.78C414.5 176.961 415.264 176.397 416.083 176.521L416.086 176.521C416.905 176.644 417.469 177.408 417.346 178.227C417.222 179.047 416.458 179.611 415.639 179.487L415.636 179.487ZM377.493 141.39C376.675 141.525 375.903 140.972 375.768 140.154L375.768 140.152C375.634 139.334 376.188 138.562 377.005 138.428C377.822 138.294 378.594 138.847 378.729 139.665L378.728 139.667C378.863 140.484 378.31 141.256 377.493 141.39ZM401.425 174.985C400.685 174.614 400.386 173.712 400.757 172.972C401.128 172.231 402.03 171.932 402.77 172.303L402.772 172.304C403.513 172.675 403.812 173.577 403.441 174.317C403.069 175.058 402.169 175.357 401.428 174.986L401.425 174.985ZM382.484 154.944C381.749 155.325 380.844 155.038 380.462 154.303L380.461 154.3C380.08 153.565 380.367 152.66 381.102 152.279C381.838 151.898 382.743 152.184 383.125 152.92L383.125 152.922C383.506 153.657 383.22 154.563 382.484 154.944ZM389.314 166.294C388.724 165.712 388.718 164.762 389.299 164.173C389.881 163.583 390.831 163.577 391.421 164.158L391.423 164.16C392.012 164.742 392.019 165.692 391.437 166.282C390.855 166.871 389.906 166.878 389.316 166.296L389.314 166.294Z" fill="#777777"/>
<path d="M392.393 169.078C391.755 168.55 391.666 167.604 392.194 166.966C392.723 166.328 393.668 166.239 394.306 166.767C399.185 170.807 404.87 173.761 410.979 175.435C417.089 177.108 423.485 177.462 429.742 176.473C430.561 176.344 431.328 176.903 431.458 177.721C431.587 178.539 431.029 179.307 430.211 179.437C423.534 180.492 416.707 180.115 410.186 178.329C403.666 176.543 397.601 173.389 392.393 169.078Z" fill="#89F574"/>
<path d="M484.055 70.1133C483.465 69.5315 483.459 68.5817 484.04 67.9921C484.622 67.4024 485.572 67.3962 486.162 67.9777L486.165 67.9805C486.754 68.5623 486.761 69.512 486.179 70.1017C485.597 70.6914 484.647 70.6979 484.058 70.1161L484.055 70.1133ZM495.131 80.7793C494.465 81.2715 493.526 81.1308 493.034 80.4648L493.032 80.4614C492.54 79.7952 492.681 78.8564 493.347 78.3641C494.013 77.8719 494.952 78.0126 495.444 78.6786L495.447 78.6821C495.939 79.3484 495.798 80.2872 495.131 80.7793ZM473.586 61.278C472.914 60.7947 472.76 59.8573 473.243 59.1845C473.726 58.5118 474.664 58.358 475.336 58.841L475.339 58.8437C476.012 59.3269 476.166 60.2643 475.683 60.9372C475.199 61.6098 474.263 61.7632 473.59 61.28L473.586 61.278ZM502.299 92.7285C501.563 93.1097 500.658 92.8217 500.276 92.0862L500.275 92.0834C499.894 91.348 500.181 90.4426 500.916 90.0613C501.651 89.6802 502.557 89.9671 502.938 90.7023L502.94 90.7064C503.321 91.4419 503.034 92.3474 502.299 92.7285ZM461.868 54.1927C461.127 53.8214 460.828 52.9206 461.199 52.1801C461.57 51.4395 462.471 51.1406 463.212 51.5119L463.215 51.5125C463.956 51.8838 464.256 52.7859 463.884 53.5265C463.513 54.267 462.612 54.5659 461.871 54.1947L461.868 54.1927ZM507.492 105.656C506.706 105.916 505.858 105.49 505.597 104.704L505.595 104.7C505.335 103.914 505.761 103.065 506.547 102.804C507.334 102.543 508.182 102.97 508.443 103.757L508.444 103.759C508.705 104.546 508.279 105.395 507.492 105.656ZM449.18 49.0433C448.39 48.7933 447.953 47.951 448.203 47.1612C448.453 46.3715 449.296 45.9332 450.085 46.1831L450.089 46.1852C450.878 46.4352 451.316 47.2776 451.066 48.0672C450.816 48.857 449.973 49.2954 449.183 49.0453L449.18 49.0433ZM510.595 119.237C509.778 119.372 509.006 118.818 508.871 118L508.871 117.997C508.736 117.18 509.29 116.408 510.107 116.273C510.925 116.139 511.697 116.693 511.831 117.51L511.831 117.514C511.965 118.331 511.412 119.103 510.595 119.237ZM435.84 45.9492C435.021 45.8259 434.457 45.0616 434.58 44.2424C434.704 43.4235 435.468 42.8599 436.287 42.9831L436.291 42.983C437.11 43.1065 437.674 43.8708 437.551 44.6899C437.427 45.509 436.663 46.0733 435.844 45.9499L435.84 45.9492ZM511.541 133.137C510.713 133.142 510.037 132.475 510.032 131.647L510.031 131.643C510.025 130.815 510.693 130.138 511.521 130.133C512.35 130.127 513.026 130.795 513.032 131.623L513.031 131.627C513.037 132.455 512.369 133.132 511.541 133.137ZM422.18 44.9732C421.351 44.9788 420.674 44.3119 420.668 43.4835C420.663 42.6552 421.33 41.9786 422.159 41.9729L422.163 41.9729C422.991 41.9674 423.668 42.6349 423.673 43.4632C423.679 44.2917 423.011 44.9676 422.182 44.9732L422.18 44.9732ZM510.315 147.015C509.496 146.892 508.932 146.127 509.055 145.308L509.056 145.305C509.179 144.486 509.943 143.921 510.762 144.045C511.581 144.168 512.145 144.932 512.022 145.751V145.755C511.898 146.574 511.134 147.138 510.315 147.015ZM408.533 46.1343C407.715 46.2688 406.943 45.7149 406.809 44.8975C406.675 44.0801 407.228 43.3082 408.046 43.1738L408.05 43.1737C408.867 43.0395 409.638 43.5927 409.773 44.4099C409.907 45.2274 409.353 45.9992 408.536 46.1336L408.533 46.1343ZM506.938 160.531C506.148 160.281 505.71 159.438 505.96 158.648L505.961 158.644C506.211 157.854 507.054 157.417 507.844 157.667C508.633 157.917 509.071 158.759 508.821 159.549L508.82 159.553C508.57 160.343 507.727 160.78 506.938 160.531ZM395.236 49.4096C394.45 49.6703 393.601 49.2434 393.34 48.457C393.08 47.6708 393.506 46.8226 394.292 46.562L394.296 46.5599C395.082 46.2993 395.931 46.7261 396.191 47.5124C396.452 48.2987 396.026 49.1468 395.239 49.4075L395.236 49.4096ZM501.478 173.349C500.738 172.978 500.439 172.076 500.81 171.336L500.812 171.331C501.183 170.591 502.084 170.292 502.825 170.663C503.565 171.034 503.864 171.936 503.493 172.676L503.492 172.679C503.12 173.42 502.219 173.72 501.478 173.349ZM382.619 54.7299C381.884 55.1111 380.978 54.8243 380.597 54.0889C380.216 53.3534 380.503 52.4473 381.239 52.0661L381.242 52.0654C381.978 51.6842 382.883 51.9708 383.264 52.7063C383.645 53.4418 383.358 54.3465 382.622 54.7278L382.619 54.7299ZM494.068 185.147C493.395 184.664 493.242 183.727 493.725 183.054L493.727 183.051C494.21 182.378 495.148 182.224 495.82 182.707C496.493 183.191 496.647 184.128 496.164 184.801L496.161 184.804C495.678 185.477 494.741 185.63 494.068 185.147ZM370.997 61.9728C370.331 62.465 369.392 62.3243 368.9 61.6583C368.407 60.992 368.549 60.0526 369.215 59.5603L369.218 59.5575C369.884 59.0655 370.823 59.2066 371.316 59.8728C371.808 60.539 371.666 61.4784 371 61.9707L370.997 61.9728ZM487.027 195.626L487.024 195.629C486.443 196.219 485.493 196.225 484.903 195.643C484.313 195.061 484.307 194.112 484.889 193.522L484.892 193.519C485.473 192.93 486.423 192.923 487.013 193.505C487.602 194.087 487.609 195.036 487.027 195.626ZM360.652 70.9466L360.65 70.9494C360.068 71.5391 359.118 71.5455 358.528 70.9637C357.939 70.3819 357.932 69.4322 358.514 68.8424L358.517 68.8397C359.099 68.2502 360.048 68.2436 360.638 68.8253C361.228 69.4071 361.234 70.3569 360.652 70.9466ZM476.323 204.912C475.657 205.404 474.718 205.262 474.226 204.596C473.733 203.93 473.874 202.991 474.54 202.499L474.544 202.497C475.21 202.004 476.148 202.145 476.641 202.811C477.133 203.477 476.992 204.416 476.326 204.908L476.323 204.912ZM349.721 81.7612C349.048 81.2781 348.894 80.3413 349.377 79.6684L349.38 79.665C349.863 78.9923 350.8 78.839 351.473 79.3221C352.145 79.8054 352.299 80.7421 351.816 81.4149L351.814 81.4184C351.33 82.091 350.394 82.2443 349.721 81.7612ZM464.298 212.404C463.563 212.785 462.658 212.498 462.276 211.763C461.895 211.027 462.183 210.121 462.918 209.74L462.921 209.739C463.657 209.358 464.562 209.645 464.944 210.38C465.325 211.116 465.037 212.021 464.302 212.402L464.298 212.404ZM342.716 93.8061C341.975 93.4349 341.676 92.5334 342.047 91.7929L342.049 91.7887C342.42 91.0484 343.322 90.7493 344.062 91.1205C344.803 91.4918 345.102 92.3932 344.73 93.1338L344.729 93.1365C344.358 93.8771 343.456 94.1774 342.716 93.8061ZM451.245 217.908C450.459 218.169 449.61 217.743 449.349 216.957C449.089 216.171 449.514 215.322 450.3 215.061L450.304 215.06C451.091 214.799 451.94 215.225 452.201 216.012C452.462 216.798 452.035 217.647 451.248 217.907L451.245 217.908ZM337.697 106.802C336.907 106.552 336.469 105.709 336.719 104.919L336.721 104.916C336.971 104.126 337.814 103.688 338.603 103.938C339.393 104.188 339.831 105.032 339.581 105.821L339.579 105.825C339.329 106.615 338.487 107.052 337.697 106.802ZM437.491 221.296C436.673 221.43 435.902 220.876 435.768 220.059C435.633 219.242 436.187 218.47 437.004 218.336L437.008 218.335C437.825 218.201 438.597 218.754 438.732 219.572C438.866 220.389 438.312 221.161 437.495 221.296L437.491 221.296ZM334.778 120.424C333.959 120.301 333.396 119.537 333.519 118.718L333.519 118.714C333.642 117.895 334.406 117.331 335.225 117.454C336.045 117.578 336.609 118.342 336.485 119.161L336.485 119.164C336.361 119.984 335.597 120.548 334.778 120.424ZM423.378 222.496C422.55 222.501 421.873 221.834 421.868 221.005C421.862 220.177 422.529 219.501 423.357 219.495L423.362 219.495C424.19 219.49 424.866 220.157 424.871 220.985C424.877 221.814 424.21 222.49 423.381 222.496L423.378 222.496ZM334.02 134.336C333.191 134.342 332.515 133.674 332.509 132.846L332.508 132.842C332.503 132.014 333.17 131.337 333.999 131.331C334.827 131.326 335.504 131.993 335.509 132.822L335.509 132.825C335.514 133.653 334.848 134.33 334.02 134.336ZM409.25 221.486C408.431 221.363 407.867 220.598 407.99 219.779C408.113 218.96 408.877 218.396 409.697 218.519L409.7 218.52C410.519 218.643 411.083 219.408 410.96 220.227C410.836 221.046 410.073 221.609 409.254 221.486L409.25 221.486ZM335.433 148.196C334.616 148.33 333.844 147.776 333.709 146.959L333.709 146.955C333.575 146.138 334.128 145.367 334.946 145.232C335.763 145.098 336.535 145.651 336.669 146.469L336.67 146.472C336.804 147.29 336.25 148.062 335.433 148.196ZM395.452 218.284C394.662 218.034 394.224 217.191 394.474 216.401C394.724 215.612 395.567 215.174 396.357 215.424L396.361 215.425C397.151 215.676 397.588 216.518 397.338 217.308C397.088 218.098 396.245 218.535 395.455 218.285L395.452 218.284ZM338.993 161.665C338.206 161.925 337.358 161.499 337.098 160.713L337.096 160.709C336.836 159.922 337.262 159.074 338.048 158.814C338.834 158.553 339.683 158.979 339.944 159.765L339.945 159.769C340.206 160.555 339.779 161.404 338.993 161.665ZM382.325 212.955C381.585 212.584 381.285 211.683 381.656 210.943C382.027 210.202 382.929 209.903 383.669 210.275L383.673 210.275C384.413 210.647 384.713 211.549 384.342 212.289C383.97 213.03 383.069 213.329 382.328 212.957L382.325 212.955ZM344.624 174.408C343.889 174.789 342.984 174.501 342.602 173.766L342.601 173.763C342.22 173.027 342.506 172.122 343.242 171.741C343.977 171.36 344.883 171.647 345.264 172.382L345.265 172.386C345.647 173.121 345.36 174.027 344.624 174.408ZM370.201 205.625C369.528 205.142 369.375 204.205 369.858 203.532C370.341 202.859 371.278 202.706 371.95 203.189L371.954 203.191C372.627 203.675 372.78 204.611 372.297 205.284C371.814 205.957 370.877 206.111 370.204 205.628L370.201 205.625ZM352.194 186.105C351.528 186.597 350.588 186.456 350.096 185.79L350.093 185.787C349.601 185.121 349.742 184.182 350.408 183.689C351.075 183.197 352.014 183.338 352.506 184.005L352.508 184.008C353.001 184.674 352.86 185.613 352.194 186.105ZM359.375 196.488C358.786 195.906 358.779 194.957 359.361 194.367C359.943 193.777 360.892 193.771 361.482 194.353L361.485 194.355C362.075 194.937 362.081 195.887 361.499 196.477C360.917 197.066 359.968 197.073 359.378 196.491L359.375 196.488Z" fill="#777777"/>
<path d="M360.651 70.948C352.364 79.348 345.865 89.3424 341.551 100.325C337.236 111.308 335.193 123.052 335.547 134.846C335.571 135.674 334.92 136.366 334.092 136.39C333.264 136.415 332.572 135.764 332.547 134.936C332.182 122.735 334.295 110.588 338.758 99.2274C343.221 87.8671 349.943 77.5298 358.515 68.841C359.097 68.2516 360.047 68.245 360.637 68.8267C361.226 69.4084 361.232 70.3583 360.651 70.948Z" fill="#0146BE"/>
<path d="M494.931 183.966C493.971 183.312 493.723 182.003 494.378 181.043C501.936 169.953 506.816 157.26 508.632 143.964C510.449 130.667 509.151 117.13 504.844 104.42C504.471 103.32 505.062 102.125 506.162 101.752C507.263 101.379 508.457 101.969 508.83 103.07C513.346 116.397 514.706 130.592 512.802 144.534C510.897 158.476 505.78 171.785 497.855 183.413C497.2 184.373 495.891 184.621 494.931 183.966Z" fill="#FFC3E8"/>
<path d="M513.263 40.6446C512.674 40.0629 512.667 39.1131 513.249 38.5234C513.831 37.9336 514.78 37.9273 515.37 38.509L515.376 38.5145C515.965 39.0964 515.972 40.0462 515.39 40.6358C514.808 41.2252 513.858 41.2316 513.269 40.6501L513.263 40.6446ZM522.962 51.3345C522.961 51.3327 522.96 51.3307 522.958 51.329C522.436 50.6854 522.536 49.7409 523.179 49.2192C523.823 48.698 524.767 48.7965 525.288 49.4398C525.29 49.4417 525.292 49.444 525.293 49.4459C525.815 50.0895 525.716 51.0341 525.072 51.5557C524.428 52.077 523.484 51.9779 522.962 51.3345ZM502.448 31.0955C501.798 30.5827 501.687 29.6401 502.199 28.9897C502.712 28.3391 503.655 28.2271 504.306 28.74C504.308 28.7414 504.31 28.7427 504.311 28.7441C504.962 29.2569 505.074 30.2001 504.561 30.8506C504.048 31.5011 503.105 31.613 502.454 31.1003C502.453 31.0988 502.45 31.0971 502.448 31.0955ZM533.471 63.4869C532.773 63.9328 531.845 63.728 531.399 63.0299C531.398 63.028 531.397 63.0257 531.395 63.0238C530.949 62.3257 531.154 61.3985 531.852 60.9525C532.55 60.5064 533.477 60.7107 533.923 61.4088C533.924 61.4107 533.926 61.4123 533.927 61.4142C534.373 62.1123 534.169 63.0409 533.471 63.4869ZM490.64 22.8176C489.936 22.381 489.719 21.4566 490.156 20.7526C490.592 20.0486 491.517 19.8312 492.221 20.2677C492.223 20.269 492.225 20.2712 492.227 20.2725C492.931 20.7092 493.148 21.6335 492.712 22.3374C492.275 23.0414 491.35 23.2576 490.646 22.821C490.644 22.8198 490.642 22.8188 490.64 22.8176ZM540.47 76.2853C539.726 76.6494 538.828 76.3417 538.463 75.5979C538.462 75.5958 538.461 75.5938 538.46 75.5917C538.095 74.8478 538.403 73.9483 539.147 73.5838C539.891 73.2195 540.79 73.528 541.154 74.2718C541.155 74.2739 541.157 74.2759 541.158 74.278C541.522 75.0219 541.214 75.9208 540.47 76.2853ZM477.978 15.9244C477.23 15.57 476.909 14.6754 477.263 13.9266C477.618 13.1778 478.513 12.8578 479.262 13.2122C479.264 13.2132 479.266 13.2146 479.268 13.2156C480.017 13.57 480.336 14.464 479.982 15.2127C479.628 15.9614 478.733 16.282 477.985 15.9278C477.983 15.9268 477.98 15.9253 477.978 15.9244ZM545.981 89.7904C545.201 90.0687 544.343 89.6617 544.064 88.8815C544.063 88.8792 544.062 88.8769 544.061 88.8746C543.783 88.0944 544.19 87.2361 544.97 86.9577C545.751 86.6793 546.609 87.0864 546.887 87.8666C546.888 87.8689 546.889 87.8712 546.89 87.8735C547.168 88.6538 546.761 89.5121 545.981 89.7904ZM464.62 10.5033C463.836 10.2356 463.418 9.38275 463.686 8.59884C463.953 7.81488 464.806 7.39635 465.59 7.6641C465.592 7.66487 465.595 7.66605 465.597 7.66682C466.381 7.93472 466.799 8.78672 466.531 9.57057C466.263 10.3545 465.41 10.7731 464.627 10.5053C464.624 10.5046 464.622 10.504 464.62 10.5033ZM549.941 103.834C549.134 104.023 548.326 103.522 548.137 102.715C548.137 102.713 548.136 102.711 548.136 102.708C547.947 101.902 548.448 101.095 549.254 100.906C550.061 100.717 550.868 101.217 551.057 102.024C551.058 102.026 551.058 102.028 551.058 102.031C551.247 102.837 550.747 103.644 549.941 103.834ZM450.732 6.61674C449.923 6.43853 449.412 5.63801 449.59 4.82902C449.768 4.02016 450.568 3.5085 451.377 3.68652C451.38 3.68705 451.382 3.688 451.385 3.68854C452.194 3.86686 452.705 4.66735 452.527 5.47626C452.348 6.28507 451.548 6.79619 450.739 6.61807C450.737 6.61759 450.734 6.61723 450.732 6.61674ZM552.304 118.23C551.481 118.328 550.735 117.74 550.637 116.918C550.637 116.915 550.637 116.912 550.636 116.91C550.539 116.088 551.126 115.342 551.948 115.244C552.771 115.146 553.517 115.734 553.615 116.556C553.615 116.559 553.616 116.561 553.616 116.563C553.714 117.386 553.126 118.132 552.304 118.23ZM436.498 4.30974C435.674 4.22308 435.076 3.48461 435.163 2.66074C435.25 1.83686 435.988 1.23918 436.812 1.32582C436.814 1.32607 436.817 1.32691 436.819 1.32716C437.643 1.41391 438.24 2.15162 438.153 2.97547C438.066 3.79924 437.329 4.39639 436.505 4.30969C436.503 4.30945 436.5 4.30997 436.498 4.30974ZM553.047 132.8C552.219 132.805 551.543 132.138 551.537 131.31C551.537 131.308 551.538 131.305 551.538 131.303C551.532 130.474 552.199 129.798 553.028 129.793C553.856 129.787 554.532 130.454 554.538 131.282C554.538 131.285 554.538 131.287 554.538 131.29C554.544 132.118 553.876 132.794 553.047 132.8ZM422.094 3.6032C421.266 3.60854 420.59 2.9417 420.584 2.11353C420.578 1.28512 421.246 0.608513 422.074 0.602897L422.081 0.602851C422.91 0.597289 423.586 1.26481 423.592 2.09321C423.597 2.92138 422.93 3.59728 422.102 3.60315C422.1 3.60316 422.096 3.6032 422.094 3.6032ZM552.166 147.362C551.342 147.275 550.744 146.537 550.831 145.713C550.831 145.711 550.831 145.709 550.831 145.707C550.918 144.883 551.657 144.285 552.48 144.372C553.304 144.459 553.901 145.196 553.815 146.02C553.814 146.022 553.814 146.025 553.814 146.028C553.727 146.851 552.989 147.449 552.166 147.362ZM407.702 4.50418C406.879 4.602 406.134 4.01488 406.036 3.19234C405.938 2.36973 406.525 1.624 407.348 1.52617C407.35 1.52589 407.352 1.52502 407.355 1.52474C408.177 1.42697 408.924 2.01464 409.021 2.83727C409.119 3.6599 408.532 4.40638 407.709 4.50414C407.707 4.5044 407.704 4.50391 407.702 4.50418ZM549.665 161.735C548.856 161.557 548.345 160.757 548.523 159.948C548.524 159.945 548.524 159.943 548.524 159.941C548.702 159.132 549.502 158.62 550.311 158.798C551.12 158.976 551.632 159.776 551.454 160.585C551.453 160.588 551.452 160.59 551.452 160.593C551.274 161.402 550.474 161.913 549.665 161.735ZM393.5 7.00458C392.694 7.1936 391.887 6.69334 391.697 5.88701C391.508 5.08057 392.009 4.27326 392.815 4.08404C392.817 4.08348 392.82 4.08248 392.823 4.08191C393.629 3.89301 394.436 4.3938 394.625 5.20017C394.814 6.00666 394.314 6.81402 393.507 7.00315C393.505 7.00366 393.503 7.00406 393.5 7.00458ZM545.571 175.74C544.787 175.472 544.368 174.619 544.636 173.835C544.637 173.833 544.637 173.831 544.638 173.829C544.906 173.045 545.758 172.627 546.542 172.894C547.326 173.162 547.745 174.015 547.477 174.799C547.476 174.801 547.475 174.803 547.474 174.806C547.206 175.589 546.354 176.007 545.571 175.74ZM379.667 11.079C378.886 11.3574 378.028 10.9503 377.75 10.1701C377.471 9.38989 377.878 8.53234 378.658 8.25388C378.66 8.25307 378.663 8.25187 378.665 8.25107C379.445 7.97275 380.303 8.37973 380.582 9.16001C380.86 9.94023 380.453 10.7986 379.673 11.0769C379.671 11.0776 379.669 11.0783 379.667 11.079ZM539.928 189.19C539.179 188.836 538.859 187.942 539.213 187.193C539.214 187.191 539.216 187.189 539.217 187.187C539.571 186.438 540.466 186.118 541.215 186.472C541.963 186.826 542.283 187.721 541.928 188.47C541.927 188.472 541.927 188.474 541.926 188.477C541.571 189.225 540.677 189.545 539.928 189.19ZM366.383 16.6814C365.639 17.0457 364.74 16.7372 364.376 15.9933C364.012 15.2495 364.319 14.3512 365.063 13.9868C365.065 13.9857 365.067 13.9843 365.069 13.9833C365.813 13.6188 366.713 13.9267 367.077 14.6706C367.442 15.4145 367.133 16.3135 366.389 16.6779C366.387 16.6789 366.385 16.6804 366.383 16.6814ZM532.804 201.92C532.1 201.484 531.883 200.558 532.319 199.854C532.321 199.852 532.322 199.85 532.324 199.849C532.76 199.145 533.684 198.928 534.388 199.364C535.092 199.801 535.309 200.725 534.873 201.429C534.871 201.431 534.87 201.434 534.869 201.436C534.432 202.14 533.508 202.357 532.804 201.92ZM353.815 23.7456C353.117 24.1913 352.19 23.9872 351.744 23.2893C351.298 22.5914 351.502 21.6642 352.2 21.2181C352.202 21.2167 352.204 21.2145 352.206 21.2132C352.904 20.7672 353.832 20.9721 354.278 21.6701C354.724 22.3681 354.52 23.2954 353.822 23.7414C353.82 23.7427 353.817 23.7443 353.815 23.7456ZM524.29 213.769C523.639 213.256 523.527 212.313 524.04 211.662C524.042 211.661 524.044 211.659 524.046 211.657C524.559 211.006 525.501 210.895 526.151 211.408C526.802 211.921 526.914 212.864 526.401 213.514C526.4 213.516 526.398 213.518 526.397 213.52C525.884 214.171 524.94 214.282 524.29 213.769ZM340.011 31.9618C339.489 31.3182 339.588 30.3736 340.232 29.852C340.234 29.8506 340.235 29.8493 340.237 29.8478C340.881 29.3262 341.825 29.4255 342.347 30.0691C342.868 30.7126 342.77 31.6565 342.126 32.1781C342.125 32.1797 342.122 32.1815 342.12 32.183C341.477 32.7044 340.532 32.6052 340.011 31.9618ZM516.632 224.579L516.627 224.584C516.045 225.174 515.095 225.18 514.505 224.599C513.916 224.017 513.91 223.067 514.491 222.477L514.496 222.472C515.078 221.882 516.028 221.876 516.618 222.458C517.207 223.039 517.214 223.989 516.632 224.579ZM331.441 41.8724L331.436 41.878C330.854 42.4673 329.904 42.4737 329.315 41.8923C328.725 41.3106 328.719 40.3608 329.3 39.771L329.306 39.7654C329.888 39.1757 330.837 39.1693 331.427 39.7511C332.017 40.333 332.023 41.2828 331.441 41.8724ZM503.585 234.281C503.064 233.637 503.163 232.693 503.807 232.171C503.808 232.17 503.81 232.168 503.811 232.166C504.455 231.644 505.4 231.744 505.921 232.387C506.443 233.031 506.345 233.975 505.701 234.497C505.699 234.499 505.697 234.5 505.695 234.502C505.052 235.023 504.107 234.924 503.585 234.281ZM319.781 52.9419C319.13 52.4291 319.019 51.4859 319.531 50.8354C319.533 50.8334 319.535 50.831 319.536 50.8291C320.049 50.1788 320.991 50.0676 321.642 50.5801C322.292 51.093 322.405 52.0361 321.892 52.6867C321.89 52.6885 321.889 52.6904 321.888 52.6922C321.375 53.3427 320.432 53.4545 319.781 52.9419ZM493.726 243.135C493.028 243.581 492.1 243.378 491.654 242.68C491.208 241.982 491.413 241.054 492.111 240.608C492.113 240.606 492.115 240.605 492.117 240.603C492.815 240.157 493.743 240.362 494.189 241.06C494.634 241.758 494.43 242.686 493.732 243.132C493.73 243.133 493.728 243.134 493.726 243.135ZM311.544 64.9855C310.84 64.5489 310.623 63.6232 311.06 62.9192C311.061 62.9172 311.063 62.9156 311.064 62.9136C311.5 62.2096 312.425 61.9928 313.129 62.4294C313.833 62.866 314.049 63.7903 313.613 64.4943C313.612 64.4963 313.611 64.4986 313.61 64.5006C313.173 65.2045 312.248 65.4219 311.544 64.9855ZM480.862 250.366C480.119 250.73 479.22 250.422 478.856 249.678C478.491 248.935 478.799 248.036 479.543 247.672C479.545 247.671 479.547 247.669 479.549 247.668C480.293 247.304 481.192 247.611 481.557 248.355C481.921 249.099 481.613 249.999 480.869 250.363C480.867 250.364 480.865 250.365 480.862 250.366ZM304.719 77.8772C303.97 77.5228 303.649 76.6282 304.004 75.8794C304.005 75.8773 304.006 75.8753 304.007 75.8732C304.361 75.1246 305.255 74.8048 306.004 75.1588C306.753 75.5132 307.073 76.4078 306.719 77.1565C306.718 77.1587 306.717 77.1606 306.716 77.1628C306.361 77.9115 305.467 78.2312 304.719 77.8772ZM467.268 256.099C466.487 256.377 465.629 255.97 465.351 255.19C465.072 254.41 465.479 253.551 466.26 253.273C466.262 253.272 466.264 253.271 466.267 253.27C467.047 252.992 467.905 253.399 468.183 254.179C468.462 254.959 468.055 255.818 467.274 256.096C467.272 256.097 467.27 256.098 467.268 256.099ZM299.39 91.4555C298.606 91.1878 298.188 90.335 298.455 89.5511C298.456 89.5488 298.457 89.5465 298.458 89.5442C298.726 88.7602 299.579 88.3416 300.363 88.6094C301.146 88.8773 301.565 89.73 301.297 90.5139C301.297 90.5161 301.295 90.5185 301.295 90.5208C301.027 91.3047 300.174 91.7232 299.39 91.4555ZM453.11 260.266C452.303 260.455 451.496 259.956 451.307 259.149C451.118 258.342 451.619 257.535 452.426 257.346C452.428 257.345 452.43 257.345 452.433 257.345C453.239 257.156 454.046 257.656 454.235 258.463C454.424 259.269 453.923 260.076 453.117 260.265C453.114 260.266 453.112 260.266 453.11 260.266ZM295.62 105.551C294.812 105.373 294.3 104.572 294.479 103.763C294.479 103.761 294.479 103.759 294.48 103.756C294.658 102.947 295.459 102.436 296.268 102.614C297.076 102.793 297.588 103.593 297.41 104.402C297.41 104.404 297.409 104.406 297.409 104.408C297.231 105.217 296.429 105.729 295.62 105.551ZM438.577 262.824C437.755 262.922 437.009 262.335 436.911 261.513C436.813 260.69 437.401 259.943 438.224 259.846C438.226 259.845 438.228 259.844 438.23 259.844C439.053 259.746 439.799 260.334 439.897 261.157C439.995 261.979 439.407 262.726 438.585 262.824C438.582 262.824 438.58 262.824 438.577 262.824ZM293.452 119.978C292.628 119.891 292.031 119.153 292.117 118.329C292.117 118.327 292.118 118.324 292.118 118.322C292.205 117.498 292.944 116.901 293.767 116.987C294.591 117.074 295.188 117.812 295.102 118.636C295.101 118.638 295.101 118.641 295.101 118.643C295.014 119.467 294.276 120.065 293.452 119.978ZM423.85 263.746C423.022 263.752 422.347 263.084 422.341 262.256C422.336 261.428 423.003 260.752 423.831 260.746C423.833 260.746 423.836 260.746 423.838 260.746C424.666 260.74 425.342 261.407 425.348 262.236C425.353 263.064 424.687 263.74 423.859 263.746L423.85 263.746ZM292.906 134.556C292.077 134.562 291.4 133.895 291.394 133.067C291.394 133.064 291.395 133.062 291.395 133.059C291.389 132.231 292.056 131.555 292.885 131.549C293.713 131.544 294.389 132.211 294.394 133.039C294.394 133.041 294.395 133.044 294.395 133.047C294.401 133.875 293.734 134.551 292.906 134.556ZM409.113 263.023C408.29 262.936 407.692 262.197 407.779 261.374C407.865 260.55 408.604 259.952 409.428 260.039C409.43 260.039 409.432 260.04 409.434 260.04C410.258 260.127 410.856 260.865 410.769 261.689C410.682 262.513 409.945 263.11 409.121 263.023C409.119 263.023 409.116 263.023 409.113 263.023ZM293.984 149.105C293.161 149.203 292.415 148.616 292.317 147.793C292.317 147.791 292.317 147.788 292.317 147.786C292.219 146.963 292.806 146.218 293.629 146.12C294.451 146.022 295.198 146.61 295.295 147.432C295.296 147.434 295.296 147.436 295.296 147.438C295.394 148.261 294.806 149.007 293.984 149.105ZM394.548 260.661C393.739 260.482 393.228 259.683 393.406 258.874C393.584 258.065 394.384 257.553 395.193 257.731C395.195 257.732 395.198 257.732 395.2 257.732C396.009 257.91 396.521 258.711 396.343 259.52C396.165 260.329 395.364 260.84 394.555 260.662C394.553 260.661 394.551 260.661 394.548 260.661ZM296.678 163.444C295.872 163.633 295.065 163.132 294.876 162.325C294.876 162.323 294.874 162.32 294.874 162.318C294.685 161.511 295.186 160.704 295.992 160.515C296.799 160.327 297.605 160.827 297.794 161.634C297.795 161.636 297.795 161.638 297.796 161.641C297.985 162.447 297.485 163.255 296.678 163.444ZM380.335 256.683C379.552 256.415 379.133 255.562 379.401 254.779C379.668 253.995 380.521 253.576 381.305 253.844C381.307 253.845 381.31 253.846 381.312 253.847C382.096 254.114 382.515 254.967 382.247 255.751C381.979 256.535 381.126 256.953 380.342 256.686C380.34 256.685 380.338 256.684 380.335 256.683ZM300.961 177.391C300.181 177.67 299.324 177.263 299.045 176.483C299.044 176.481 299.043 176.478 299.042 176.476C298.764 175.696 299.171 174.838 299.951 174.559C300.732 174.281 301.59 174.688 301.868 175.468C301.869 175.47 301.87 175.472 301.87 175.475C302.149 176.255 301.742 177.113 300.961 177.391ZM366.664 251.134C365.916 250.78 365.596 249.885 365.951 249.136C366.305 248.388 367.199 248.068 367.948 248.422C367.95 248.423 367.952 248.424 367.954 248.425C368.703 248.78 369.023 249.674 368.668 250.423C368.314 251.171 367.42 251.491 366.671 251.137C366.669 251.136 366.667 251.135 366.664 251.134ZM306.785 190.765C306.041 191.129 305.143 190.822 304.778 190.078C304.777 190.076 304.776 190.073 304.775 190.071C304.411 189.327 304.718 188.428 305.462 188.064C306.206 187.699 307.105 188.008 307.469 188.752C307.47 188.754 307.472 188.756 307.473 188.758C307.837 189.502 307.529 190.4 306.785 190.765ZM353.705 244.077C353.001 243.641 352.784 242.716 353.221 242.012C353.657 241.308 354.582 241.091 355.286 241.527C355.288 241.529 355.29 241.53 355.292 241.532C355.996 241.968 356.213 242.893 355.777 243.597C355.34 244.301 354.415 244.517 353.711 244.081C353.709 244.079 353.707 244.079 353.705 244.077ZM314.081 203.397C313.383 203.843 312.456 203.639 312.009 202.941C312.008 202.939 312.007 202.936 312.005 202.934C311.559 202.236 311.763 201.309 312.461 200.863C313.159 200.417 314.087 200.621 314.533 201.319C314.534 201.321 314.536 201.323 314.538 201.325C314.983 202.023 314.779 202.951 314.081 203.397ZM341.62 235.605C340.97 235.092 340.859 234.149 341.372 233.498C341.885 232.848 342.828 232.736 343.479 233.249C343.48 233.25 343.482 233.252 343.484 233.254C344.134 233.766 344.246 234.71 343.733 235.36C343.22 236.011 342.277 236.123 341.627 235.61C341.625 235.608 341.622 235.607 341.62 235.605ZM320.643 214.909C320.642 214.908 320.641 214.906 320.639 214.904C320.118 214.26 320.217 213.316 320.86 212.794C321.504 212.273 322.448 212.371 322.969 213.015C322.971 213.017 322.973 213.018 322.975 213.02C323.496 213.664 323.397 214.608 322.754 215.13C322.11 215.652 321.165 215.553 320.643 214.909ZM330.557 225.835C329.967 225.253 329.961 224.304 330.542 223.714C331.124 223.124 332.074 223.118 332.664 223.7L332.669 223.705C333.259 224.287 333.265 225.237 332.684 225.826C332.102 226.416 331.152 226.422 330.562 225.841L330.557 225.835Z" fill="#777777"/>
<path d="M345.425 238.473C344.756 237.985 344.61 237.046 345.098 236.377C345.586 235.708 346.524 235.561 347.193 236.049C368.303 251.448 393.605 260.05 419.726 260.709C420.554 260.73 421.209 261.418 421.188 262.246C421.167 263.074 420.478 263.728 419.65 263.707C392.919 263.033 367.028 254.231 345.425 238.473Z" fill="#D2A6FB"/>
<path d="M386.894 9.39222C385.78 9.7195 384.611 9.0819 384.283 7.96798C383.956 6.85388 384.593 5.68516 385.708 5.35775C397.521 1.88702 409.761 0.083178 422.074 4.90647e-05C423.235 -0.00780173 424.182 0.927493 424.191 2.08848C424.198 3.24969 423.263 4.19745 422.102 4.2053C410.182 4.2858 398.331 6.03199 386.894 9.39222Z" fill="#F49F00"/>
</svg>
